<svg xmlns="http://www.w3.org/2000/svg" viewBox="0 0 47.59 47.59"><defs><style>.cls-1{fill:#bacbd7;}.cls-2{fill:#1d1d1b;}</style></defs><g id="Camada_2" data-name="Camada 2"><g id="Camada_1-2" data-name="Camada 1"><path class="cls-1" d="M23.79,0a23.8,23.8,0,1,0,23.8,23.79A23.79,23.79,0,0,0,23.79,0Zm0,43A19.17,19.17,0,1,1,43,23.79,19.16,19.16,0,0,1,23.79,43Z"/><path class="cls-2" d="M30.94,38.55a13.17,13.17,0,0,1-5.63-3.06c-1.68-1.37-4.6-7.15-5.18-8.31s-3.37-8.65-4.07-11a5.23,5.23,0,0,1,1.1-5c.77-.84,4.16-.4,4.16-.4A14.49,14.49,0,0,0,19,9.43a7.12,7.12,0,0,0-2.42-.69,5.61,5.61,0,0,0-.82,0,8.21,8.21,0,0,0-1.85.31,7.62,7.62,0,0,0-2.29,1.16A16.83,16.83,0,0,0,7.5,14.9,30.51,30.51,0,0,0,5,21.6a33.41,33.41,0,0,1-1.68,4.87c-.54,1.22-.63,1.18-1.12,2.31A14.57,14.57,0,0,0,.58,34.16a6.91,6.91,0,0,0,1.2,4.9A6.13,6.13,0,0,0,7,41.31a6,6,0,0,0,1.69-.38,6.39,6.39,0,0,0,1.09-.55,3.11,3.11,0,0,1-2-.8,4.12,4.12,0,0,1-1.22-1.4A4.7,4.7,0,0,1,6.17,37a6.2,6.2,0,0,1,1-3.87,10.65,10.65,0,0,1,1.87-2.25c.18-.16.36-.3.36-.3l.13-.1.21-.13.28-.17.26-.14.48-.14a8.62,8.62,0,0,1,5,.27,9.21,9.21,0,0,0,.58,1.41c.19.37.35.63.48.84.62,1,1,1.57,1.56,2.33A20.38,20.38,0,0,0,23.63,40a7.35,7.35,0,0,0,5,1.07C30.71,41,33,39,33,39ZM11.57,25.78a3.28,3.28,0,1,1,3.28-3.28A3.28,3.28,0,0,1,11.57,25.78Z"/><path class="cls-2" d="M36,19.55,36,23.83H42.5s.15,3.75-.74,5.23a8.54,8.54,0,0,1-2.94,3,6,6,0,0,1-.93.41,5.41,5.41,0,0,1-1.36.23,7.43,7.43,0,0,1-1.66-.09c-1.84-.35-4-1.33-5-3.16a7.42,7.42,0,0,1-.6-1.69,10.42,10.42,0,0,1-.18-2.55c0-1.7,0-.5-.07-2.93,0-.84,0-1.95,0-3.28,0-.53,0-1.93.06-3.22a11.11,11.11,0,0,1,.17-1.28,7.42,7.42,0,0,1,.28-1.08,7.13,7.13,0,0,1,.77-1.69,6.39,6.39,0,0,1,1.89-1.88,6.61,6.61,0,0,1,8.38,1.26,5.17,5.17,0,0,1,.56.83,4.54,4.54,0,0,1,.33.74,2,2,0,0,1,.15.46c.19.7.26.94.26.94h4.89a15.23,15.23,0,0,0-2.17-4.74,10.76,10.76,0,0,0-4.67-4A7.49,7.49,0,0,0,38.85,5a10.34,10.34,0,0,0-1.22-.23,12.53,12.53,0,0,0-2.13-.14,12.12,12.12,0,0,0-2.43.27,10.4,10.4,0,0,0-3.9,1.57,9.85,9.85,0,0,0-3.83,5.33c-.26,1.08-.52,2.27-.6,2.82-.13.83-.2,1.6-.26,2.58-.09,1.74-.08,3.33,0,5.37a29.69,29.69,0,0,0,.63,6.72,10.87,10.87,0,0,0,1.38,3.17,10.66,10.66,0,0,0,2.37,2.45A12.12,12.12,0,0,0,37,37a12.34,12.34,0,0,0,7.09-3.15,10.4,10.4,0,0,0,1.69-2.16,8.37,8.37,0,0,0,.75-1.79,8.19,8.19,0,0,0,.28-1.79c.19-4,.26-8.46.26-8.46Z"/></g></g></svg>