<svg xmlns="http://www.w3.org/2000/svg" viewBox="0 0 684.14 431.23"><defs><style>.cls-1{fill:#e0e0e0;}.cls-2{fill:#fafafa;}.cls-3{fill:#ebebeb;}.cls-4{fill:#f5f5f5;}.cls-5{fill:#263238;}.cls-6{fill:#455a64;}.cls-7{fill:#e8505b;}.cls-8{opacity:0.5;}.cls-9{fill:#ffbe9d;}.cls-10{fill:#fff;}.cls-11{fill:#eb996e;}.cls-12{opacity:0.2;}.cls-13,.cls-14{opacity:0.4;}.cls-15{opacity:0.3;}.cls-16{opacity:0.1;}</style></defs><g id="Camada_2" data-name="Camada 2"><g id="Traffic_cone" data-name="Traffic cone"><path class="cls-1" d="M605.87,419V417.6a6,6,0,0,1,6-6H662.8a6,6,0,0,1,6,6V419Z"/><path class="cls-1" d="M635.38,354.49,617,411.56h39.32l-17.09-57A2,2,0,0,0,635.38,354.49Z"/><polygon class="cls-2" points="629.38 373.08 644.76 373.08 651.41 395.27 622.22 395.27 629.38 373.08"/><path class="cls-1" d="M235.13,417.8v-1.44a6,6,0,0,1,6-6h50.88a6,6,0,0,1,6,6v1.44Z"/><path class="cls-1" d="M264.63,353.25l-18.4,57.07h39.32l-17.09-57A2,2,0,0,0,264.63,353.25Z"/><polygon class="cls-2" points="258.64 371.84 274.02 371.84 280.67 394.03 251.48 394.03 258.64 371.84"/><path class="cls-3" d="M238.46,37.73l-5.05-8.8-7.92,1.16L219,21.88l3.37-8.18-8.83-5.86-6.59,6.64L198.22,13,194.7,2.75,184.15,3.87l-.6,8.93-7.86,4-8.32-5.89-8.44,6.15,4.38,9.45-5,7.56-9.13-.48-2.38,11.26,8.68,3.34.75,9.46-9,5.17,4.3,9.76,9.32-1.45L167,78.24l-3.23,8.88,8.54,6L179,86l9.24,2.5L191.09,98l10.27-.69,1.32-8.57,8.81-5,7.21,5.75,9.11-6.79-4.61-8,4.49-8,9.24.68,2.83-10.47-7.93-4.3-1.05-9.54ZM202.68,68.56a20.76,20.76,0,1,1,7.67-28.35A20.76,20.76,0,0,1,202.68,68.56Z"/><path class="cls-3" d="M201.54,44.52a22.12,22.12,0,0,0-1.7-2.09,11,11,0,0,0-6.43-3.14,10.78,10.78,0,0,0-9.58,3.77,10.7,10.7,0,0,0-2.46,5.73,10.68,10.68,0,0,0,6.32,11,9.81,9.81,0,0,0,3.1.85,9.91,9.91,0,0,0,3.08-.08A10.77,10.77,0,0,0,202,54.17a10.9,10.9,0,0,0,.52-7.13,21.64,21.64,0,0,0-.94-2.52A8.4,8.4,0,0,1,202.68,47a11.06,11.06,0,0,1-3.39,11.51A11.28,11.28,0,0,1,194,61a10.49,10.49,0,0,1-3.22.1,10.83,10.83,0,0,1-3.25-.88,11.14,11.14,0,0,1-6.61-11.52,10.5,10.5,0,0,1,.88-3.25,10.32,10.32,0,0,1,1.71-2.73,11.2,11.2,0,0,1,4.88-3.33A11.09,11.09,0,0,1,200,42.29,8.5,8.5,0,0,1,201.54,44.52Z"/><path class="cls-3" d="M211.42,21.4c.12.08-2.7,4.57-6.29,10s-6.61,9.82-6.73,9.74,2.7-4.57,6.29-10S211.3,21.32,211.42,21.4Z"/><path class="cls-3" d="M221.62,57.73a19,19,0,0,1-2.8-.78c-1.71-.52-4.09-1.21-6.73-1.85S207,54,205.25,53.64a18.65,18.65,0,0,1-2.84-.6,14.57,14.57,0,0,1,2.9.24,66,66,0,0,1,6.9,1.31,67,67,0,0,1,6.72,2A14.07,14.07,0,0,1,221.62,57.73Z"/><path class="cls-3" d="M196.66,60.13a11.49,11.49,0,0,1,.9,2.43c.47,1.52,1.07,3.65,1.62,6s.95,4.54,1.2,6.12a11.7,11.7,0,0,1,.26,2.58,15,15,0,0,1-.63-2.51c-.33-1.56-.79-3.71-1.34-6.07s-1.08-4.5-1.47-6A14.59,14.59,0,0,1,196.66,60.13Z"/><path class="cls-3" d="M185.45,58.86a70.61,70.61,0,0,1-4.12,7.33,69.1,69.1,0,0,1-4.57,7.07,68.43,68.43,0,0,1,4.12-7.33A67.15,67.15,0,0,1,185.45,58.86Z"/><path class="cls-3" d="M183.85,23.47a62.43,62.43,0,0,1,2.65,7.71,66.3,66.3,0,0,1,2.16,7.87A61.7,61.7,0,0,1,186,31.34,66.3,66.3,0,0,1,183.85,23.47Z"/><path class="cls-3" d="M181.5,47.91a41.37,41.37,0,0,1-6.48-.36,39.51,39.51,0,0,1-6.44-.88,41.47,41.47,0,0,1,6.49.36A39,39,0,0,1,181.5,47.91Z"/><path class="cls-3" d="M199.45,45.72a8.57,8.57,0,1,1-11.69-3.16A8.56,8.56,0,0,1,199.45,45.72Z"/><path class="cls-1" d="M196.16,50.05a8.92,8.92,0,0,0-8.75-.95c0-.05.39-.4,1.2-.74a7.08,7.08,0,0,1,6.54.71C195.87,49.57,196.2,50,196.16,50.05Z"/><path class="cls-1" d="M192.73,45a27.85,27.85,0,0,0-1.3,4,29.14,29.14,0,0,0-.17,4.19,6.92,6.92,0,0,1-.34-4.28A6.89,6.89,0,0,1,192.73,45Z"/><path class="cls-1" d="M350.61,216.05l-6.54-11.39-10.25,1.5-8.46-10.63L329.72,185l-11.42-7.58-8.53,8.6-11.23-2L294,170.79l-13.65,1.44-.77,11.56L269.39,189l-10.77-7.62-10.92,7.95,5.68,12.23-6.5,9.79-11.81-.62L232,225.24l11.23,4.33,1,12.23-11.65,6.69,5.57,12.63,12-1.87,8,9.22L254,280l11,7.8,8.62-9.33,11.95,3.23L289.31,294l13.29-.9L304.32,282l11.39-6.54,9.33,7.44,11.78-8.79-6-10.38,5.81-10.4,12,.88,3.66-13.55L342,235.12l-1.37-12.35Zm-46.29,39.88a26.86,26.86,0,1,1,9.92-36.67A26.85,26.85,0,0,1,304.32,255.93Z"/><path class="cls-1" d="M302.84,224.83a24,24,0,0,0-2.18-2.72,14.2,14.2,0,0,0-8.33-4.1,14,14,0,0,0-12.47,4.89,14,14,0,0,0-3.19,7.44,13.94,13.94,0,0,0,8.21,14.31,13.28,13.28,0,0,0,4,1.1,13.11,13.11,0,0,0,4-.1,14,14,0,0,0,10.5-8.31,14.25,14.25,0,0,0,.66-9.26,24,24,0,0,0-1.25-3.25s.05.06.13.19l.33.59a6.34,6.34,0,0,1,.47,1,9.59,9.59,0,0,1,.51,1.42,13.44,13.44,0,0,1,.58,4.09,14.35,14.35,0,0,1-11.85,14,14.53,14.53,0,0,1-8.33-1,14.33,14.33,0,0,1-8.51-14.82,13.34,13.34,0,0,1,1.13-4.18,13.07,13.07,0,0,1,2.2-3.52,14.32,14.32,0,0,1,6.28-4.3,14.37,14.37,0,0,1,11.78,1.12A13.3,13.3,0,0,1,300.8,222a9.16,9.16,0,0,1,1,1.16,5.27,5.27,0,0,1,.62.91c.14.23.26.42.35.58S302.85,224.82,302.84,224.83Z"/><path class="cls-1" d="M315.62,194.91c.12.08-3.55,5.87-8.2,12.94s-8.52,12.73-8.64,12.65,3.55-5.87,8.2-12.94S315.5,194.83,315.62,194.91Z"/><path class="cls-1" d="M328.81,241.92a30.74,30.74,0,0,1-3.6-1.06c-2.21-.68-5.28-1.58-8.71-2.42s-6.57-1.45-8.85-1.86a31.85,31.85,0,0,1-3.68-.72,3.71,3.71,0,0,1,1,0c.65.06,1.58.17,2.73.33a89.34,89.34,0,0,1,8.91,1.72c3.45.84,6.52,1.8,8.71,2.57,1.09.39,2,.72,2.57,1A3.47,3.47,0,0,1,328.81,241.92Z"/><path class="cls-1" d="M296.52,245a18.12,18.12,0,0,1,1.11,3.16c.61,2,1.36,4.72,2.08,7.79s1.24,5.87,1.57,7.91a20.34,20.34,0,0,1,.4,3.32,22.32,22.32,0,0,1-.76-3.25c-.42-2-1-4.8-1.72-7.86s-1.41-5.82-1.92-7.82A23.25,23.25,0,0,1,296.52,245Z"/><path class="cls-1" d="M282,243.39c.13.07-2.29,4.3-5.39,9.45s-5.72,9.25-5.84,9.18,2.29-4.31,5.39-9.45S281.89,243.31,282,243.39Z"/><path class="cls-1" d="M280,197.59c.13,0,1.64,4.44,3.35,10a105.46,105.46,0,0,1,2.86,10.16c-.14,0-1.64-4.44-3.36-10A105.17,105.17,0,0,1,280,197.59Z"/><path class="cls-1" d="M276.92,229.21a64.52,64.52,0,0,1-8.39-.54,69.66,69.66,0,0,1-8.34-1,64.52,64.52,0,0,1,8.39.54A69.66,69.66,0,0,1,276.92,229.21Z"/><circle class="cls-1" cx="290.52" cy="231.9" r="11.08" transform="translate(14.03 480.36) rotate(-80.54)"/><path class="cls-3" d="M295.87,232c-.05.06-.57-.38-1.52-.91a10.6,10.6,0,0,0-4-1.27,10.44,10.44,0,0,0-4.15.4,15.67,15.67,0,0,1-1.68.55,3.88,3.88,0,0,1,1.56-.9,9.21,9.21,0,0,1,8.42.91C295.48,231.4,295.92,231.94,295.87,232Z"/><path class="cls-3" d="M291.44,225.49a26.32,26.32,0,0,0-1.75,5.14,26.66,26.66,0,0,0-.15,5.43,9.54,9.54,0,0,1-.36-5.52A9.71,9.71,0,0,1,291.44,225.49Z"/><path class="cls-4" d="M354.44,23.36l-3.29-5.74-5.16.76L341.73,13l2.2-5.33-5.76-3.81-4.29,4.33-5.65-1L325.94.58l-6.87.72-.39,5.82-5.12,2.6-5.42-3.84-5.5,4L305.5,16,302.23,21l-6-.32L294.73,28l5.66,2.18.48,6.16L295,39.69l2.8,6.35,6.07-.94,4,4.64-2.1,5.78,5.56,3.93,4.33-4.69,6,1.62,1.88,6.22,6.68-.45.87-5.58,5.73-3.3,4.7,3.75,5.93-4.43-3-5.22,2.92-5.24,6,.44,1.85-6.82L350.12,33l-.69-6.22Zm-23.3,20.07a13.52,13.52,0,1,1,5-18.46A13.53,13.53,0,0,1,331.14,43.43Z"/><path class="cls-4" d="M330.39,27.78a10.88,10.88,0,0,0-1.1-1.37,7.14,7.14,0,0,0-7.41-1.72,7.18,7.18,0,0,0-3.05,2.11,6.69,6.69,0,0,0-1.06,1.72,6.36,6.36,0,0,0-.55,2,7,7,0,0,0,4.14,7.2,6.68,6.68,0,0,0,2,.56,6.42,6.42,0,0,0,2-.06A7.08,7.08,0,0,0,331,29.42a10,10,0,0,0-.63-1.64s0,0,.07.09l.17.3a3.43,3.43,0,0,1,.23.5,4.58,4.58,0,0,1,.26.72,6.63,6.63,0,0,1,.29,2.06,7,7,0,0,1-.55,2.7,7.15,7.15,0,0,1-1.95,2.7,7.25,7.25,0,0,1-3.46,1.64,6.94,6.94,0,0,1-2.09.07,7.27,7.27,0,0,1-2.11-.57,7.36,7.36,0,0,1-3.37-3,7.22,7.22,0,0,1-.91-4.44,6.47,6.47,0,0,1,.57-2.1,6.77,6.77,0,0,1,1.1-1.77,7.21,7.21,0,0,1,9.1-1.6,6.71,6.71,0,0,1,1.63,1.29,5.83,5.83,0,0,1,.49.58,3.72,3.72,0,0,1,.31.46l.17.29C330.38,27.74,330.4,27.77,330.39,27.78Z"/><path class="cls-4" d="M336.83,12.72c.06,0-1.79,2.95-4.13,6.51s-4.29,6.41-4.35,6.37,1.79-3,4.13-6.51S336.77,12.68,336.83,12.72Z"/><path class="cls-4" d="M343.47,36.38a16.5,16.5,0,0,1-1.82-.53c-1.11-.35-2.65-.8-4.38-1.22s-3.31-.73-4.45-.94a18.29,18.29,0,0,1-1.86-.36,1.8,1.8,0,0,1,.51,0c.33,0,.8.08,1.38.16,1.15.16,2.75.44,4.48.86s3.28.91,4.38,1.3c.55.2,1,.36,1.3.49A2.25,2.25,0,0,1,343.47,36.38Z"/><path class="cls-4" d="M327.21,37.94a8.63,8.63,0,0,1,.56,1.59c.31,1,.69,2.38,1.05,3.93s.62,2.95.79,4a10.9,10.9,0,0,1,.2,1.67,11.1,11.1,0,0,1-.38-1.64c-.22-1-.51-2.41-.87-3.95s-.71-2.93-1-3.94A14.57,14.57,0,0,1,327.21,37.94Z"/><path class="cls-4" d="M319.91,37.12c.06,0-1.15,2.16-2.71,4.75s-2.88,4.66-2.94,4.63A53.55,53.55,0,0,1,317,41.74C318.53,39.15,319.85,37.08,319.91,37.12Z"/><path class="cls-4" d="M318.88,14.07c.06,0,.82,2.23,1.68,5A52.27,52.27,0,0,1,322,24.22c-.07,0-.82-2.24-1.69-5S318.81,14.09,318.88,14.07Z"/><path class="cls-4" d="M317.34,30a32.77,32.77,0,0,1-4.22-.27,34.36,34.36,0,0,1-4.19-.53,35,35,0,0,1,4.22.27A34.36,34.36,0,0,1,317.34,30Z"/><path class="cls-4" d="M329,28.56a5.57,5.57,0,1,1-7.61-2.06A5.58,5.58,0,0,1,329,28.56Z"/><path class="cls-3" d="M326.89,31.38a8,8,0,0,1-.77-.46,5.41,5.41,0,0,0-2-.64,5.3,5.3,0,0,0-2.09.2,6.36,6.36,0,0,1-.85.28,2.14,2.14,0,0,1,.79-.45,4.68,4.68,0,0,1,2.17-.29,4.6,4.6,0,0,1,2.07.75A1.9,1.9,0,0,1,326.89,31.38Z"/><path class="cls-3" d="M324.65,28.11a14.44,14.44,0,0,0-.88,2.59,13.68,13.68,0,0,0-.07,2.73,4.83,4.83,0,0,1-.18-2.78A4.88,4.88,0,0,1,324.65,28.11Z"/><path class="cls-4" d="M215.34,164.6l-8.29-14.43-13,1.9L183.34,138.6l5.53-13.41-14.48-9.61-10.81,10.9L149.35,124l-5.77-16.74-17.3,1.83-1,14.64-12.89,6.54-13.64-9.65L84.93,130.68l7.19,15.5-8.23,12.41-15-.8L65,176.25l14.24,5.48,1.22,15.51-14.76,8.47,7.06,16,15.27-2.37L98.17,231l-5.29,14.56,14,9.89,10.93-11.82,15.15,4.1,4.71,15.64,16.84-1.14,2.18-14.05,14.43-8.29,11.82,9.43,14.94-11.13-7.56-13.16,7.36-13.19L212.82,213l4.65-17.17-13-7-1.73-15.65Zm-58.66,50.54a34,34,0,1,1,12.57-46.47A34,34,0,0,1,156.68,215.14Z"/><path class="cls-4" d="M154.8,175.73a28.8,28.8,0,0,0-2.77-3.45,17.9,17.9,0,0,0-10.55-5.19,17.7,17.7,0,0,0-15.79,6.19A16.52,16.52,0,0,0,123,177.6a16.85,16.85,0,0,0-1.37,5.12,17.62,17.62,0,0,0,10.41,18.12,17.66,17.66,0,0,0,10.19,1.26,17.84,17.84,0,0,0,14.14-22.25,30.51,30.51,0,0,0-1.58-4.12s.07.07.17.24l.41.75A7.9,7.9,0,0,1,156,178a13.12,13.12,0,0,1,.65,1.8,17.23,17.23,0,0,1,.73,5.19,18.21,18.21,0,0,1-6.3,13.61,18.27,18.27,0,0,1-8.71,4.12,16.81,16.81,0,0,1-5.26.16,17,17,0,0,1-5.3-1.43A18.2,18.2,0,0,1,121,182.64a17.18,17.18,0,0,1,1.43-5.3,17.4,17.4,0,0,1,2.79-4.46,18.34,18.34,0,0,1,8-5.44,18.23,18.23,0,0,1,14.93,1.42,16.87,16.87,0,0,1,4.11,3.25,12.24,12.24,0,0,1,1.23,1.46,8.56,8.56,0,0,1,.79,1.15c.17.3.32.54.43.74S154.81,175.72,154.8,175.73Z"/><path class="cls-4" d="M171,137.82c.15.1-4.5,7.44-10.4,16.39s-10.79,16.13-10.94,16,4.5-7.44,10.39-16.39S170.85,137.72,171,137.82Z"/><path class="cls-4" d="M187.72,197.39a43.9,43.9,0,0,1-4.57-1.35c-2.8-.86-6.69-2-11-3.06s-8.32-1.84-11.21-2.36-4.68-.82-4.67-.91a4.49,4.49,0,0,1,1.28,0c.82.06,2,.2,3.47.41a114.53,114.53,0,0,1,11.29,2.18c4.37,1.06,8.25,2.28,11,3.26,1.39.49,2.5.92,3.26,1.23A4.72,4.72,0,0,1,187.72,197.39Z"/><path class="cls-4" d="M146.8,201.32a24.79,24.79,0,0,1,1.4,4c.77,2.5,1.73,6,2.63,9.88s1.58,7.44,2,10a25.18,25.18,0,0,1,.51,4.2,28.17,28.17,0,0,1-1-4.12c-.54-2.55-1.28-6.08-2.18-10s-1.79-7.37-2.44-9.9A29.39,29.39,0,0,1,146.8,201.32Z"/><path class="cls-4" d="M128.41,199.24c.16.1-2.9,5.46-6.83,12s-7.25,11.72-7.4,11.63,2.9-5.45,6.83-12S128.26,199.15,128.41,199.24Z"/><path class="cls-4" d="M125.8,141.22c.18-.06,2.08,5.62,4.26,12.67s3.79,12.82,3.62,12.88-2.08-5.62-4.25-12.68S125.63,141.27,125.8,141.22Z"/><path class="cls-4" d="M122,181.28c0,.18-4.77-.12-10.62-.68s-10.58-1.16-10.57-1.34,4.78.12,10.63.68S122,181.1,122,181.28Z"/><circle class="cls-4" cx="139.19" cy="184.69" r="14.04" transform="translate(-76.87 267.16) rotate(-73.89)"/><path class="cls-3" d="M146,184.8a21.58,21.58,0,0,1-1.93-1.15,13.7,13.7,0,0,0-5-1.62,13.43,13.43,0,0,0-5.25.51,21.34,21.34,0,0,1-2.13.7,4.87,4.87,0,0,1,2-1.14,11.7,11.7,0,0,1,10.67,1.15C145.47,184.05,146,184.74,146,184.8Z"/><path class="cls-3" d="M140.35,176.57c.18.1-1.56,2.75-2.21,6.51s0,6.85-.2,6.88-1.18-3.08-.45-7S140.24,176.45,140.35,176.57Z"/><path class="cls-4" d="M598.69,155.85l-8.29-14.44-13,1.91L566.7,129.85l5.52-13.41-14.47-9.61-10.81,10.9-14.23-2.49L526.93,98.5l-17.29,1.82-1,14.64-12.89,6.55-13.64-9.66-13.84,10.08,7.19,15.5-8.24,12.41-15-.8-3.91,18.46L462.61,173l1.23,15.51L449.08,197l7.05,16,15.28-2.37,10.12,11.68-5.3,14.56,14,9.88,10.92-11.81L516.3,239,521,254.63l16.84-1.13L540,239.45l14.44-8.29,11.81,9.43,14.94-11.14-7.55-13.15L581,203.11l15.15,1.12,4.64-17.18-13-7-1.73-15.64ZM540,206.38a34,34,0,1,1,12.57-46.46A34,34,0,0,1,540,206.38Z"/><path class="cls-4" d="M538.16,167a32.37,32.37,0,0,0-2.77-3.44,18,18,0,0,0-10.55-5.2,17.77,17.77,0,0,0-15.8,6.19,16.56,16.56,0,0,0-2.67,4.32A16.37,16.37,0,0,0,505,174a17.6,17.6,0,0,0,10.4,18.12,17.58,17.58,0,0,0,10.2,1.27,17.89,17.89,0,0,0,8.46-3.94,17.67,17.67,0,0,0,4.84-6.58,17.88,17.88,0,0,0,.83-11.73,31.16,31.16,0,0,0-1.57-4.13,1.42,1.42,0,0,1,.16.25l.42.75a8.37,8.37,0,0,1,.6,1.26A12,12,0,0,1,540,171a16.85,16.85,0,0,1,.73,5.18,18.17,18.17,0,0,1-6.3,13.61A18.33,18.33,0,0,1,525.7,194a17.11,17.11,0,0,1-5.26.16,17.4,17.4,0,0,1-5.3-1.43,18.21,18.21,0,0,1-10.78-18.79,18.26,18.26,0,0,1,4.22-9.76,18.31,18.31,0,0,1,7.95-5.44,18.06,18.06,0,0,1,8.37-.82,17.87,17.87,0,0,1,6.56,2.24,16.91,16.91,0,0,1,4.11,3.24,11.39,11.39,0,0,1,1.23,1.47,8,8,0,0,1,.79,1.15l.44.74A1.56,1.56,0,0,1,538.16,167Z"/><path class="cls-4" d="M554.35,129.06c.15.1-4.5,7.44-10.39,16.4s-10.8,16.13-11,16,4.5-7.44,10.4-16.4S554.2,129,554.35,129.06Z"/><path class="cls-4" d="M571.07,188.63a39.59,39.59,0,0,1-4.56-1.34c-2.81-.87-6.7-2-11-3.07s-8.33-1.84-11.21-2.36a41.12,41.12,0,0,1-4.67-.91,5,5,0,0,1,1.28,0c.82.07,2,.21,3.46.41,2.92.41,6.93,1.12,11.29,2.18s8.26,2.28,11,3.27c1.39.49,2.5.91,3.26,1.23A5.22,5.22,0,0,1,571.07,188.63Z"/><path class="cls-4" d="M530.15,192.57a24.11,24.11,0,0,1,1.41,4c.76,2.5,1.72,6,2.63,9.88s1.57,7.44,2,10a24.52,24.52,0,0,1,.5,4.21,30.4,30.4,0,0,1-1-4.12c-.53-2.56-1.28-6.09-2.18-10s-1.78-7.38-2.43-9.9A30.56,30.56,0,0,1,530.15,192.57Z"/><path class="cls-4" d="M511.77,190.49c.15.09-2.91,5.45-6.84,12s-7.24,11.73-7.4,11.64,2.9-5.46,6.84-12S511.61,190.39,511.77,190.49Z"/><path class="cls-4" d="M509.16,132.46c.17-.05,2.08,5.63,4.25,12.68S517.21,158,517,158s-2.08-5.62-4.25-12.67S509,132.52,509.16,132.46Z"/><path class="cls-4" d="M505.31,172.53c0,.18-4.78-.13-10.63-.68s-10.58-1.16-10.56-1.34,4.77.12,10.62.68S505.32,172.35,505.31,172.53Z"/><circle class="cls-4" cx="522.55" cy="175.94" r="14.04" transform="translate(214.65 633.33) rotate(-74.66)"/><path class="cls-3" d="M529.33,176a21.37,21.37,0,0,1-1.93-1.14,13.34,13.34,0,0,0-5-1.62,13.51,13.51,0,0,0-5.26.51,21.77,21.77,0,0,1-2.12.7,4.72,4.72,0,0,1,2-1.15,11.92,11.92,0,0,1,5.48-.72,11.66,11.66,0,0,1,5.19,1.88A4.94,4.94,0,0,1,529.33,176Z"/><path class="cls-3" d="M523.71,167.82c.18.1-1.57,2.75-2.22,6.51s0,6.84-.19,6.88-1.18-3.08-.46-7S523.6,167.7,523.71,167.82Z"/><path class="cls-4" d="M445.62,245.12l-4.08-7.1-6.38.94-5.27-6.62,2.71-6.6L425.49,221l-5.32,5.36-7-1.23-2.83-8.23-8.51.9-.48,7.2L395,228.23l-6.71-4.74-6.8,4.95,3.53,7.62-4,6.1-7.36-.39-1.92,9.08,7,2.69.61,7.63-7.26,4.17,3.47,7.86L383,272l5,5.74-2.61,7.16,6.89,4.86,5.37-5.81,7.45,2,2.31,7.69,8.29-.56,1.06-6.91,7.1-4.08,5.81,4.64,7.35-5.48-3.71-6.47,3.62-6.48,7.44.55,2.29-8.45-6.4-3.46-.85-7.69ZM416.77,270A16.74,16.74,0,1,1,423,247.12,16.74,16.74,0,0,1,416.77,270Z"/><path class="cls-4" d="M415.85,250.59a14,14,0,0,0-1.36-1.69,8.79,8.79,0,0,0-9.18-2.13,8.68,8.68,0,0,0-3.77,2.62,8.05,8.05,0,0,0-1.32,2.12,8.16,8.16,0,0,0-.67,2.52,8.66,8.66,0,0,0,5.11,8.91,8.16,8.16,0,0,0,2.52.69,8.35,8.35,0,0,0,2.5-.07,8.77,8.77,0,0,0,6.95-10.94,14.3,14.3,0,0,0-.78-2s0,0,.08.12l.21.37a3.66,3.66,0,0,1,.29.62,5.88,5.88,0,0,1,.32.88,8.41,8.41,0,0,1,.36,2.55,8.78,8.78,0,0,1-.68,3.35,8.91,8.91,0,0,1-2.42,3.35,9,9,0,0,1-4.28,2,8.92,8.92,0,0,1-5.19-.63,9,9,0,0,1-5.31-9.24,8.42,8.42,0,0,1,.71-2.6,8.24,8.24,0,0,1,1.37-2.2,8.89,8.89,0,0,1,3.91-2.67,8.72,8.72,0,0,1,4.11-.4,8.84,8.84,0,0,1,3.23,1.09,8.37,8.37,0,0,1,2,1.6,6,6,0,0,1,.61.72,4.5,4.5,0,0,1,.39.57l.21.36C415.84,250.54,415.86,250.59,415.85,250.59Z"/><path class="cls-4" d="M423.82,232c.07.05-2.22,3.66-5.11,8.06s-5.31,7.93-5.39,7.88,2.22-3.66,5.12-8.06S423.74,231.9,423.82,232Z"/><path class="cls-4" d="M432,261.24a18.58,18.58,0,0,1-2.25-.66c-1.37-.43-3.29-1-5.42-1.51s-4.1-.9-5.52-1.16a18,18,0,0,1-2.29-.45,2.5,2.5,0,0,1,.63,0c.4,0,1,.1,1.7.2a53.38,53.38,0,0,1,5.55,1.07c2.15.52,4.06,1.12,5.43,1.6.68.25,1.23.45,1.6.61A2.29,2.29,0,0,1,432,261.24Z"/><path class="cls-4" d="M411.92,263.18a12.45,12.45,0,0,1,.69,2c.37,1.23.85,2.95,1.29,4.86s.78,3.66,1,4.93a11.78,11.78,0,0,1,.25,2.07,13.92,13.92,0,0,1-.47-2c-.27-1.25-.63-3-1.07-4.9s-.88-3.62-1.2-4.86A14.07,14.07,0,0,1,411.92,263.18Z"/><path class="cls-4" d="M402.88,262.15c.07.05-1.43,2.69-3.36,5.89s-3.57,5.77-3.64,5.72,1.42-2.68,3.36-5.89S402.8,262.11,402.88,262.15Z"/><path class="cls-4" d="M401.59,233.62a62.77,62.77,0,0,1,2.09,6.23c1.07,3.48,1.87,6.31,1.79,6.34a65.09,65.09,0,0,1-2.1-6.24C402.31,236.48,401.51,233.65,401.59,233.62Z"/><path class="cls-4" d="M399.7,253.32a42.56,42.56,0,0,1-5.23-.33,43.33,43.33,0,0,1-5.19-.66,42.56,42.56,0,0,1,5.23.33A43.33,43.33,0,0,1,399.7,253.32Z"/><circle class="cls-4" cx="408.18" cy="255" r="6.9" transform="translate(40.51 565.57) rotate(-72.18)"/><path class="cls-3" d="M411.51,255.05a9.35,9.35,0,0,1-.95-.56,6.37,6.37,0,0,0-5.05-.55c-.64.19-1,.39-1.05.35a2.26,2.26,0,0,1,1-.57,5.76,5.76,0,0,1,5.24.57C411.26,254.68,411.54,255,411.51,255.05Z"/><path class="cls-3" d="M408.75,251a16.84,16.84,0,0,0-1.09,3.21,17.17,17.17,0,0,0-.1,3.38,7.19,7.19,0,0,1,1.19-6.59Z"/><path class="cls-1" d="M494.22,45.26l-6.54-11.39-10.24,1.5L469,24.74l4.36-10.58L461.91,6.58l-8.53,8.6-11.23-2L437.6,0,424,1.44,423.17,13,413,18.16l-10.76-7.62-10.92,8L397,30.72l-6.5,9.79-11.81-.62L375.6,54.45l11.24,4.33,1,12.23L376.15,77.7l5.57,12.63,12.06-1.87,8,9.22-4.17,11.49,11,7.8,8.62-9.33,12,3.23,3.72,12.35,13.29-.9,1.71-11.09,11.4-6.54,9.32,7.44,11.79-8.79-6-10.38,5.81-10.4,11.95.88,3.67-13.55-10.27-5.56L484.28,52ZM447.93,85.14a26.86,26.86,0,1,1,9.92-36.67A26.86,26.86,0,0,1,447.93,85.14Z"/><path class="cls-1" d="M446.45,54a22.57,22.57,0,0,0-2.18-2.72,14.14,14.14,0,0,0-14.74-3.41,14,14,0,0,0-6,4.2,13.13,13.13,0,0,0-2.11,3.4,12.92,12.92,0,0,0-1.08,4,13.9,13.9,0,0,0,8.21,14.31,14.1,14.1,0,0,0,8,1,14.18,14.18,0,0,0,6.68-3.12A14,14,0,0,0,447,66.55a14.12,14.12,0,0,0,.66-9.26A24,24,0,0,0,446.45,54s.06.06.13.19l.33.59a7.28,7.28,0,0,1,.48,1,9.64,9.64,0,0,1,.5,1.42,13.14,13.14,0,0,1,.58,4.09,14.38,14.38,0,0,1-5,10.74,14.47,14.47,0,0,1-6.88,3.26,13.69,13.69,0,0,1-4.15.12,13.4,13.4,0,0,1-4.18-1.13,14.37,14.37,0,0,1-8.51-14.82,13.34,13.34,0,0,1,1.13-4.18,13.59,13.59,0,0,1,2.2-3.52,14.38,14.38,0,0,1,6.28-4.3,14.37,14.37,0,0,1,11.78,1.12,13.57,13.57,0,0,1,3.25,2.56,11.24,11.24,0,0,1,1,1.16,6.73,6.73,0,0,1,.62.91l.34.58C446.43,54,446.46,54,446.45,54Z"/><path class="cls-1" d="M459.23,24.12c.12.08-3.55,5.87-8.2,12.94s-8.52,12.73-8.64,12.65,3.56-5.87,8.21-12.94S459.11,24,459.23,24.12Z"/><path class="cls-1" d="M472.43,71.13a32.67,32.67,0,0,1-3.6-1.06c-2.22-.68-5.29-1.58-8.71-2.42s-6.57-1.45-8.85-1.86a32.39,32.39,0,0,1-3.69-.72,3.74,3.74,0,0,1,1,0c.65.06,1.58.17,2.74.33a89.88,89.88,0,0,1,8.91,1.72c3.44.84,6.51,1.8,8.7,2.57,1.1.39,2,.72,2.57,1A3.68,3.68,0,0,1,472.43,71.13Z"/><path class="cls-1" d="M440.14,74.24a20.45,20.45,0,0,1,1.11,3.16c.6,2,1.36,4.72,2.07,7.79s1.25,5.87,1.57,7.91a19,19,0,0,1,.4,3.32,24.09,24.09,0,0,1-.76-3.25c-.42-2-1-4.8-1.72-7.86s-1.41-5.82-1.92-7.82A23.94,23.94,0,0,1,440.14,74.24Z"/><path class="cls-1" d="M425.63,72.6c.12.07-2.29,4.3-5.4,9.45s-5.71,9.25-5.84,9.18,2.29-4.31,5.4-9.45S425.51,72.52,425.63,72.6Z"/><path class="cls-1" d="M423.57,26.8c.14,0,1.64,4.44,3.36,10s3,10.12,2.85,10.16-1.64-4.44-3.35-10A103.68,103.68,0,0,1,423.57,26.8Z"/><path class="cls-1" d="M420.53,58.42a66.8,66.8,0,0,1-8.39-.54,69.29,69.29,0,0,1-8.33-1.05,64.41,64.41,0,0,1,8.38.54A69.66,69.66,0,0,1,420.53,58.42Z"/><circle class="cls-1" cx="434.14" cy="61.11" r="11.08" transform="matrix(0.96, -0.27, 0.27, 0.96, -0.39, 119.35)"/><path class="cls-3" d="M439.49,61.2a15.45,15.45,0,0,1-1.52-.91,10.39,10.39,0,0,0-8.11-.88,15.45,15.45,0,0,1-1.68.56,3.69,3.69,0,0,1,1.56-.9,9.21,9.21,0,0,1,8.42.91C439.09,60.61,439.53,61.15,439.49,61.2Z"/><path class="cls-3" d="M435.05,54.7a26.32,26.32,0,0,0-1.75,5.14,26.66,26.66,0,0,0-.15,5.43,9.74,9.74,0,0,1-.36-5.52A9.8,9.8,0,0,1,435.05,54.7Z"/><path class="cls-3" d="M292.36,67.08l-1.69-3-2.66.39-2.19-2.76L287,59l-3-2-2.21,2.23-2.91-.51-1.18-3.42-3.54.37-.2,3-2.64,1.34-2.79-2-2.83,2.06,1.47,3.17-1.68,2.54-3.06-.16-.8,3.77,2.91,1.12.25,3.17-3,1.74,1.45,3.27,3.12-.48,2.07,2.38-1.08,3,2.86,2,2.23-2.41,3.1.84,1,3.19,3.44-.23.45-2.87,2.95-1.7,2.42,1.93,3.05-2.28-1.54-2.69,1.5-2.69,3.1.22.95-3.51L290.14,72l-.35-3.2Zm-12,10.34a7,7,0,1,1,2.57-9.51A7,7,0,0,1,280.37,77.42Z"/><path class="cls-3" d="M280,69.35s-.2-.25-.62-.65a3.69,3.69,0,0,0-2.12-1,3.48,3.48,0,0,0-3.42,5.17,3.48,3.48,0,0,0,6.19-.35,3.63,3.63,0,0,0,.22-2.32c-.13-.56-.29-.84-.25-.87a1.81,1.81,0,0,1,.45.81,3.75,3.75,0,0,1-.08,2.53,3.86,3.86,0,0,1-2.88,2.36,3.91,3.91,0,0,1-3.67-6.39,3.83,3.83,0,0,1,3.49-1.3,3.67,3.67,0,0,1,2.22,1.2A1.8,1.8,0,0,1,280,69.35Z"/><path class="cls-3" d="M283.3,61.6a15.23,15.23,0,0,1-2,3.46,15.5,15.5,0,0,1-2.4,3.17,15.23,15.23,0,0,1,2-3.46A15.09,15.09,0,0,1,283.3,61.6Z"/><path class="cls-3" d="M286.71,73.78a16.1,16.1,0,0,1-3.23-.71,16.24,16.24,0,0,1-3.21-.86,8.26,8.26,0,0,1,3.33.35A8.18,8.18,0,0,1,286.71,73.78Z"/><path class="cls-3" d="M278.35,74.59a7.43,7.43,0,0,1,1,2.79,7.38,7.38,0,0,1,.32,3,10.75,10.75,0,0,1-.83-2.84A10.51,10.51,0,0,1,278.35,74.59Z"/><path class="cls-3" d="M274.59,74.16a7.81,7.81,0,0,1-1.24,2.55A7.44,7.44,0,0,1,271.67,79a8,8,0,0,1,1.24-2.55A7.76,7.76,0,0,1,274.59,74.16Z"/><path class="cls-3" d="M274.05,62.3a7.29,7.29,0,0,1,1.06,2.53,7.4,7.4,0,0,1,.55,2.69A7.27,7.27,0,0,1,274.61,65,7.29,7.29,0,0,1,274.05,62.3Z"/><path class="cls-3" d="M273.26,70.49a4.73,4.73,0,0,1-2.19.05,4.79,4.79,0,0,1-2.14-.46,4.65,4.65,0,0,1,2.19-.06A4.82,4.82,0,0,1,273.26,70.49Z"/><path class="cls-3" d="M279.28,69.76a2.87,2.87,0,1,1-3.92-1.06A2.88,2.88,0,0,1,279.28,69.76Z"/><path class="cls-1" d="M278.18,71.21c-.1.11-.66-.3-1.45-.37s-1.41.18-1.48,0,.55-.67,1.54-.57S278.29,71.13,278.18,71.21Z"/><path class="cls-1" d="M277,69.53c.12.08-.14.64-.27,1.36s-.08,1.34-.23,1.38-.43-.62-.28-1.47S276.92,69.44,277,69.53Z"/><path class="cls-3" d="M569.26,54.72l-2.76-4.8-4.32.64-3.56-4.48,1.84-4.46-4.81-3.19-3.6,3.62-4.73-.83-1.92-5.56-5.75.61-.32,4.86-4.28,2.18-4.54-3.21-4.6,3.35,2.39,5.15-2.74,4.12-5-.26-1.3,6.13L524,60.41l.41,5.16-4.91,2.82,2.35,5.32,5.08-.79,3.36,3.88-1.76,4.84,4.65,3.28L536.83,81l5,1.36,1.57,5.2,5.59-.38.73-4.67,4.8-2.75,3.92,3.13,5-3.7-2.51-4.38,2.44-4.38,5,.37L570,65.09l-4.32-2.34-.57-5.2Zm-19.5,16.8a11.31,11.31,0,1,1,4.18-15.45A11.32,11.32,0,0,1,549.76,71.52Z"/><path class="cls-3" d="M549.13,58.42s-.29-.44-1-1.1a5.94,5.94,0,0,0-3.48-1.67,5.76,5.76,0,1,0,4.59,8,5.92,5.92,0,0,0,.32-3.84c-.23-.91-.51-1.37-.47-1.39s.1.1.23.32a4.85,4.85,0,0,1,.44,1,6,6,0,0,1-.18,4,6.18,6.18,0,0,1-8.2,3.31,6.19,6.19,0,0,1-3.67-6.4,6.07,6.07,0,0,1,1.45-3.31,6.15,6.15,0,0,1,5.54-2.1,5.94,5.94,0,0,1,3.58,1.89,4.68,4.68,0,0,1,.65.89C549.09,58.29,549.15,58.41,549.13,58.42Z"/><path class="cls-3" d="M554.52,45.82a39.69,39.69,0,0,1-3.33,5.53,39.87,39.87,0,0,1-3.77,5.25,40.1,40.1,0,0,1,3.33-5.54A40.15,40.15,0,0,1,554.52,45.82Z"/><path class="cls-3" d="M560.07,65.62c-.05.14-2.34-.62-5.22-1.32s-5.26-1.08-5.24-1.23a17.9,17.9,0,0,1,5.37.72A17.71,17.71,0,0,1,560.07,65.62Z"/><path class="cls-3" d="M546.47,66.93A17,17,0,0,1,548,71.51a17,17,0,0,1,.68,4.76,32.12,32.12,0,0,1-1.19-4.65A32.32,32.32,0,0,1,546.47,66.93Z"/><path class="cls-3" d="M540.36,66.24a19.63,19.63,0,0,1-2.14,4.05,20.37,20.37,0,0,1-2.59,3.79,20.9,20.9,0,0,1,2.14-4A20.37,20.37,0,0,1,540.36,66.24Z"/><path class="cls-3" d="M539.5,47a19.65,19.65,0,0,1,1.55,4.17,18.53,18.53,0,0,1,1.06,4.32,19.65,19.65,0,0,1-1.55-4.17A18.53,18.53,0,0,1,539.5,47Z"/><path class="cls-3" d="M538.22,60.27a12.31,12.31,0,0,1-3.55-.08,12.07,12.07,0,0,1-3.5-.6,12.73,12.73,0,0,1,3.55.08A12.16,12.16,0,0,1,538.22,60.27Z"/><path class="cls-3" d="M548,59.08a4.66,4.66,0,1,1-6.37-1.73A4.67,4.67,0,0,1,548,59.08Z"/><path class="cls-1" d="M546.2,61.43a11.39,11.39,0,0,0-2.33-.76,10.62,10.62,0,0,0-2.43.25,2.66,2.66,0,0,1,2.49-.77A2.71,2.71,0,0,1,546.2,61.43Z"/><path class="cls-1" d="M544.33,58.7c.13.08-.38,1-.59,2.19s-.06,2.23-.21,2.26a2.93,2.93,0,0,1-.3-2.35C543.47,59.46,544.23,58.61,544.33,58.7Z"/><path class="cls-3" d="M212.5,282.86l-2.75-4.8-4.32.63-3.56-4.48,1.84-4.46-4.82-3.19-3.59,3.62-4.73-.83-1.92-5.56-5.75.61-.32,4.86-4.29,2.18-4.53-3.21-4.6,3.35,2.39,5.15-2.74,4.13-5-.27-1.3,6.14,4.73,1.82.41,5.15-4.91,2.82,2.35,5.32,5.08-.79,3.36,3.88-1.76,4.84,4.65,3.29,3.63-3.93,5,1.36,1.57,5.2,5.59-.38.73-4.67,4.8-2.75,3.92,3.13,5-3.7L204.19,303l2.44-4.39,5,.37,1.54-5.7-4.32-2.34-.57-5.2ZM193,299.65a11.31,11.31,0,1,1,4.17-15.44A11.32,11.32,0,0,1,193,299.65Z"/><path class="cls-3" d="M192.38,286.55s-.29-.44-1-1.1a5.88,5.88,0,0,0-3.48-1.66,5.75,5.75,0,1,0,4.59,8,5.92,5.92,0,0,0,.32-3.84c-.23-.91-.51-1.36-.47-1.39s.09.1.22.32a4.31,4.31,0,0,1,.45,1,6,6,0,0,1-.18,4,6.15,6.15,0,0,1-8.2,3.31,6.19,6.19,0,0,1-3.67-6.4,6.19,6.19,0,0,1,7-5.41,6,6,0,0,1,3.58,1.89,5,5,0,0,1,.65.89C192.34,286.42,192.4,286.54,192.38,286.55Z"/><path class="cls-3" d="M197.77,274a39.69,39.69,0,0,1-3.33,5.53,39.87,39.87,0,0,1-3.77,5.25,80,80,0,0,1,7.1-10.78Z"/><path class="cls-3" d="M203.32,293.75c0,.14-2.34-.62-5.22-1.32s-5.26-1.08-5.24-1.23a26,26,0,0,1,10.46,2.55Z"/><path class="cls-3" d="M189.72,295.06a17.17,17.17,0,0,1,1.49,4.58,17,17,0,0,1,.68,4.76,31.75,31.75,0,0,1-1.19-4.64A32.58,32.58,0,0,1,189.72,295.06Z"/><path class="cls-3" d="M183.61,294.37a20.46,20.46,0,0,1-2.14,4.06,21.26,21.26,0,0,1-2.59,3.79,40.15,40.15,0,0,1,4.73-7.85Z"/><path class="cls-3" d="M182.74,275.08a19,19,0,0,1,1.56,4.17,19.29,19.29,0,0,1,1.06,4.32,19.07,19.07,0,0,1-1.56-4.17A19.84,19.84,0,0,1,182.74,275.08Z"/><path class="cls-3" d="M181.46,288.4a24.57,24.57,0,0,1-7-.67,12,12,0,0,1,3.55.07A12.36,12.36,0,0,1,181.46,288.4Z"/><path class="cls-3" d="M191.24,287.21a4.66,4.66,0,1,1-6.37-1.73A4.67,4.67,0,0,1,191.24,287.21Z"/><path class="cls-1" d="M189.45,289.57a11.32,11.32,0,0,0-2.33-.77,11.58,11.58,0,0,0-2.44.25,2.73,2.73,0,0,1,2.5-.77C188.73,288.45,189.57,289.49,189.45,289.57Z"/><path class="cls-1" d="M187.58,286.83c.13.09-.38,1-.59,2.19s-.06,2.23-.21,2.26a2.93,2.93,0,0,1-.3-2.35A3,3,0,0,1,187.58,286.83Z"/><path class="cls-5" d="M684.14,419.26c0,.15-153.17.26-342.06.26S0,419.41,0,419.26,153.13,419,342.08,419,684.14,419.12,684.14,419.26Z"/><path class="cls-5" d="M413.54,195.12v-7.3l-5.35-2.11-1.14-7.47,5-3.89-3.41-6.82-6.49,1.78-4.87-4.05,1.46-7.63-7-3.09-3.57,5.36-6.33-.33-3.08-6.65-7.47.81-.65,7.47-5.84,2.92-5.52-3.57-5.52,6.17,4.22,5.19-2.92,6.17h-7.47l-.81,7.63,6.33,2.43,1.3,6.66-5.2,4.38,3.17,6.82,6.73-2.11,4.87,4.87-1.62,7,6.66,3.25,3.89-4.87h7.31l2.43,6.16,8.12-1v-6.65l5.68-3.41L402,213l5.52-5.52-3.41-5.52,2.76-6.33Zm-33.35,6.42a14.94,14.94,0,1,1,14.93-14.94A14.94,14.94,0,0,1,380.19,201.54Z"/><path class="cls-5" d="M388.08,186.13c-.06,0,0-.7-.34-1.9a7.93,7.93,0,0,0-2.89-4.23,7.58,7.58,0,0,0-3.25-1.41,7.67,7.67,0,0,0-4,.35,7.57,7.57,0,0,0-3.55,2.67,7.64,7.64,0,0,0,0,9,7.51,7.51,0,0,0,3.55,2.67,7.64,7.64,0,0,0,7.27-1.06,7.89,7.89,0,0,0,2.89-4.23c.32-1.19.28-1.9.34-1.9a1.65,1.65,0,0,1,0,.51,6,6,0,0,1-.18,1.44,7.85,7.85,0,0,1-2.85,4.48,8.06,8.06,0,0,1-7.67,1.21,8,8,0,0,1-3.79-2.82,8.1,8.1,0,0,1,0-9.64,8,8,0,0,1,3.79-2.82,8,8,0,0,1,7.67,1.22,7.86,7.86,0,0,1,2.85,4.47,6.09,6.09,0,0,1,.18,1.44A1.65,1.65,0,0,1,388.08,186.13Z"/><path class="cls-5" d="M402.53,175.25a72.67,72.67,0,0,1-7.49,4.07,70.55,70.55,0,0,1-7.72,3.6,70.47,70.47,0,0,1,7.49-4.07A67.44,67.44,0,0,1,402.53,175.25Z"/><path class="cls-5" d="M395.87,201.56c-.12.1-2.21-2.3-5.05-5s-5.34-4.67-5.25-4.8a7.89,7.89,0,0,1,1.76,1.15,42.72,42.72,0,0,1,3.85,3.27,45.74,45.74,0,0,1,3.46,3.68A7.32,7.32,0,0,1,395.87,201.56Z"/><path class="cls-5" d="M379.44,194.12a27.38,27.38,0,0,1-1.38,6.2,27.92,27.92,0,0,1-2.27,5.92c-.14-.05.77-2.73,1.77-6.07S379.3,194.09,379.44,194.12Z"/><path class="cls-5" d="M372.9,189.31a34.42,34.42,0,0,1-5.16,3.17,36.34,36.34,0,0,1-5.41,2.71,34.42,34.42,0,0,1,5.16-3.17A36.34,36.34,0,0,1,372.9,189.31Z"/><path class="cls-5" d="M384.59,166.67a33.68,33.68,0,0,1-1,5.77,34,34,0,0,1-1.55,5.67,33.87,33.87,0,0,1,1-5.78A33.36,33.36,0,0,1,384.59,166.67Z"/><path class="cls-5" d="M374.37,181.07a21.13,21.13,0,0,1-4-2.49,20.91,20.91,0,0,1-3.66-2.91,21.13,21.13,0,0,1,4,2.49A21.39,21.39,0,0,1,374.37,181.07Z"/><path class="cls-5" d="M386.34,186.13a6.16,6.16,0,1,1-6.15-6.16A6.15,6.15,0,0,1,386.34,186.13Z"/><path class="cls-6" d="M382.74,187.65a7,7,0,0,0-5.11-3.72c0-.06.38-.15,1-.08a5,5,0,0,1,3.86,2.81C382.77,187.24,382.81,187.64,382.74,187.65Z"/><path class="cls-6" d="M382.4,183.29c.07.14-1.13.81-2.18,2.07s-1.51,2.55-1.66,2.5a4.38,4.38,0,0,1,1.26-2.83A4.45,4.45,0,0,1,382.4,183.29Z"/><path class="cls-7" d="M379.8,108.06l-4.94-8.61-7.74,1.14-6.39-8,3.3-8-8.63-5.72L349,85.34l-8.48-1.48-3.44-10L326.74,75l-.59,8.72-7.68,3.9-8.12-5.75-8.25,6,4.28,9.23-4.9,7.39-8.92-.47-2.33,11,8.49,3.27.73,9.24-8.8,5.05,4.21,9.53,9.1-1.41,6,7-3.15,8.67,8.33,5.89,6.51-7,9,2.44,2.81,9.32,10-.67,1.3-8.37,8.6-4.94,7,5.61,8.9-6.63-4.5-7.84,4.38-7.86,9,.67,2.77-10.23-7.75-4.2-1-9.32Zm-34.95,30.1a20.28,20.28,0,1,1,7.49-27.68A20.28,20.28,0,0,1,344.85,138.16Z"/><path class="cls-5" d="M343.73,114.68a22.59,22.59,0,0,0-1.67-2,10.56,10.56,0,0,0-15.63.61,9.84,9.84,0,0,0-1.59,2.56,9.69,9.69,0,0,0-.8,3,10.42,10.42,0,0,0,6.16,10.74,9.91,9.91,0,0,0,3,.83,10.09,10.09,0,0,0,3-.08,10.58,10.58,0,0,0,5-2.33,10.41,10.41,0,0,0,2.88-3.9,10.72,10.72,0,0,0,.52-7,22.23,22.23,0,0,0-.92-2.47,8.49,8.49,0,0,1,1.11,2.41,10.63,10.63,0,0,1-.37,7.17,10.83,10.83,0,0,1-8.15,6.55,10.93,10.93,0,0,1-6.33-.76,10.89,10.89,0,0,1-6.46-11.25,10,10,0,0,1,.86-3.18,10.28,10.28,0,0,1,1.67-2.67,11,11,0,0,1,4.77-3.25,10.82,10.82,0,0,1,11.38,2.81A8.17,8.17,0,0,1,343.73,114.68Z"/><path class="cls-5" d="M353.38,92.1c.12.07-2.63,4.46-6.14,9.8s-6.45,9.59-6.57,9.51,2.62-4.46,6.14-9.8S353.26,92,353.38,92.1Z"/><path class="cls-5" d="M363.34,127.59a17.79,17.79,0,0,1-2.73-.76c-1.68-.5-4-1.17-6.58-1.81s-5-1.1-6.67-1.42a17.1,17.1,0,0,1-2.78-.59,13,13,0,0,1,2.84.22,64.39,64.39,0,0,1,6.73,1.29,63.16,63.16,0,0,1,6.57,2A13.07,13.07,0,0,1,363.34,127.59Z"/><path class="cls-5" d="M339,129.93a11.48,11.48,0,0,1,.88,2.37c.47,1.49,1.05,3.57,1.59,5.89s.93,4.44,1.17,6a11.41,11.41,0,0,1,.25,2.51,13.66,13.66,0,0,1-.62-2.45c-.32-1.52-.77-3.62-1.31-5.93s-1.06-4.39-1.43-5.9A13,13,0,0,1,339,129.93Z"/><path class="cls-5" d="M328,128.69a65.14,65.14,0,0,1-4,7.17,62.74,62.74,0,0,1-4.47,6.9,67.32,67.32,0,0,1,4-7.17A64,64,0,0,1,328,128.69Z"/><path class="cls-5" d="M326.45,94.12a60.94,60.94,0,0,1,2.6,7.54,61,61,0,0,1,2.09,7.68,61.44,61.44,0,0,1-2.59-7.53A62,62,0,0,1,326.45,94.12Z"/><path class="cls-5" d="M324.16,118a38.08,38.08,0,0,1-6.34-.34,39.07,39.07,0,0,1-6.29-.86,38.08,38.08,0,0,1,6.34.34A39.07,39.07,0,0,1,324.16,118Z"/><circle class="cls-5" cx="334.43" cy="120.02" r="8.36" transform="translate(-20.88 118.44) rotate(-19.49)"/><path class="cls-6" d="M338.47,120.09a11.29,11.29,0,0,0-4.15-1.59,11.64,11.64,0,0,0-4.39.66s.37-.4,1.16-.72a6.87,6.87,0,0,1,6.4.69C338.19,119.62,338.52,120,338.47,120.09Z"/><path class="cls-6" d="M335.12,115.18a30.59,30.59,0,0,0-1.26,3.9,27.63,27.63,0,0,0-.17,4.08,8.2,8.2,0,0,1,1.43-8Z"/><path class="cls-5" d="M412.46,132.45l-1.69-3-2.66.39-2.19-2.75,1.13-2.75-3-2-2.21,2.23-2.91-.51-1.18-3.43-3.54.38-.2,3-2.64,1.34-2.79-2-2.83,2.06,1.47,3.17-1.68,2.53-3.06-.16-.8,3.78,2.91,1.12.25,3.17-3,1.73,1.44,3.28,3.13-.49L388.5,146l-1.08,3,2.86,2,2.23-2.42,3.1.84,1,3.2,3.44-.23.44-2.88,3-1.69,2.41,1.93,3.06-2.28-1.55-2.69,1.51-2.7,3.1.23.95-3.51-2.66-1.44-.35-3.2Zm-12,10.33a7,7,0,1,1,2.57-9.5A7,7,0,0,1,400.47,142.78Z"/><path class="cls-5" d="M400.08,134.72s-.2-.26-.62-.65a3.66,3.66,0,0,0-2.12-1,3.46,3.46,0,1,0,2.77,4.82,3.66,3.66,0,0,0,.22-2.33c-.13-.55-.29-.84-.25-.86a1.81,1.81,0,0,1,.45.81,3.72,3.72,0,0,1-.08,2.52,3.84,3.84,0,0,1-2.89,2.36A3.9,3.9,0,0,1,393.9,134a3.88,3.88,0,0,1,3.49-1.3,3.71,3.71,0,0,1,2.22,1.21A1.8,1.8,0,0,1,400.08,134.72Z"/><path class="cls-5" d="M403.39,127a15.47,15.47,0,0,1-2,3.45,15.4,15.4,0,0,1-2.4,3.18,15.41,15.41,0,0,1,2-3.46A15.5,15.5,0,0,1,403.39,127Z"/><path class="cls-5" d="M406.81,139.15a73,73,0,0,1-6.44-1.57,12.47,12.47,0,0,1,6.44,1.57Z"/><path class="cls-5" d="M398.44,140a7.06,7.06,0,0,1,1,2.79,7.33,7.33,0,0,1,.32,2.95,10.45,10.45,0,0,1-.83-2.83A11.26,11.26,0,0,1,398.44,140Z"/><path class="cls-5" d="M394.68,139.53a7.51,7.51,0,0,1-1.23,2.55,7.76,7.76,0,0,1-1.68,2.28,7.81,7.81,0,0,1,1.24-2.55A8,8,0,0,1,394.68,139.53Z"/><path class="cls-5" d="M394.15,127.66a7.27,7.27,0,0,1,1.05,2.54,7.26,7.26,0,0,1,.56,2.69,7.38,7.38,0,0,1-1.05-2.54A7.26,7.26,0,0,1,394.15,127.66Z"/><path class="cls-5" d="M393.36,135.86a4.9,4.9,0,0,1-2.19,0c-1.2-.12-2.15-.32-2.14-.47a4.9,4.9,0,0,1,2.19-.05C392.42,135.5,393.38,135.71,393.36,135.86Z"/><path class="cls-5" d="M399.38,135.12a2.87,2.87,0,1,1-3.92-1.06A2.87,2.87,0,0,1,399.38,135.12Z"/><path class="cls-6" d="M398.28,136.57c-.1.11-.67-.29-1.45-.37s-1.41.18-1.49.06.55-.68,1.55-.58S398.39,136.49,398.28,136.57Z"/><path class="cls-6" d="M397.13,134.89c.12.09-.14.65-.27,1.37s-.08,1.33-.23,1.37-.44-.61-.28-1.46S397,134.8,397.13,134.89Z"/><path class="cls-7" d="M461.26,133.73s-3.4-1.18-3.43-3.41,25.45-5.42,30.32,7c0,0-1,.68-4.89.42"/><g class="cls-8"><path d="M461.26,133.73s-3.4-1.18-3.43-3.41,25.45-5.42,30.32,7c0,0-1,.68-4.89.42"/></g><path class="cls-9" d="M482.43,169.8l-15.56-1.24c-.09-1.82,0-8.84,0-8.84s-6.47-1-6.55-7.48,1-21.33,1-21.33h0A22.5,22.5,0,0,1,484,133.75l1,.74Z"/><path class="cls-5" d="M462.89,142a.94.94,0,0,0-1.27-1.39.94.94,0,1,0,1.27,1.39Z"/><path class="cls-5" d="M461.32,140.56c.1.11.73-.38,1.63-.38s1.53.45,1.63.34-.05-.26-.33-.47a2.19,2.19,0,0,0-1.31-.41,2.12,2.12,0,0,0-1.3.44C461.36,140.3,461.27,140.51,461.32,140.56Z"/><path class="cls-5" d="M471.58,141.33a.94.94,0,0,0-.3,1.3.93.93,0,0,0,1.29.3.94.94,0,0,0,.31-1.29A1,1,0,0,0,471.58,141.33Z"/><path class="cls-5" d="M471,141.34c.1.11.73-.38,1.62-.38s1.54.46,1.64.34-.05-.25-.33-.47a2.26,2.26,0,0,0-1.31-.41,2.18,2.18,0,0,0-1.3.45C471,141.09,471,141.29,471,141.34Z"/><path class="cls-5" d="M467.42,148.69a4.2,4.2,0,0,0-1.44-.3c-.23,0-.41-.08-.43-.21a1.25,1.25,0,0,1,.17-.66l.7-1.81A25.42,25.42,0,0,0,468,141a24.52,24.52,0,0,0-2,4.58l-.67,1.82a1.47,1.47,0,0,0-.13,1,.63.63,0,0,0,.4.37,1.24,1.24,0,0,0,.4.05A4.07,4.07,0,0,0,467.42,148.69Z"/><path class="cls-10" d="M470.32,149.68A17.22,17.22,0,0,1,466,151a2.46,2.46,0,0,0,2.9,1C470.79,151.22,470.32,149.68,470.32,149.68Z"/><path class="cls-11" d="M466.9,159.62a15,15,0,0,0,8.43-2.39s-2,4.65-8.45,4.07Z"/><path class="cls-5" d="M461.26,132.54a10.81,10.81,0,0,0,9.09,0c3.47-1.42,7.44-1.95,8.25-1.21s.74,4.2,4,5.46c0,0-.72,6.57,1.93,6.53S486.28,133,486.28,133l-6.2-3.62-6.92-1.84-6.68.44-5.22,1Z"/><path class="cls-9" d="M484.15,141.19c.11,0,4.45-1.31,4.31,3.11s-4.56,3.37-4.56,3.24S484.15,141.19,484.15,141.19Z"/><path class="cls-11" d="M485.3,145.91s.08.06.21.12a.76.76,0,0,0,.57,0,1.88,1.88,0,0,0,.94-1.68,2.65,2.65,0,0,0-.18-1.11.89.89,0,0,0-.56-.61.39.39,0,0,0-.46.2c-.07.12,0,.21-.06.21s-.1-.07-.05-.25a.5.5,0,0,1,.18-.28.56.56,0,0,1,.43-.09,1,1,0,0,1,.78.71,2.5,2.5,0,0,1,.23,1.24,2,2,0,0,1-1.19,1.87.83.83,0,0,1-.7-.14C485.31,146,485.29,145.92,485.3,145.91Z"/><path class="cls-5" d="M487.15,127.49c0,.14-.69.08-1.42.32s-1.25.64-1.36.55.31-.77,1.2-1S487.21,127.36,487.15,127.49Z"/><path class="cls-5" d="M484.64,124.7a2.89,2.89,0,0,1,.14,2.1c-.23,1.2-1,1.92-1.08,1.82s.37-.86.57-1.92S484.48,124.7,484.64,124.7Z"/><path class="cls-5" d="M465.65,139.1c-.14.26-1,.05-2,0s-1.88.07-2-.2.75-.9,2-.84S465.8,138.87,465.65,139.1Z"/><path class="cls-5" d="M475.58,139.1c-.15.26-1,.05-2,0s-1.87.07-2-.2.75-.9,2-.84S475.73,138.87,475.58,139.1Z"/><path class="cls-7" d="M471.83,129.43c-11.66-1.27-13.9.79-14,.89a2.28,2.28,0,0,1-.6-1.16c-.42-3.44,3.76-4.42,3.76-4.42,2.62-11.93,13.34-10.71,13.34-10.71l0-.09a1.93,1.93,0,0,1,2.26-1.53l1.67.32a1.93,1.93,0,0,1,1.53,2.26h0c12.58,4.19,8.4,15.82,8.4,15.82l1.84,2.23c1.64,3.3-1.9,4.3-1.9,4.3S483.79,130.73,471.83,129.43Z"/><g class="cls-8"><path d="M477.7,125.35a26.11,26.11,0,0,1,.92-5.13,25.87,25.87,0,0,1,1.42-5,26,26,0,0,1-.92,5.14A25.9,25.9,0,0,1,477.7,125.35Z"/></g><g class="cls-8"><path d="M471.43,123.8a23.91,23.91,0,0,1,1.13-4.93,24.54,24.54,0,0,1,1.63-4.8,24.89,24.89,0,0,1-1.13,4.94A24.58,24.58,0,0,1,471.43,123.8Z"/></g><g class="cls-8"><path d="M461.52,125.25a4,4,0,0,1,1-.36,20.51,20.51,0,0,1,2.9-.57,27,27,0,0,1,9.67.62,35,35,0,0,1,9,3.63c1.08.62,1.93,1.16,2.49,1.56a4,4,0,0,1,.85.67c0,.07-1.33-.76-3.51-1.91a39.63,39.63,0,0,0-8.94-3.44,29.37,29.37,0,0,0-9.52-.76C463,124.9,461.54,125.34,461.52,125.25Z"/></g><g class="cls-12"><path class="cls-10" d="M477.14,127.46a6.73,6.73,0,0,1,2.06.39,23.72,23.72,0,0,1,8.87,4.83,6.48,6.48,0,0,1,1.45,1.52,65.43,65.43,0,0,0-5.87-4A64.61,64.61,0,0,0,477.14,127.46Z"/></g><g class="cls-12"><path class="cls-10" d="M479,115.73c-.14-.06,0-.59-.16-1.22s-.42-1.08-.32-1.19.67.29.83,1.09S479.15,115.81,479,115.73Z"/></g><g class="cls-12"><path class="cls-10" d="M487.12,129.09c-.72-.15-.45-3.53-2.25-6.88s-4.68-5.08-4.4-5.76c.13-.31,1.11-.32,2.5.35a10,10,0,0,1,5.28,10C488,128.35,487.46,129.16,487.12,129.09Z"/></g><path class="cls-9" d="M393.77,212.3s-7.7-3.94-9-5.74-1.91-8.12-1.91-8.12l13.12,4.91Z"/><path class="cls-9" d="M451,195.8c-.46.15-8.93,19.06-15.74,19.15s-41.52-2.65-41.52-2.65l2.16-9,33.29-1.08,10.91-14.77Z"/><path class="cls-7" d="M512.19,411.65l1.54,6.48s10.59,13.75,13.86,13.08c2.14-.44-.49-4-4.52-14.48l-.84-4.31Z"/><path class="cls-5" d="M528,429.18a.6.6,0,0,1-.08.19,1.23,1.23,0,0,1-.45.42,1.75,1.75,0,0,1-.94.21,2.6,2.6,0,0,1-1.2-.44,51,51,0,0,1-5.34-5,68.81,68.81,0,0,1-4.73-5.54c-.57-.75-1-1.36-1.31-1.79l-.33-.5a.74.74,0,0,1-.11-.18.61.61,0,0,1,.14.16l.37.47c.4.51.85,1.09,1.35,1.75,1.16,1.45,2.81,3.43,4.77,5.49a60.13,60.13,0,0,0,5.27,5,2,2,0,0,0,2,.29A1.43,1.43,0,0,0,528,429.18Z"/><path class="cls-5" d="M526.52,424.76s-.33,0-.86,0a5.09,5.09,0,0,0-1.9.72,4,4,0,0,0-1.43,1.43c-.25.46-.32.79-.36.78a1.83,1.83,0,0,1,.23-.84,3.6,3.6,0,0,1,1.45-1.54,4.47,4.47,0,0,1,2-.69A1.65,1.65,0,0,1,526.52,424.76Z"/><path class="cls-5" d="M516.49,421.53s.11-.47.2-1.22a5,5,0,0,0-.53-2.83,4.7,4.7,0,0,0-2-2.05A7.42,7.42,0,0,0,513,415s.12,0,.33,0a3.92,3.92,0,0,1,.88.27,4.55,4.55,0,0,1,2.14,2.08,4.82,4.82,0,0,1,.5,2.95,5,5,0,0,1-.22.89C516.56,421.42,516.51,421.53,516.49,421.53Z"/><path class="cls-5" d="M512.86,412.75a6.49,6.49,0,0,1,.59,2c.19,1.15.4,2.06.36,2.07a6.22,6.22,0,0,1-.56-2C513.05,413.67,512.81,412.77,512.86,412.75Z"/><path class="cls-5" d="M523.26,417.65c0,.06-.61,0-1.31.21s-1.25.44-1.28.38a2.39,2.39,0,0,1,1.23-.59A2.27,2.27,0,0,1,523.26,417.65Z"/><path class="cls-5" d="M523.48,418.76c0,.06-.51,0-1.1.15s-1,.41-1,.36a2.1,2.1,0,0,1,2.15-.51Z"/><path class="cls-5" d="M524.32,420.15a5.33,5.33,0,0,0-1.14,0,5.83,5.83,0,0,0-1,.45,1.42,1.42,0,0,1,1-.65A1.37,1.37,0,0,1,524.32,420.15Z"/><path class="cls-5" d="M522.53,417.18a1,1,0,0,1-.36,0,7.08,7.08,0,0,1-.93-.25,7.31,7.31,0,0,1-1.32-.59,8.51,8.51,0,0,1-.73-.45,1.08,1.08,0,0,1-.53-.81.63.63,0,0,1,.81-.51,1.65,1.65,0,0,1,.74.5,12.53,12.53,0,0,1,1,1.06,9.62,9.62,0,0,1,.58.77,1.09,1.09,0,0,1,.18.31s-.33-.38-.87-1c-.27-.3-.61-.65-1-1a1.54,1.54,0,0,0-.65-.43c-.24-.06-.55.07-.55.32s.22.48.44.64.47.31.7.45a10.3,10.3,0,0,0,1.28.61C522,417,522.54,417.15,522.53,417.18Z"/><path class="cls-5" d="M522,417.05a1.07,1.07,0,0,1,0-.33c0-.2,0-.5.07-.88a4.84,4.84,0,0,1,.33-1.28,2.67,2.67,0,0,1,.42-.67.7.7,0,0,1,.84-.27.8.8,0,0,1,.3.84,3.38,3.38,0,0,1-.23.76,3.94,3.94,0,0,1-.76,1.09,4.72,4.72,0,0,1-.67.58c-.18.12-.28.17-.29.16s.36-.29.85-.84a4.14,4.14,0,0,0,.69-1.06,3.42,3.42,0,0,0,.21-.71c0-.24,0-.54-.2-.64s-.43,0-.59.22a3,3,0,0,0-.4.62,5.35,5.35,0,0,0-.36,1.23A9.17,9.17,0,0,1,522,417.05Z"/><g class="cls-13"><path d="M513.73,418.13,513,415s2.59.48,3.26,2.42a8,8,0,0,1,.51,3.32l5.64,6.08s1.42-2.77,4-2.1c0,0,2,4.43,2,5.54s-1.35,1-1.81.77a22.52,22.52,0,0,1-5-4C518.48,424,515.18,420,513.73,418.13Z"/></g><path class="cls-7" d="M459.54,414.92l-.05-8.63,16.18-.2.21,12.64-1,.07c-4.46.31-22.7,1.22-25.69.36C445.84,418.19,459.54,414.92,459.54,414.92Z"/><g class="cls-13"><path d="M470,418.67a5.59,5.59,0,0,1,2-3.47A5.45,5.45,0,0,1,475.8,414l.06,4.53Z"/></g><path class="cls-14" d="M452.85,416.76s-4.8,1.45-4.19,2.23,19.08.55,27.22-.26l0-.36-21.54.45S453.79,416.79,452.85,416.76Z"/><path class="cls-5" d="M476.1,418.35l-.28,0-.8.05-2.94.17c-2.48.12-5.91.24-9.7.29s-7.23,0-9.71,0l-2.94-.08-.8,0-.28,0h1.08l2.94,0c2.48,0,5.92,0,9.71,0s7.22-.15,9.7-.24l2.94-.1.8,0A2,2,0,0,1,476.1,418.35Z"/><path class="cls-5" d="M454.31,419.07a6.53,6.53,0,0,0-.56-1.39,6.83,6.83,0,0,0-1-1.11,2.13,2.13,0,0,1,1.18,1A2.19,2.19,0,0,1,454.31,419.07Z"/><path class="cls-5" d="M459.05,416.59s-.27-.24-.51-.61a1.87,1.87,0,0,1-.36-.72c.05,0,.28.24.52.61S459.1,416.56,459.05,416.59Z"/><path class="cls-5" d="M460.36,415.88s-.3-.12-.58-.37-.48-.48-.45-.52.3.13.58.37S460.39,415.84,460.36,415.88Z"/><path class="cls-5" d="M461.16,414.35a2,2,0,0,1-.84.11,1.93,1.93,0,0,1-.85-.07,1.82,1.82,0,0,1,.85-.12C460.78,414.26,461.16,414.29,461.16,414.35Z"/><path class="cls-5" d="M461.43,413.27a1.75,1.75,0,0,1-.93.28,1.65,1.65,0,0,1-1-.12,5.55,5.55,0,0,1,1-.07A4.14,4.14,0,0,1,461.43,413.27Z"/><path class="cls-5" d="M458.49,415.19a3.18,3.18,0,0,1-1,0,5.36,5.36,0,0,1-1.11-.23,2.56,2.56,0,0,1-.64-.25.57.57,0,0,1-.26-.32.44.44,0,0,1,.15-.42,1.92,1.92,0,0,1,2.37.53,1.88,1.88,0,0,1,.34.69.6.6,0,0,1,0,.28,3.19,3.19,0,0,0-.49-.88A1.9,1.9,0,0,0,457,414a1.58,1.58,0,0,0-1.24.1c-.17.12-.1.31.09.42a3,3,0,0,0,.58.24,7.38,7.38,0,0,0,1.08.27C458.09,415.16,458.49,415.16,458.49,415.19Z"/><path class="cls-5" d="M458.22,415.24a1,1,0,0,1-.13-.72,1.67,1.67,0,0,1,.27-.76,1.07,1.07,0,0,1,.86-.54.41.41,0,0,1,.33.47,1.24,1.24,0,0,1-.17.47,3.14,3.14,0,0,1-.48.64,1.51,1.51,0,0,1-.59.42s.2-.18.48-.52a3,3,0,0,0,.43-.63c.14-.22.23-.61,0-.66s-.52.24-.68.45a1.61,1.61,0,0,0-.28.68A3,3,0,0,0,458.22,415.24Z"/><path class="cls-5" d="M475.71,413.93s-.46,0-1.19.06a5.25,5.25,0,0,0-2.6,1.11,5.35,5.35,0,0,0-1.6,2.32c-.23.7-.25,1.16-.29,1.16a.94.94,0,0,1,0-.33,4.18,4.18,0,0,1,.16-.87,4.91,4.91,0,0,1,4.31-3.53,4.17,4.17,0,0,1,.89,0A1.09,1.09,0,0,1,475.71,413.93Z"/><path class="cls-5" d="M474,407.22a28.08,28.08,0,0,1,.18,3.32,29,29,0,0,1,0,3.33,25.73,25.73,0,0,1-.18-3.32A29,29,0,0,1,474,407.22Z"/><path class="cls-5" d="M468,417.12a8.9,8.9,0,0,1-2.36.26,8.66,8.66,0,0,1-2.36-.16c0-.05,1.06,0,2.36,0S468,417.06,468,417.12Z"/><path class="cls-5" d="M471.12,417.07s-.08.23-.19.47-.16.46-.21.46-.09-.26,0-.54S471.09,417,471.12,417.07Z"/><path class="cls-5" d="M472.3,415.57s-.06.21-.23.38-.33.28-.37.24.06-.2.23-.37S472.26,415.53,472.3,415.57Z"/><path class="cls-5" d="M474,414.87c0,.06-.23.06-.46.14s-.41.22-.45.18.09-.26.38-.36S474,414.82,474,414.87Z"/><path class="cls-5" d="M475.21,414.54s-.07.13-.2.18-.26.06-.28,0,.07-.13.2-.19S475.19,414.48,475.21,414.54Z"/><path class="cls-7" d="M497.39,245.74l-48.85,2.78c-.13-5.37,1.92-48.46,1.92-48.46l-2.69,5.05-14-12.47L446,176.13a24.2,24.2,0,0,1,16.18-9.57c1.9-.26,3.34-.39,4.28-.5a27.51,27.51,0,0,0,16.58,0h0a22.85,22.85,0,0,1,6.87,1.31,28.34,28.34,0,0,1,10.95,7.09h0L515.49,199,497.75,210.2l-2.56-7.74Z"/><polyline class="cls-5" points="448.54 243.41 456.08 411.2 481.27 411.73 477.09 271.26 505.43 412.81 529.38 412.81 497.39 243.41"/><polygon class="cls-6" points="504.18 410.53 504.76 413.01 529.38 413.34 529 409.46 504.18 410.53"/><path class="cls-6" d="M476.93,410.27c.14,0,.28.32.3.73s-.08.76-.22.77-.28-.32-.3-.74S476.78,410.28,476.93,410.27Z"/><path class="cls-6" d="M476.68,404.19c.14,0,.29.68.32,1.51s-.06,1.53-.21,1.53-.28-.67-.31-1.51S476.54,404.2,476.68,404.19Z"/><path class="cls-6" d="M476.5,398.11c.14,0,.28.68.3,1.52s-.07,1.52-.22,1.52-.27-.67-.3-1.51S476.36,398.12,476.5,398.11Z"/><path class="cls-6" d="M476.35,392c.14,0,.28.68.3,1.52s-.08,1.52-.23,1.52-.27-.67-.29-1.51S476.21,392,476.35,392Z"/><path class="cls-6" d="M476.2,386c.15,0,.28.67.3,1.51s-.08,1.53-.22,1.53-.28-.67-.3-1.52S476.06,386,476.2,386Z"/><path class="cls-6" d="M476,379.86c.15,0,.28.67.31,1.51s-.07,1.53-.22,1.53-.28-.67-.3-1.51S475.89,379.86,476,379.86Z"/><path class="cls-6" d="M475.8,373.78c.14,0,.29.67.32,1.51s-.05,1.52-.2,1.53-.28-.67-.32-1.51S475.65,373.79,475.8,373.78Z"/><path class="cls-6" d="M475.55,367.7c.14,0,.29.67.32,1.51s-.06,1.53-.2,1.53-.29-.67-.32-1.51S475.41,367.71,475.55,367.7Z"/><path class="cls-6" d="M475.33,361.62c.14,0,.28.67.31,1.51s-.06,1.53-.2,1.53-.29-.67-.32-1.51S475.18,361.63,475.33,361.62Z"/><path class="cls-6" d="M475.14,355.54c.14,0,.28.67.3,1.51s-.07,1.53-.21,1.53-.28-.67-.31-1.51S475,355.54,475.14,355.54Z"/><path class="cls-6" d="M475,349.46c.15,0,.28.67.3,1.51s-.08,1.53-.22,1.53-.28-.67-.3-1.51S474.83,349.46,475,349.46Z"/><path class="cls-6" d="M474.84,343.38c.14,0,.27.67.29,1.51s-.08,1.53-.23,1.53-.27-.68-.29-1.52S474.7,343.38,474.84,343.38Z"/><path class="cls-6" d="M474.74,337.3c.14,0,.27.67.28,1.51s-.09,1.52-.24,1.53-.27-.68-.28-1.52S474.59,337.3,474.74,337.3Z"/><path class="cls-6" d="M474.67,331.21c.14,0,.27.68.27,1.52s-.1,1.52-.24,1.52-.27-.67-.28-1.51S474.52,331.21,474.67,331.21Z"/><path class="cls-6" d="M474.63,325.13c.14,0,.26.68.27,1.52s-.11,1.52-.25,1.52-.27-.68-.27-1.52S474.49,325.13,474.63,325.13Z"/><path class="cls-6" d="M474.63,319.05c.14,0,.26.68.26,1.52s-.12,1.52-.27,1.52-.26-.68-.26-1.52S474.48,319,474.63,319.05Z"/><path class="cls-6" d="M474.65,313c.15,0,.26.68.26,1.52s-.13,1.52-.27,1.52-.26-.68-.26-1.52S474.51,313,474.65,313Z"/><path class="cls-6" d="M474.72,306.88c.14,0,.25.68.24,1.52s-.13,1.52-.28,1.52-.25-.68-.24-1.52S474.57,306.88,474.72,306.88Z"/><path class="cls-6" d="M474.81,300.8c.15,0,.25.68.24,1.52s-.15,1.52-.29,1.52-.25-.69-.23-1.53S474.67,300.79,474.81,300.8Z"/><path class="cls-6" d="M474.94,294.71c.14,0,.24.69.22,1.53s-.15,1.52-.29,1.51-.25-.68-.23-1.52S474.79,294.71,474.94,294.71Z"/><path class="cls-6" d="M475.12,288.62c.15,0,.24.69.21,1.53s-.17,1.52-.31,1.52-.24-.69-.21-1.53S475,288.62,475.12,288.62Z"/><path class="cls-6" d="M475.45,282.54c.14,0,.21.7.16,1.54s-.2,1.51-.35,1.5-.22-.69-.17-1.53S475.3,282.53,475.45,282.54Z"/><path class="cls-6" d="M476,276.48c.14,0,.19.71.11,1.54s-.27,1.5-.41,1.49-.19-.7-.11-1.54S475.84,276.47,476,276.48Z"/><path class="cls-6" d="M476.56,272c.14,0,.21.37.15.78s-.22.73-.36.71-.21-.37-.16-.78S476.42,272,476.56,272Z"/><polygon class="cls-6" points="455.43 412.02 482.07 412.45 481.86 408.01 455.43 408.15 455.43 412.02"/><polygon class="cls-5" points="485.25 248.51 482.57 197.25 453.2 197.25 448.44 249.98 485.25 248.51"/><path class="cls-5" d="M491.62,168s-11.89,3.13-12.1,31.07h-4.79s-1.26-23.47,11.69-32.69C486.42,166.42,490.16,165.52,491.62,168Z"/><path class="cls-5" d="M466.46,166.06s-8.45,4-8.65,31.95h-4.08s-.34-26.17,7.64-31.34A5.72,5.72,0,0,1,466.46,166.06Z"/><path class="cls-6" d="M524.36,408.09c.14,0,.31.29.37.7s0,.76-.13.78-.31-.29-.38-.7S524.21,408.12,524.36,408.09Z"/><path class="cls-6" d="M523.4,402.26c.14,0,.37.61.5,1.42s.12,1.47,0,1.5-.36-.61-.5-1.42S523.26,402.28,523.4,402.26Z"/><path class="cls-6" d="M522.44,396.43c.14,0,.36.61.5,1.41s.12,1.48,0,1.5-.36-.61-.5-1.41S522.3,396.45,522.44,396.43Z"/><path class="cls-6" d="M521.47,390.6c.14,0,.36.61.5,1.41s.13,1.48,0,1.5-.37-.61-.5-1.41S521.33,390.62,521.47,390.6Z"/><path class="cls-6" d="M520.49,384.77c.14,0,.36.61.5,1.42s.13,1.47,0,1.5-.37-.61-.5-1.42S520.35,384.8,520.49,384.77Z"/><path class="cls-6" d="M519.5,379c.14,0,.37.6.5,1.41s.14,1.48,0,1.5-.36-.61-.5-1.41S519.36,379,519.5,379Z"/><path class="cls-6" d="M518.5,373.12c.14,0,.37.61.51,1.41s.13,1.48,0,1.5-.37-.6-.51-1.41S518.36,373.15,518.5,373.12Z"/><path class="cls-6" d="M517.49,367.3c.14,0,.37.61.51,1.41s.14,1.48,0,1.5-.37-.61-.51-1.41S517.35,367.32,517.49,367.3Z"/><path class="cls-6" d="M516.47,361.48c.15,0,.37.6.52,1.41s.14,1.47,0,1.5-.37-.61-.51-1.41S516.33,361.5,516.47,361.48Z"/><path class="cls-6" d="M515.45,355.66c.14,0,.37.6.51,1.41s.14,1.47,0,1.5-.37-.61-.51-1.41S515.31,355.68,515.45,355.66Z"/><path class="cls-6" d="M514.41,349.84c.14,0,.38.61.52,1.41s.14,1.47,0,1.5-.37-.61-.51-1.41S514.27,349.87,514.41,349.84Z"/><path class="cls-6" d="M513.37,344c.14,0,.37.61.52,1.41s.14,1.48,0,1.5-.37-.6-.52-1.41S513.23,344.05,513.37,344Z"/><path class="cls-6" d="M512.32,338.21c.14,0,.37.6.52,1.41s.14,1.47,0,1.5-.37-.61-.52-1.41S512.17,338.23,512.32,338.21Z"/><path class="cls-6" d="M511.25,332.4c.14,0,.38.6.53,1.4s.15,1.48,0,1.5-.38-.6-.53-1.4S511.11,332.42,511.25,332.4Z"/><path class="cls-6" d="M510.18,326.58c.14,0,.38.61.53,1.41s.15,1.47,0,1.5-.38-.6-.53-1.41S510,326.61,510.18,326.58Z"/><path class="cls-6" d="M509.1,320.77c.14,0,.38.61.53,1.41s.15,1.47,0,1.5-.38-.6-.52-1.41S509,320.8,509.1,320.77Z"/><path class="cls-6" d="M508,315c.14,0,.38.6.53,1.4s.16,1.47,0,1.5-.38-.6-.53-1.4S507.87,315,508,315Z"/><path class="cls-6" d="M506.91,309.16c.14,0,.38.6.53,1.4s.16,1.48,0,1.5-.38-.6-.53-1.4S506.77,309.19,506.91,309.16Z"/><path class="cls-6" d="M505.8,303.35c.15,0,.38.61.54,1.41s.16,1.47,0,1.5-.38-.6-.53-1.41S505.66,303.38,505.8,303.35Z"/><path class="cls-6" d="M504.69,297.55c.14,0,.38.6.53,1.4s.17,1.48,0,1.5-.38-.6-.54-1.4S504.55,297.58,504.69,297.55Z"/><path class="cls-6" d="M503.56,291.75c.14,0,.38.6.54,1.4s.17,1.47,0,1.5-.39-.6-.54-1.4S503.42,291.78,503.56,291.75Z"/><path class="cls-6" d="M502.43,286c.14,0,.38.6.54,1.4s.17,1.47,0,1.5-.39-.6-.54-1.4S502.29,286,502.43,286Z"/><path class="cls-6" d="M501.28,280.15c.14,0,.39.6.54,1.4s.18,1.47,0,1.5-.39-.6-.55-1.4S501.14,280.18,501.28,280.15Z"/><path class="cls-6" d="M500.13,274.36c.14,0,.38.59.54,1.39s.18,1.48,0,1.5-.39-.59-.55-1.39S500,274.39,500.13,274.36Z"/><path class="cls-6" d="M499,268.56c.14,0,.38.6.54,1.4s.18,1.47,0,1.5-.39-.6-.55-1.4S498.83,268.59,499,268.56Z"/><path class="cls-6" d="M497.8,262.77c.14,0,.38.6.55,1.4s.17,1.47,0,1.5-.38-.6-.55-1.4S497.66,262.8,497.8,262.77Z"/><path class="cls-6" d="M496.91,258.4c.14,0,.32.28.4.69s0,.76-.1.78-.32-.27-.41-.68S496.77,258.43,496.91,258.4Z"/><path class="cls-6" d="M457.93,196.58a3.3,3.3,0,0,1,.25,1.49,3.52,3.52,0,0,1-.33,1.65,2.38,2.38,0,0,1-1.65,1.34,2.14,2.14,0,0,1-2-.8,2.65,2.65,0,0,1-.59-1.61c0-1,.3-1.5.35-1.48s-.09.58,0,1.45a2.42,2.42,0,0,0,.58,1.32,1.71,1.71,0,0,0,1.52.6,1.92,1.92,0,0,0,1.31-1,3.77,3.77,0,0,0,.4-1.45A6.9,6.9,0,0,1,457.93,196.58Z"/><path class="cls-6" d="M455.81,197.31c0-.06.3-.19.64.13a.83.83,0,0,1-.45,1.44.83.83,0,0,1-.95-1.18c.2-.42.55-.41.55-.35s-.16.19-.21.47.12.63.51.55a.42.42,0,0,0,.27-.69C456,197.43,455.81,197.39,455.81,197.31Z"/><path class="cls-6" d="M479.21,196.76a2.88,2.88,0,0,1,.19,1.41,3.12,3.12,0,0,1-.41,1.54,2.09,2.09,0,0,1-1.7,1.06,2.62,2.62,0,0,1-1.88-.7,3.07,3.07,0,0,1-.81-1.38,2.13,2.13,0,0,1,0-1.42c.09,0,.09.54.39,1.31a3,3,0,0,0,.79,1.14,2.2,2.2,0,0,0,1.52.53,1.66,1.66,0,0,0,1.32-.79,3.17,3.17,0,0,0,.46-1.32C479.14,197.31,479.12,196.76,479.21,196.76Z"/><path class="cls-6" d="M476.91,197.31c0-.07.26-.15.52.13a.73.73,0,0,1,.16.63.77.77,0,0,1-1.38.24.7.7,0,0,1,0-.65c.15-.35.43-.36.44-.3s-.09.19-.09.39.12.41.38.36.31-.25.23-.46S476.9,197.38,476.91,197.31Z"/><path class="cls-6" d="M478.09,209.7s-.23.2-.69.48a19.92,19.92,0,0,1-2,1.07,30.63,30.63,0,0,1-14.72,2.81,19.87,19.87,0,0,1-2.28-.25,2.77,2.77,0,0,1-.82-.2c0-.09,1.2,0,3.11.08a35.84,35.84,0,0,0,14.56-2.78C477,210.18,478.05,209.62,478.09,209.7Z"/><polygon class="cls-7" points="501.3 254.61 447.75 249.98 447.75 256.08 501.3 260.63 501.3 254.61"/><path class="cls-6" d="M464.66,251.19s-.86,0-2.23-.07-3.3-.19-5.56-.36l.24-.27c.33,1.84.7,3.92,1.09,6.12l.09.49-.24-.22,7.11.46-.23.24c-.12-1.88-.2-3.45-.24-4.57a14.2,14.2,0,0,1,0-1.82,11.49,11.49,0,0,1,.24,1.67c.12,1.11.29,2.72.46,4.69l0,.24h-.25L458,257.4h-.21l0-.21-.09-.48-1-6.13-.06-.3.3,0c2.36.22,4.33.43,5.68.59A13.94,13.94,0,0,1,464.66,251.19Z"/><path class="cls-5" d="M454.41,252.45a8.66,8.66,0,0,1,3,0,8.8,8.8,0,0,1,2.95.46,8.87,8.87,0,0,1-3,.06A8.62,8.62,0,0,1,454.41,252.45Z"/><path class="cls-5" d="M454.06,254.2a19.85,19.85,0,0,1,6.32.63,19.77,19.77,0,0,1-6.32-.63Z"/><path class="cls-6" d="M394.29,198.47l-19.82-6.67-.78,2.55s7.74,12.21,16.77,14.72Z"/><path class="cls-6" d="M453.21,234s-30.6-21.48-32.44-22.13-15-.67-18.26-.32-12.71-.62-12.71-.62L399.52,184l-20.63-5.3L380,175s16.59-10,26.18-7.13,14.09,15.44,16.09,18.55,6.31,14.26,26.8,27.36l12.12,8.1Z"/><path class="cls-5" d="M420.2,190.6s0,.11-.12.3-.22.5-.36.84l-1.38,3.18c-1.2,2.75-2.9,6.66-5,11.46l-.19-.27a29.14,29.14,0,0,1,3.51,0,9.86,9.86,0,0,1,3.73.78c2.28,1.29,4.52,2.85,6.91,4.45,4.75,3.22,9.88,6.82,15.22,10.6a4.63,4.63,0,0,0,2.24,1.08,3.67,3.67,0,0,0,2.34-.45,3.72,3.72,0,0,0,1.79-4.06,3.77,3.77,0,0,0-1.17-2c-.6-.47-1.3-.94-1.94-1.41L442,212.37l-13.23-9.47a10.77,10.77,0,0,1-2.36-2.36c-.65-.83-1.21-1.64-1.73-2.4-1-1.54-1.84-2.9-2.5-4s-1.14-2-1.47-2.6l-.35-.69a1.75,1.75,0,0,1-.11-.24,1.34,1.34,0,0,1,.15.21l.41.67,1.55,2.54c.68,1.1,1.52,2.44,2.56,3.95.53.76,1.1,1.56,1.75,2.36a10.83,10.83,0,0,0,2.31,2.27l13.3,9.38,3.84,2.72c.65.48,1.3.9,2,1.43a4.22,4.22,0,0,1-3.37,7.36,5.19,5.19,0,0,1-2.47-1.16c-5.34-3.79-10.46-7.39-15.19-10.63-2.38-1.6-4.64-3.19-6.84-4.46a9.73,9.73,0,0,0-3.55-.75,28.46,28.46,0,0,0-3.46,0l-.33,0,.14-.29c2.21-4.83,4-8.75,5.29-11.51.6-1.31,1.08-2.34,1.42-3.09.16-.32.28-.58.37-.78Z"/><path class="cls-6" d="M499.63,258.51h0a9,9,0,0,1-12.85,2.27L445.94,228.9l7.25-12.34,44.1,29.56A9,9,0,0,1,499.63,258.51Z"/><polygon class="cls-5" points="409.98 188.87 406.3 200.34 399.57 200.38 403.75 188.9 409.98 188.87"/><path class="cls-5" d="M399.14,197.83c0-.29,2.21-.54,4.95-.55s5,.21,5,.49-2.22.54-4.95.55S399.14,198.11,399.14,197.83Z"/><path class="cls-5" d="M400.42,194.16c0-.29,2.21-.53,4.95-.54s5,.2,5,.49-2.21.53-4.95.55S400.42,194.45,400.42,194.16Z"/><path class="cls-5" d="M401.21,190.66c0-.28,2.22-.53,5-.54s4.95.2,5,.49-2.22.53-5,.55S401.21,191,401.21,190.66Z"/><path class="cls-5" d="M394.39,197.19a25.07,25.07,0,0,1-1.63,6,32.2,32.2,0,0,1-2.45,5.7,42.82,42.82,0,0,1,2-5.87C393.43,199.79,394.25,197.15,394.39,197.19Z"/><path class="cls-9" d="M521.46,222.7c.1-7.54-8-22.4-8-22.4L499,209.41l2.34,6.15L469,228.89l-8.87.41-5.68,8.11,7.27,6.69,19-5.25C492.72,236.8,521.36,231.06,521.46,222.7Z"/><path class="cls-7" d="M233.24,267.35l4-7.63L223,252.05l-6,11.1.85.53c3.82,2.34,19.56,11.6,22.61,12.22C243.87,276.59,233.24,267.35,233.24,267.35Z"/><g class="cls-13"><path d="M222.23,265.82a5.63,5.63,0,0,0-.19-4,5.45,5.45,0,0,0-2.77-2.82l-2.15,4Z"/></g><path class="cls-14" d="M238.32,272.07s3.58,3.51,2.68,3.92-17.17-8.35-24-12.84l.19-.3,18.88,10.38S237.47,271.66,238.32,272.07Z"/><path class="cls-5" d="M217,262.72l.24.16.68.42,2.52,1.5c2.15,1.26,5.13,3,8.47,4.76s6.39,3.36,8.62,4.47l2.65,1.28.72.34.26.11a1,1,0,0,0-.24-.14c-.21-.12-.45-.24-.71-.37l-2.62-1.35c-2.21-1.13-5.25-2.71-8.59-4.51s-6.33-3.48-8.49-4.71l-2.56-1.45-.69-.39C217.06,262.75,217,262.71,217,262.72Z"/><path class="cls-5" d="M236,273.45a6.5,6.5,0,0,1,1.15-1,6.72,6.72,0,0,1,1.42-.51,2.18,2.18,0,0,0-1.52.34A2.14,2.14,0,0,0,236,273.45Z"/><path class="cls-5" d="M232.9,269.05c0,.05.36-.09.74-.3s.67-.43.65-.48-.36.09-.75.31S232.87,269,232.9,269.05Z"/><path class="cls-5" d="M232.07,267.82c0,.05.32,0,.68-.06s.65-.21.64-.26-.32,0-.68.06S232.06,267.77,232.07,267.82Z"/><path class="cls-5" d="M232.07,266.08c0,.05.28.27.69.5s.76.37.79.32-.29-.27-.7-.49A2,2,0,0,0,232.07,266.08Z"/><path class="cls-5" d="M232.33,265s.23.39.7.69a1.57,1.57,0,0,0,.91.34,6.09,6.09,0,0,0-.81-.51A5.08,5.08,0,0,0,232.33,265Z"/><path class="cls-5" d="M234.05,268.07a3.1,3.1,0,0,0,.92.49,6.92,6.92,0,0,0,1.09.31,3.47,3.47,0,0,0,.68.07.57.57,0,0,0,.38-.17.42.42,0,0,0,.06-.44,1.9,1.9,0,0,0-2.34-.62,1.67,1.67,0,0,0-.63.45c-.12.13-.17.22-.16.23a3.09,3.09,0,0,1,.84-.56,1.93,1.93,0,0,1,1.06-.08,1.65,1.65,0,0,1,1.05.66c.08.19-.07.33-.28.34a3.36,3.36,0,0,1-.63-.06,9.07,9.07,0,0,1-1.08-.26C234.41,268.23,234.06,268,234.05,268.07Z"/><path class="cls-5" d="M234.26,268.24s.27-.14.45-.58a1.66,1.66,0,0,0,.11-.8,1.05,1.05,0,0,0-.51-.88.42.42,0,0,0-.51.27,1.29,1.29,0,0,0-.07.5,3.21,3.21,0,0,0,.14.78,1.48,1.48,0,0,0,.32.66s-.09-.27-.19-.69a4.12,4.12,0,0,1-.08-.76c0-.26.08-.65.33-.57s.35.45.39.71a1.76,1.76,0,0,1-.06.74A3.53,3.53,0,0,1,234.26,268.24Z"/><path class="cls-5" d="M219.37,259s.42.18,1,.6a5.06,5.06,0,0,1,2.12,5c-.11.73-.31,1.15-.27,1.17a1.12,1.12,0,0,0,.15-.29,3.61,3.61,0,0,0,.26-.85,4.92,4.92,0,0,0-2.19-5.12,4,4,0,0,0-.79-.41A.94.94,0,0,0,219.37,259Z"/><path class="cls-5" d="M224,253.85a30.23,30.23,0,0,0-1.69,2.85,25.92,25.92,0,0,0-1.53,3,31.59,31.59,0,0,0,1.7-2.86A28.29,28.29,0,0,0,224,253.85Z"/><path class="cls-5" d="M224.77,265.4a9.12,9.12,0,0,0,2,1.32,9,9,0,0,0,2.18,1c0-.05-.94-.5-2.08-1.13S224.8,265.35,224.77,265.4Z"/><path class="cls-5" d="M222,263.89c-.06,0,0,.24,0,.5s-.07.48,0,.51.19-.19.21-.5S222,263.87,222,263.89Z"/><path class="cls-5" d="M221.63,262s0,.22,0,.44.16.41.21.39,0-.21,0-.44S221.68,262,221.63,262Z"/><path class="cls-5" d="M220.45,260.6c0,.06.17.16.34.34s.26.38.32.37,0-.27-.18-.5S220.46,260.55,220.45,260.6Z"/><path class="cls-5" d="M219.53,259.74s0,.16.09.27.21.17.25.13,0-.15-.1-.26S219.57,259.71,219.53,259.74Z"/><rect class="cls-5" x="285.67" y="265.63" width="36.07" height="7.25"/><rect class="cls-5" x="301.19" y="313.13" width="36.07" height="7.25"/><rect class="cls-5" x="310.37" y="355.25" width="43.36" height="7.25"/><rect class="cls-5" x="273.59" y="216.49" width="30.68" height="7.25"/><rect class="cls-5" x="258.29" y="167.45" width="30.68" height="7.25"/><polygon class="cls-5" points="245.55 118.66 146.69 419.48 156.11 419.48 248.85 139.38 318.99 419.48 330.29 419.48 254.5 118.66 245.55 118.66"/><polygon class="cls-6" points="268.62 118.66 191.89 419.48 206.48 419.48 274.74 139.85 367.01 419.48 379.89 419.48 279.27 118.66 268.62 118.66"/><path class="cls-6" d="M183.68,319.46h0a3.62,3.62,0,0,0,3.63,3.62h32.75a3.63,3.63,0,0,0,3.63-3.62h0a3.64,3.64,0,0,0-3.63-3.63H187.31A3.63,3.63,0,0,0,183.68,319.46Z"/><path class="cls-6" d="M169.37,366.12h0a3.62,3.62,0,0,0,3.62,3.63h32.76a3.62,3.62,0,0,0,3.62-3.63h0a3.62,3.62,0,0,0-3.62-3.62H173A3.62,3.62,0,0,0,169.37,366.12Z"/><path class="cls-6" d="M199.44,271.38h0a3.63,3.63,0,0,0,3.63,3.63h32.75a3.62,3.62,0,0,0,3.63-3.63h0a3.62,3.62,0,0,0-3.63-3.62H203.07A3.63,3.63,0,0,0,199.44,271.38Z"/><rect class="cls-6" x="215.29" y="217.97" width="37.91" height="7.25" rx="3.62"/><path class="cls-6" d="M230.05,172.33h0a3.63,3.63,0,0,0,3.63,3.62h23.43a3.62,3.62,0,0,0,3.63-3.62h0a3.62,3.62,0,0,0-3.63-3.63H233.68A3.63,3.63,0,0,0,230.05,172.33Z"/><path class="cls-9" d="M236.73,98.12c.45.15,8.93,19.06,15.74,19.15S294,114.62,294,114.62l.43-10.13-35.88.1L247.63,89.83Z"/><path class="cls-9" d="M290,105.8s5.91-1.89,6.57-2.83,3.32-5.29,3.32-5.29a3.56,3.56,0,0,1,.65,2.62c-.19.72-.51,2-.76,3a.86.86,0,0,0,1,1.06c1.4-.25,3.44-.5,3.69.18.38,1-1.25,7.64-2.44,8.85s-9.34,1.24-9.34,1.24Z"/><path class="cls-11" d="M303,106.43c0,.06-.38.45-1.21.83a5.38,5.38,0,0,1-1.54.48,1.6,1.6,0,0,1-1.05-.21,1.09,1.09,0,0,1-.44-1.12,1.53,1.53,0,0,1,.61-1,3,3,0,0,1,.91-.42c.59-.15,1.09-.25,1.53-.34a4.06,4.06,0,0,1,1.44-.17,4.25,4.25,0,0,1-1.35.53l-1.48.44c-.52.17-1.06.47-1.15,1s.4.82.94.76a6.87,6.87,0,0,0,1.45-.34A10,10,0,0,1,303,106.43Z"/><path class="cls-11" d="M302,109.43c0,.06-.34.27-1,.53a2.31,2.31,0,0,1-.59.15,1,1,0,0,1-.76-.27,1.34,1.34,0,0,1-.3-1.66,2.56,2.56,0,0,1,1.34-.9l1.11-.45c.65-.25,1.09-.33,1.11-.26s-.35.26-1,.6c-.3.16-.66.36-1.08.55a2.24,2.24,0,0,0-1.08.73.85.85,0,0,0,.19,1,.47.47,0,0,0,.4.19,2.24,2.24,0,0,0,.51-.07C301.54,109.45,302,109.35,302,109.43Z"/><path class="cls-11" d="M298.4,111.62c-.07,0-.18-.33-.5-.84a4.38,4.38,0,0,0-1.66-1.58l-.34-.18.3-.25a6.27,6.27,0,0,0,.62-.55,13.29,13.29,0,0,0,2.29-3.5,2.33,2.33,0,0,1-.23,1.27,7,7,0,0,1-1.69,2.61c-.22.21-.45.4-.68.58l0-.43a4.09,4.09,0,0,1,1.72,1.88C298.45,111.22,298.45,111.61,298.4,111.62Z"/><path class="cls-11" d="M302.15,111.76s-.26.32-.88.55a1.54,1.54,0,0,1-1.22-.06,1.27,1.27,0,0,1-.56-.54,1,1,0,0,1,0-.89,2.56,2.56,0,0,1,1.1-1,6.74,6.74,0,0,1,1-.47c.58-.23,1-.29,1-.23s-.31.25-.84.56c-.27.15-.59.34-.92.55a2.48,2.48,0,0,0-.88.77c-.15.28.06.62.35.79a1.24,1.24,0,0,0,.9.12C301.75,111.84,302.12,111.68,302.15,111.76Z"/><path class="cls-5" d="M202,45.31a23.08,23.08,0,0,1-1,5.23,7.62,7.62,0,0,1-3.23,4.11c-1.48.82-3.52,1.18-4.1,2.77s.67,3.67-.5,4.86a3.85,3.85,0,0,1-1.81.79,8,8,0,0,0-5.2,4,8.57,8.57,0,0,0,.52,7.55,25.19,25.19,0,0,0,5,6l19-4.07S205,46.48,205.1,46.69A25,25,0,0,1,202,45.31Z"/><path class="cls-5" d="M227.16,46.9a3.26,3.26,0,0,0,1.63,2.23,20.75,20.75,0,0,1,2.42,1.5,6,6,0,0,1,1.88,4.56,17.77,17.77,0,0,1-.9,5,10.72,10.72,0,0,1,8,4.18A14.1,14.1,0,0,1,243,73c0,2.23-.56,4.62-2.26,6a9.42,9.42,0,0,1-4.87,1.73c-3.45.51-6.93.82-10.4,1.11s-7.21.54-10.28-1.13a12.86,12.86,0,0,1-5.42-6.66,27.56,27.56,0,0,1-1.62-12.8A61.47,61.47,0,0,1,211,48.66"/><path class="cls-5" d="M203.24,42a13.31,13.31,0,0,0-5.44-1.44c-1.88,0-3.89,1.11-4.4,2.93a4.29,4.29,0,0,0,.34,2.94,9.1,9.1,0,0,0,1.8,2.4,4.44,4.44,0,0,0,2.57,1.51,3.71,3.71,0,0,0,2.22-.64,5.75,5.75,0,0,0,2.7-3.46,4.09,4.09,0,0,0-1.23-4.09"/><path class="cls-7" d="M224.86,37.74s3.4-1.18,3.44-3.41-25.45-5.42-30.32,7c0,0,1,.68,4.89.42"/><g class="cls-8"><path d="M224.86,37.74s3.4-1.18,3.44-3.41-25.45-5.42-30.32,7c0,0,1,.68,4.89.42"/></g><path class="cls-9" d="M205.33,72.12l15.55-1.24c.1-1.82,0-8.84,0-8.84s6.47-1,6.55-7.48-1-21.32-1-21.32h0a22.46,22.46,0,0,0-22.59,2.84l-1,.73Z"/><path class="cls-5" d="M223.75,44A.94.94,0,1,1,225,42.62.94.94,0,0,1,223.75,44Z"/><path class="cls-5" d="M226.44,42.88c-.1.11-.74-.38-1.63-.38s-1.53.45-1.63.34,0-.25.33-.47a2.17,2.17,0,0,1,1.31-.41,2.23,2.23,0,0,1,1.3.44C226.39,42.62,226.49,42.83,226.44,42.88Z"/><path class="cls-5" d="M215.35,43.35a.94.94,0,0,1,.31,1.29,1,1,0,0,1-1.3.31.93.93,0,0,1-.3-1.29A.94.94,0,0,1,215.35,43.35Z"/><path class="cls-5" d="M216.76,43.66c-.1.11-.73-.37-1.63-.38s-1.53.46-1.63.34.05-.25.33-.46a2.18,2.18,0,0,1,2.61,0C216.72,43.41,216.81,43.61,216.76,43.66Z"/><path class="cls-5" d="M220.34,51a4.2,4.2,0,0,1,1.44-.3c.23,0,.41-.08.43-.21a1.25,1.25,0,0,0-.17-.66l-.7-1.81a24.55,24.55,0,0,1-1.53-4.76,24.52,24.52,0,0,1,2,4.58l.67,1.82a1.53,1.53,0,0,1,.13,1,.62.62,0,0,1-.41.37,1.55,1.55,0,0,1-.39.06A4.18,4.18,0,0,1,220.34,51Z"/><path class="cls-11" d="M220.86,61.94a15,15,0,0,1-8.43-2.39s2,4.65,8.45,4.07Z"/><path class="cls-5" d="M226.49,34.86s-3.78,2.19-9.08,0c-3.48-1.42-7.44-2-8.26-1.21s.61,7.45-2.64,8.7c0,0-.62,3.33-3.27,3.29s-1.76-10.37-1.76-10.37l6.2-3.62,6.92-1.84,6.68.44,5.21,1Z"/><path class="cls-9" d="M203.61,43.52c-.11-.05-4.45-1.32-4.31,3.1s4.55,3.37,4.56,3.25S203.61,43.52,203.61,43.52Z"/><path class="cls-11" d="M202.45,48.23s-.07.06-.2.12a.78.78,0,0,1-.58,0,1.88,1.88,0,0,1-.93-1.68,2.5,2.5,0,0,1,.18-1.11.89.89,0,0,1,.56-.61.39.39,0,0,1,.46.2c.06.12,0,.21.06.22s.09-.08.05-.26a.5.5,0,0,0-.18-.28.57.57,0,0,0-.43-.09,1,1,0,0,0-.78.71,2.5,2.5,0,0,0-.23,1.24,2,2,0,0,0,1.18,1.87.84.84,0,0,0,.71-.14C202.45,48.34,202.47,48.24,202.45,48.23Z"/><path class="cls-5" d="M200.6,29.81c0-.13.69-.46,1.58-.17s1.32,1,1.21,1-.62-.32-1.36-.55S200.64,30,200.6,29.81Z"/><path class="cls-5" d="M203.12,27c.16,0,.16.94.37,2s.69,1.82.57,1.92-.85-.61-1.08-1.82A2.89,2.89,0,0,1,203.12,27Z"/><path class="cls-5" d="M222.11,41.42c-.16-.23.67-1,2-1s2.17.6,2,.85-1,.13-2,.19S222.25,41.68,222.11,41.42Z"/><path class="cls-5" d="M209,33.5a33.63,33.63,0,0,1,3.85,2.89A6.65,6.65,0,0,0,217.29,38l-.39-.75A26.81,26.81,0,0,0,224.23,39a2.86,2.86,0,0,0,2.59-.68c.58-.76-.23-2.09-.33-3.5-.06-1-.42-1.26-1.36-1.61a3.5,3.5,0,0,0-1.37-.12,54.84,54.84,0,0,1-10.48-.59,10.75,10.75,0,0,0-2.46-.19,3.09,3.09,0,0,0-2.16,1"/><path class="cls-11" d="M220.43,51.85a.86.86,0,0,0-1,0,1.08,1.08,0,0,0-.46.86,1.41,1.41,0,0,0,.36.92,1.34,1.34,0,0,0,.69.42,1.14,1.14,0,0,0,1.16-.5,1.21,1.21,0,0,0,0-1.27,1.28,1.28,0,0,0-1.14-.57"/><path class="cls-5" d="M222.65,53.1c0,.06-.26.24-.77.26A4.78,4.78,0,0,1,220,53c-1.39-.54-2.25-1.49-2.1-1.61s1,.61,2.3,1.13a8.19,8.19,0,0,0,1.69.5C222.34,53.06,222.62,53,222.65,53.1Z"/><path class="cls-5" d="M216.57,41.34c-.11.1-.32,0-.6.1s-.71.13-1.27.19c-1.1.09-2-.06-2-.34s.85-.6,1.94-.7a3.1,3.1,0,0,1,1.53.13C216.57,40.91,216.68,41.25,216.57,41.34Z"/><path class="cls-5" d="M206,36.34c.07,3.54.76,7,.8,10.6s-.65,7.29-3,10a4.88,4.88,0,0,1-3.15,1.87,1.78,1.78,0,0,1-1.82-.89,2.18,2.18,0,0,1,.19-1.65,37.91,37.91,0,0,1,2.76-4.67,10.72,10.72,0,0,0,1.84-5,15.32,15.32,0,0,0-.56-3.91,8.72,8.72,0,0,1-.14-3.93A3.46,3.46,0,0,1,205.61,36"/><path class="cls-7" d="M214.3,33.43c11.66-1.26,13.89.8,14,.9a2.45,2.45,0,0,0,.6-1.16c.41-3.44-3.77-4.42-3.77-4.42C222.52,16.82,211.79,18,211.79,18l0-.09a1.93,1.93,0,0,0-2.25-1.53l-1.68.32A1.93,1.93,0,0,0,206.31,19h0c-12.58,4.19-8.4,15.82-8.4,15.82l-1.84,2.23c-1.63,3.3,1.91,4.3,1.91,4.3S202.33,34.74,214.3,33.43Z"/><g class="cls-8"><path d="M208.43,29.36a25.48,25.48,0,0,1-1.43-5,26,26,0,0,1-.92-5.14,26.28,26.28,0,0,1,1.43,5A27,27,0,0,1,208.43,29.36Z"/></g><g class="cls-8"><path d="M214.7,27.81A24.58,24.58,0,0,1,213.07,23a24.07,24.07,0,0,1-1.13-4.94,26.21,26.21,0,0,1,1.63,4.8A25.59,25.59,0,0,1,214.7,27.81Z"/></g><g class="cls-8"><path d="M224.61,29.26c0,.09-1.5-.35-4-.57a29.61,29.61,0,0,0-9.51.76,39.89,39.89,0,0,0-8.94,3.45c-2.19,1.15-3.47,2-3.52,1.91a4,4,0,0,1,.85-.67c.57-.4,1.41-.94,2.49-1.56A35.15,35.15,0,0,1,211,29a27,27,0,0,1,9.68-.62,19.25,19.25,0,0,1,2.89.57A4,4,0,0,1,224.61,29.26Z"/></g><g class="cls-12"><path class="cls-10" d="M209,31.47a62.45,62.45,0,0,0-6.51,2.78,64.79,64.79,0,0,0-5.88,4,7.08,7.08,0,0,1,1.45-1.52,23.92,23.92,0,0,1,8.87-4.83A6.73,6.73,0,0,1,209,31.47Z"/></g><g class="cls-12"><path class="cls-10" d="M199,33.1c-.33.07-.89-.74-1.12-2.26a9.94,9.94,0,0,1,5.28-10c1.38-.67,2.36-.66,2.49-.35.29.68-2.65,2.38-4.39,5.76S199.72,33,199,33.1Z"/></g><path class="cls-7" d="M190.37,148l47.2,4.26c.07-3.23-.91-22.92-1.49-35.87-.11-2.44,2.32-6.7,2.22-8.74-.23-5.1-1-5.31-1-5.31l2.69,5.05L254,95,241.76,78.45a24.2,24.2,0,0,0-16.19-9.57c-1.89-.26-3.33-.38-4.27-.5a27.51,27.51,0,0,1-16.58,0h0a22.79,22.79,0,0,0-6.87,1.31,28.18,28.18,0,0,0-10.95,7.1h0l-20,23.56,18.56,11.93,7.11-7.5.93,19.46Z"/><path class="cls-10" d="M234.2,94.32c0,.15-7,.26-15.54.26s-15.54-.11-15.54-.26,7-.26,15.54-.26S234.2,94.18,234.2,94.32Z"/><path class="cls-10" d="M233.17,89.27a39.68,39.68,0,0,1-9.07,0,19.59,19.59,0,0,1,4.54-.26A19.54,19.54,0,0,1,233.17,89.27Z"/><path class="cls-5" d="M199.44,96.37a18.28,18.28,0,0,1-1.92,2.45c-1.23,1.47-3,3.48-4.88,5.67s-3.7,4.16-5,5.56a18.2,18.2,0,0,1-2.19,2.21,18.62,18.62,0,0,1,1.91-2.45c1.23-1.47,3-3.48,4.89-5.67s3.71-4.16,5-5.57A18,18,0,0,1,199.44,96.37Z"/><path class="cls-7" d="M196.06,307.37l-1.54,6.47s-10.59,13.76-13.86,13.08c-2.14-.44.49-4,4.52-14.47l.85-4.32Z"/><path class="cls-5" d="M180.23,324.89a1.36,1.36,0,0,0,.57.54,2,2,0,0,0,2-.28,60.45,60.45,0,0,0,5.27-5c2-2,3.61-4,4.77-5.49l1.35-1.74.37-.48c.08-.1.13-.16.14-.15a1.92,1.92,0,0,1-.11.18c-.1.16-.22.32-.33.5-.3.42-.74,1-1.31,1.78a68.4,68.4,0,0,1-4.73,5.55,51.85,51.85,0,0,1-5.34,5,2.49,2.49,0,0,1-1.2.44,1.66,1.66,0,0,1-.94-.21,1,1,0,0,1-.44-.41A.52.52,0,0,1,180.23,324.89Z"/><path class="cls-5" d="M181.73,320.47a1.65,1.65,0,0,1,.87-.1,4.47,4.47,0,0,1,2,.69,3.66,3.66,0,0,1,1.45,1.54,1.86,1.86,0,0,1,.23.85s-.11-.32-.36-.78a3.81,3.81,0,0,0-1.43-1.43,4.92,4.92,0,0,0-1.9-.72C182.07,320.44,181.74,320.51,181.73,320.47Z"/><path class="cls-5" d="M191.76,317.24s-.06-.1-.13-.31a5.2,5.2,0,0,1-.21-.88,4.72,4.72,0,0,1,.49-2.95,4.46,4.46,0,0,1,2.14-2.08,3.46,3.46,0,0,1,.88-.27,1,1,0,0,1,.33,0,8.39,8.39,0,0,0-1.14.42,4.72,4.72,0,0,0-2,2,5,5,0,0,0-.53,2.84C191.65,316.78,191.79,317.23,191.76,317.24Z"/><path class="cls-5" d="M195.39,308.47c.05,0-.19.92-.39,2.06a6.44,6.44,0,0,1-.56,2s.17-.93.36-2.08A6.26,6.26,0,0,1,195.39,308.47Z"/><path class="cls-5" d="M185,313.36a2.33,2.33,0,0,1,1.36,0,2.3,2.3,0,0,1,1.23.59c0,.05-.56-.23-1.27-.39S185,313.42,185,313.36Z"/><path class="cls-5" d="M184.78,314.47a1.61,1.61,0,0,1,1.14-.05,1.58,1.58,0,0,1,1,.56s-.46-.22-1-.36S184.78,314.53,184.78,314.47Z"/><path class="cls-5" d="M183.93,315.86a1.41,1.41,0,0,1,1.19-.16,1.38,1.38,0,0,1,1,.66,5.47,5.47,0,0,0-1.05-.46A6.22,6.22,0,0,0,183.93,315.86Z"/><path class="cls-5" d="M185.72,312.9s.49-.14,1.24-.43a9.2,9.2,0,0,0,1.28-.62,6.86,6.86,0,0,0,.7-.45c.22-.16.45-.39.44-.64s-.31-.38-.55-.32a1.57,1.57,0,0,0-.65.44,13.38,13.38,0,0,0-1,1c-.54.6-.84,1-.87,1a1.09,1.09,0,0,1,.18-.31c.13-.19.32-.46.58-.78a14.28,14.28,0,0,1,1-1.06,1.72,1.72,0,0,1,.74-.49.62.62,0,0,1,.81.5,1.09,1.09,0,0,1-.53.82,7.2,7.2,0,0,1-.73.45,8,8,0,0,1-1.32.58,7,7,0,0,1-.93.26A1.38,1.38,0,0,1,185.72,312.9Z"/><path class="cls-5" d="M186.28,312.76a8.36,8.36,0,0,1-.2-1.18,5.14,5.14,0,0,0-.36-1.22,2.73,2.73,0,0,0-.4-.62c-.16-.19-.4-.34-.59-.23s-.22.4-.19.64a2.76,2.76,0,0,0,.2.71,4.2,4.2,0,0,0,.69,1.07c.49.54.87.8.85.83s-.11,0-.28-.16a4.7,4.7,0,0,1-.68-.58,3.88,3.88,0,0,1-.76-1.08,3.38,3.38,0,0,1-.23-.76.84.84,0,0,1,.3-.85.71.71,0,0,1,.84.27,2.61,2.61,0,0,1,.42.68,4.74,4.74,0,0,1,.33,1.28c.05.37.06.67.07.88A1,1,0,0,1,186.28,312.76Z"/><g class="cls-13"><path d="M194.52,313.84l.74-3.11s-2.59.48-3.26,2.42a8.08,8.08,0,0,0-.51,3.33l-5.64,6.07s-1.42-2.76-4-2.1c0,0-2,4.44-2,5.55s1.35,1,1.81.77a22.74,22.74,0,0,0,5.05-4C189.77,319.68,193.07,315.75,194.52,313.84Z"/></g><path class="cls-9" d="M162.13,131.59a15.73,15.73,0,0,1,.07-20.72l7.88-8.49,14.23,9.15c-.46.3-9.82,10.43-9.82,10.43l16.41,20.46a11.78,11.78,0,0,1,1.95,11.2L190,165.06,176.46,159l.91-1.4h9l.54-2.16h0Z"/><path class="cls-11" d="M171,118.32a9.23,9.23,0,0,1,2.19,1.87,6.38,6.38,0,0,1,1.76,2.31,12,12,0,0,1-2.13-1.94A7.52,7.52,0,0,1,171,118.32Z"/><polygon class="cls-5" points="202.5 150.84 205.18 99.58 234.56 99.58 236.73 153.92 202.5 150.84"/><path class="cls-6" d="M230.44,112.85s-.22.22-.67.54a23.16,23.16,0,0,1-2,1.22,27.51,27.51,0,0,1-15.11,3.1,19.8,19.8,0,0,1-2.34-.32,3.18,3.18,0,0,1-.84-.23c0-.09,1.23.1,3.2.18a31.94,31.94,0,0,0,7.65-.61,32.53,32.53,0,0,0,7.28-2.45C229.36,113.43,230.4,112.77,230.44,112.85Z"/><path class="cls-6" d="M209.86,120.35c-.14,0-.28-.34-.31-.74s.07-.74.22-.76.28.3.3.73S210,120.35,209.86,120.35Z"/><path class="cls-6" d="M209.06,126c-.14,0-.15-.67,0-1.44s.36-1.39.5-1.37.15.67,0,1.45S209.21,126,209.06,126Z"/><path class="cls-6" d="M209.77,131.54c-.12.08-.57-.46-.78-1.25s-.15-1.46,0-1.47.31.6.51,1.33S209.89,131.47,209.77,131.54Z"/><path class="cls-6" d="M214.54,134.07c0,.14-.66.26-1.46.11s-1.38-.57-1.31-.69.66,0,1.41.17S214.55,133.93,214.54,134.07Z"/><path class="cls-6" d="M220.23,134c0,.15-.63.27-1.42.28s-1.42-.09-1.42-.24.63-.27,1.42-.28S220.23,133.88,220.23,134Z"/><path class="cls-6" d="M225.93,133.94c0,.14-.64.27-1.42.28s-1.43-.09-1.43-.24.63-.27,1.42-.28S225.93,133.79,225.93,133.94Z"/><path class="cls-6" d="M230.55,131.37c.13,0,.06.74-.5,1.41s-1.29.8-1.33.67.47-.46.94-1S230.41,131.32,230.55,131.37Z"/><path class="cls-6" d="M231.6,125.78c.14,0,.16.67,0,1.45s-.33,1.39-.47,1.37-.16-.67,0-1.45S231.45,125.77,231.6,125.78Z"/><path class="cls-6" d="M232.16,120.12c.15,0,.21.65.15,1.44s-.24,1.41-.38,1.4-.21-.66-.14-1.44S232,120.11,232.16,120.12Z"/><path class="cls-6" d="M232.34,115.78c.15,0,.26.34.25.76s-.14.74-.28.74-.25-.34-.24-.76S232.2,115.78,232.34,115.78Z"/><path class="cls-5" d="M196.13,70.37s11.9,3.12,12.1,31.06H213S214.29,78,201.34,68.74C201.34,68.74,197.6,67.84,196.13,70.37Z"/><path class="cls-5" d="M221.3,68.38s8.45,4,8.65,32H234s.34-26.17-7.64-31.34A5.72,5.72,0,0,0,221.3,68.38Z"/><path class="cls-6" d="M213,99.3a3.1,3.1,0,0,1,.3,1.58,2.9,2.9,0,0,1-.53,1.74,2.9,2.9,0,0,1-4.13.15,2.85,2.85,0,0,1-.63-1.71,3.15,3.15,0,0,1,.2-1.59,9.89,9.89,0,0,1,.16,1.55,2.69,2.69,0,0,0,.63,1.43,2.13,2.13,0,0,0,1.72.59,2.15,2.15,0,0,0,1.67-.71,2.74,2.74,0,0,0,.54-1.47A12.61,12.61,0,0,1,213,99.3Z"/><path class="cls-6" d="M210.61,100.12c0-.06.26-.22.63,0a.74.74,0,0,1,.27.73.86.86,0,0,1-.68.69.87.87,0,0,1-.87-.43.74.74,0,0,1,0-.78c.26-.37.59-.32.58-.25s-.18.17-.25.42a.37.37,0,0,0,.06.36.39.39,0,0,0,.37.16.44.44,0,0,0,.31-.28.4.4,0,0,0-.07-.36C210.83,100.22,210.62,100.19,210.61,100.12Z"/><path class="cls-6" d="M234.12,99.28a2.07,2.07,0,0,1,.24,1.35,3,3,0,0,1-.5,1.47,2.35,2.35,0,0,1-1.63,1,2,2,0,0,1-1.81-.72,2.85,2.85,0,0,1-.56-1.45,2.65,2.65,0,0,1,.1-1.37,6.57,6.57,0,0,1,.26,1.31,2.81,2.81,0,0,0,.57,1.2,1.5,1.5,0,0,0,1.37.51,1.93,1.93,0,0,0,1.31-.79,2.94,2.94,0,0,0,.52-1.23C234.12,99.81,234,99.29,234.12,99.28Z"/><path class="cls-6" d="M231.85,100s.13-.3.57-.24a.74.74,0,0,1,.57.5.84.84,0,0,1-.25.92.85.85,0,0,1-1,0,.71.71,0,0,1-.31-.71c.09-.45.42-.51.43-.44s-.1.21-.06.46a.3.3,0,0,0,.19.27.37.37,0,0,0,.38,0,.38.38,0,0,0,.12-.37.39.39,0,0,0-.22-.28C232.09,100,231.89,100,231.85,100Z"/><path class="cls-5" d="M237.57,152.3l30,49.57a7.07,7.07,0,0,1,0,7.38l-27.92,57.58-22.9-12.12,22.76-44.42a7.09,7.09,0,0,0-.57-7.5L209.45,167l1.2-14.73Z"/><polygon class="cls-5" points="190.37 145.73 175.88 310.62 199.83 310.62 220.21 170.69 219.89 150.84 190.37 145.73"/><path class="cls-6" d="M202.9,153a3.81,3.81,0,0,1-.54,1.83,8.3,8.3,0,0,1-7.5,4.66,3.8,3.8,0,0,1-1.88-.33c0-.08.73,0,1.87,0a9.18,9.18,0,0,0,4.16-1.32,9.27,9.27,0,0,0,3-3.15C202.61,153.66,202.82,153,202.9,153Z"/><path class="cls-6" d="M209.16,243.17a4.51,4.51,0,0,1,.11-.82c.1-.59.24-1.37.41-2.35.35-2.08.85-5,1.46-8.62,1.21-7.28,2.75-17.36,4.35-28.51s2.91-21.27,3.8-28.59c.43-3.63.78-6.58,1-8.69.12-1,.21-1.77.28-2.36a5,5,0,0,1,.13-.82,4.34,4.34,0,0,1,0,.83c0,.59-.1,1.38-.17,2.37-.18,2.06-.46,5-.86,8.71-.8,7.34-2.07,17.46-3.66,28.62s-3.19,21.24-4.49,28.51c-.65,3.63-1.22,6.57-1.63,8.59-.22,1-.38,1.75-.51,2.33A4.6,4.6,0,0,1,209.16,243.17Z"/><path class="cls-6" d="M200.33,306.61c0,.14-5.44.14-12.13,0s-12.13-.39-12.13-.53,5.44-.14,12.14,0S200.33,306.46,200.33,306.61Z"/><path class="cls-6" d="M242.25,263.39a3.8,3.8,0,0,1-1-.34c-.64-.26-1.56-.65-2.68-1.16-2.25-1-5.31-2.52-8.59-4.35s-6.17-3.66-8.21-5c-1-.7-1.83-1.27-2.38-1.69a4.43,4.43,0,0,1-.83-.68,4.27,4.27,0,0,1,.94.52c.68.42,1.51.93,2.47,1.54,2.09,1.3,5,3.06,8.26,4.89s6.3,3.38,8.5,4.48l2.6,1.3A4.6,4.6,0,0,1,242.25,263.39Z"/><path class="cls-6" d="M198,305.57c.14,0,.22.36.18.77s-.2.73-.34.72-.23-.36-.18-.78S197.84,305.55,198,305.57Z"/><path class="cls-6" d="M198.63,299.6c.15,0,.19.7.1,1.52s-.28,1.48-.42,1.46-.19-.69-.1-1.51S198.49,299.59,198.63,299.6Z"/><path class="cls-6" d="M199.3,293.64c.14,0,.18.7.09,1.52s-.28,1.48-.42,1.46-.19-.69-.1-1.51S199.16,293.63,199.3,293.64Z"/><path class="cls-6" d="M200,287.69c.14,0,.18.69.08,1.52s-.29,1.47-.43,1.46-.18-.7-.09-1.52S199.84,287.67,200,287.69Z"/><path class="cls-6" d="M200.69,281.73c.14,0,.18.7.08,1.52s-.29,1.48-.44,1.46-.18-.7-.08-1.52S200.55,281.72,200.69,281.73Z"/><path class="cls-6" d="M201.41,275.78c.14,0,.18.7.08,1.52s-.3,1.47-.44,1.46-.18-.7-.08-1.52S201.27,275.76,201.41,275.78Z"/><path class="cls-6" d="M202.15,269.83c.14,0,.17.7.07,1.52s-.3,1.47-.44,1.45-.18-.69-.08-1.52S202,269.81,202.15,269.83Z"/><path class="cls-6" d="M202.91,263.88c.14,0,.17.7.06,1.52s-.3,1.47-.44,1.45-.18-.69-.07-1.52S202.76,263.86,202.91,263.88Z"/><path class="cls-6" d="M203.68,257.93c.15,0,.17.7.07,1.53s-.31,1.47-.46,1.45-.17-.7-.06-1.52S203.54,257.92,203.68,257.93Z"/><path class="cls-6" d="M204.48,252c.14,0,.17.7.06,1.52s-.32,1.47-.46,1.45-.17-.7-.06-1.52S204.34,252,204.48,252Z"/><path class="cls-6" d="M205.29,246.05c.14,0,.17.7.05,1.52S205,249,204.88,249s-.16-.7,0-1.52S205.15,246,205.29,246.05Z"/><path class="cls-6" d="M206.12,240.11c.14,0,.17.7,0,1.52s-.32,1.47-.47,1.45-.16-.7,0-1.52S206,240.09,206.12,240.11Z"/><path class="cls-6" d="M207,234.18c.14,0,.16.7.05,1.52s-.33,1.46-.48,1.44-.16-.7,0-1.52S206.83,234.16,207,234.18Z"/><path class="cls-6" d="M207.84,228.24c.14,0,.16.7,0,1.52s-.33,1.47-.48,1.45-.16-.7,0-1.52S207.7,228.22,207.84,228.24Z"/><path class="cls-6" d="M208.73,222.31c.14,0,.15.7,0,1.52s-.34,1.47-.48,1.45-.16-.71,0-1.52S208.58,222.29,208.73,222.31Z"/><path class="cls-6" d="M209.63,216.38c.14,0,.16.71,0,1.53s-.34,1.46-.49,1.44-.15-.71,0-1.52S209.49,216.36,209.63,216.38Z"/><path class="cls-6" d="M210.55,210.46c.14,0,.16.7,0,1.52s-.35,1.46-.49,1.44-.16-.7,0-1.52S210.41,210.44,210.55,210.46Z"/><path class="cls-6" d="M211.49,204.54c.14,0,.15.7,0,1.52s-.35,1.46-.49,1.44-.15-.71,0-1.52S211.35,204.51,211.49,204.54Z"/><path class="cls-6" d="M212.45,198.62c.14,0,.15.7,0,1.52s-.36,1.46-.5,1.44-.15-.71,0-1.52S212.31,198.59,212.45,198.62Z"/><path class="cls-6" d="M213.43,192.7c.14,0,.15.71,0,1.52s-.36,1.46-.5,1.44-.15-.71,0-1.52S213.29,192.68,213.43,192.7Z"/><path class="cls-6" d="M214.42,186.79c.15,0,.15.7,0,1.52s-.36,1.46-.51,1.43-.14-.7,0-1.52S214.28,186.76,214.42,186.79Z"/><path class="cls-6" d="M215.44,180.88c.14,0,.14.7,0,1.52s-.37,1.46-.51,1.43-.14-.7,0-1.52S215.3,180.85,215.44,180.88Z"/><path class="cls-6" d="M216.63,175c.14,0,.11.71-.07,1.52s-.43,1.44-.57,1.41-.11-.71.06-1.52S216.49,175,216.63,175Z"/><path class="cls-6" d="M218.36,169.26c.14.05,0,.73-.23,1.51s-.59,1.37-.73,1.33,0-.71.24-1.5S218.23,169.21,218.36,169.26Z"/><path class="cls-6" d="M220.26,165.19c.12.07.07.42-.12.78s-.45.61-.58.54-.07-.41.12-.78S220.13,165.12,220.26,165.19Z"/><path class="cls-6" d="M222.41,251.34c.12.08,0,.43-.2.77s-.51.56-.63.48,0-.42.2-.76S222.29,251.26,222.41,251.34Z"/><path class="cls-6" d="M225.68,246.31c.12.08-.15.71-.59,1.4s-.91,1.2-1,1.12.15-.7.6-1.4S225.56,246.24,225.68,246.31Z"/><path class="cls-6" d="M228.87,241.23c.12.08-.13.71-.57,1.41s-.89,1.22-1,1.14.14-.71.58-1.41S228.75,241.16,228.87,241.23Z"/><path class="cls-6" d="M232,236.11c.12.07-.12.71-.55,1.42s-.88,1.22-1,1.15.12-.71.55-1.42S231.87,236,232,236.11Z"/><path class="cls-6" d="M235,230.94c.13.07-.11.71-.53,1.43s-.85,1.23-1,1.16.12-.71.53-1.43S234.91,230.87,235,230.94Z"/><path class="cls-6" d="M238,225.73c.13.07-.1.71-.51,1.43s-.84,1.25-1,1.18.1-.71.51-1.44S237.88,225.66,238,225.73Z"/><path class="cls-6" d="M240.89,220.47c.13.07-.09.71-.49,1.44s-.82,1.26-.94,1.19.09-.71.49-1.44S240.77,220.4,240.89,220.47Z"/><path class="cls-6" d="M243.71,215.17c.12.07-.08.72-.47,1.45s-.8,1.27-.93,1.21.08-.72.47-1.45S243.58,215.11,243.71,215.17Z"/><path class="cls-6" d="M245.94,209.62c.14,0,.11.73-.16,1.53s-.65,1.37-.78,1.31,0-.71.29-1.48S245.8,209.59,245.94,209.62Z"/><path class="cls-6" d="M245.47,203.75c.12-.06.53.52.74,1.35s.11,1.54,0,1.54-.29-.64-.5-1.41S245.33,203.81,245.47,203.75Z"/><path class="cls-6" d="M242.05,198.84c.11-.1.62.35,1.15,1s.87,1.24.75,1.33-.63-.37-1.15-1S241.94,198.93,242.05,198.84Z"/><path class="cls-6" d="M238.08,194.35c.1-.1.64.33,1.18.94s.91,1.2.8,1.3-.64-.33-1.19-1S238,194.44,238.08,194.35Z"/><path class="cls-6" d="M234.1,189.85c.11-.09.64.33,1.19,1s.9,1.2.8,1.3-.64-.33-1.19-.95S234,190,234.1,189.85Z"/><path class="cls-6" d="M230.12,185.36c.11-.09.64.33,1.19.95s.91,1.2.8,1.3-.64-.33-1.19-1S230,185.46,230.12,185.36Z"/><path class="cls-6" d="M226.14,180.87c.11-.09.64.33,1.19.95s.91,1.2.8,1.3-.64-.33-1.19-1S226,181,226.14,180.87Z"/><path class="cls-6" d="M222.17,176.38c.1-.09.64.33,1.18,1s.91,1.2.8,1.3-.64-.33-1.19-.95S222.06,176.48,222.17,176.38Z"/><path class="cls-6" d="M219.18,173c.11-.1.42.08.7.39s.41.64.3.73-.42-.08-.69-.39S219.08,173.11,219.18,173Z"/><path class="cls-6" d="M235.21,149.56a3.59,3.59,0,0,1,.51.65l1.38,1.94c1.17,1.69,2.85,4.16,4.84,7.26,4,6.18,9.25,14.93,15.23,24.45,3,4.76,6,9.21,8.76,13.21a16.71,16.71,0,0,1,3,6.3,10.7,10.7,0,0,1,.05,3.19,13.5,13.5,0,0,1-.79,2.83,30.37,30.37,0,0,1-2.33,4.41c-.77,1.23-1.44,2.3-2,3.18l-1.24,2a4.44,4.44,0,0,1-.45.69,4.89,4.89,0,0,1,.36-.75c.25-.48.64-1.18,1.16-2.07l1.92-3.23a32.06,32.06,0,0,0,2.24-4.4,13.77,13.77,0,0,0,.74-2.74,10.53,10.53,0,0,0-.08-3.06,16.62,16.62,0,0,0-2.94-6.11c-2.8-4-5.81-8.43-8.8-13.2-6-9.53-11.15-18.31-15.1-24.53-1.95-3.12-3.58-5.62-4.7-7.35-.54-.83-1-1.5-1.3-2A5.93,5.93,0,0,1,235.21,149.56Z"/><polygon class="cls-7" points="84.46 386.07 84.38 381.28 94.52 366.16 106.13 381.25 106.13 386.07 84.46 386.07"/><g class="cls-15"><polygon points="84.46 386.07 84.38 381.28 94.52 366.16 106.13 381.25 106.13 386.07 84.46 386.07"/></g><path class="cls-7" d="M44.31,367.87c.23-.12,51.19,0,51.19,0v4.27H47.8Z"/><g class="cls-15"><path d="M44.31,367.87c.23-.12,51.19,0,51.19,0v4.27H47.8Z"/></g><polygon class="cls-7" points="41.61 366.15 29.29 381.68 29.29 419.48 53.09 419.48 53.09 380.83 41.61 366.15"/><polygon class="cls-7" points="110.39 419.48 110.39 380.68 99.75 366.15 94.5 366.15 106.13 381.25 106.13 386.07 57.3 386.07 57.3 379.97 45.26 366.15 41.61 366.15 53.09 380.83 53.09 419.48 110.39 419.48"/><path class="cls-5" d="M110.14,389.2c0,.14-12.85.26-28.71.26s-28.71-.12-28.71-.26,12.85-.27,28.71-.27S110.14,389.05,110.14,389.2Z"/><path class="cls-5" d="M110,417.33c0,.14-12.86.26-28.71.26s-28.72-.12-28.72-.26,12.86-.26,28.72-.26S110,417.19,110,417.33Z"/><g class="cls-16"><polygon class="cls-10" points="41.61 366.15 29.29 381.68 29.29 419.48 53.09 419.48 53.09 380.83 41.61 366.15"/></g><path class="cls-7" d="M558,419.52v-2a8.33,8.33,0,0,1,8.33-8.33h70.19a8.33,8.33,0,0,1,8.33,8.33v2Z"/><path class="cls-7" d="M598.69,330.48,573.3,409.2h54.24L604,330.53A2.77,2.77,0,0,0,598.69,330.48Z"/><g class="cls-8"><polygon class="cls-10" points="590.42 356.12 611.63 356.12 620.81 386.73 580.55 386.73 590.42 356.12"/></g><g class="cls-15"><polygon points="573.3 409.2 627.54 409.2 625.58 402.66 574.36 405.93 573.3 409.2"/></g><g class="cls-12"><path class="cls-10" d="M570.48,412a15.5,15.5,0,0,1-1.74,0,8.81,8.81,0,0,0-3.93,1,8.91,8.91,0,0,0-3,2.74c-.6.87-.84,1.5-.92,1.47a3.42,3.42,0,0,1,.61-1.67,7.8,7.8,0,0,1,3.07-3,7.92,7.92,0,0,1,4.18-.94A3.56,3.56,0,0,1,570.48,412Z"/></g><g class="cls-12"><path class="cls-10" d="M582.81,388.88a53.36,53.36,0,0,1-2.31,7,51.34,51.34,0,0,1-2.8,6.84,53.74,53.74,0,0,1,2.31-7A51.53,51.53,0,0,1,582.81,388.88Z"/></g><g class="cls-12"><path class="cls-10" d="M600.54,331.1a24.65,24.65,0,0,1-1,3.32c-.71,2.17-1.6,4.91-2.58,7.94s-1.85,5.78-2.55,7.95a24.12,24.12,0,0,1-1.14,3.27,21.31,21.31,0,0,1,.79-3.37c.57-2.07,1.4-4.9,2.4-8s2-5.9,2.73-7.9A19.82,19.82,0,0,1,600.54,331.1Z"/></g></g></g></svg>