<?xml version="1.0" encoding="utf-8"?>
<!-- Generator: Adobe Illustrator 24.2.3, SVG Export Plug-In . SVG Version: 6.00 Build 0)  -->
<svg version="1.1" id="Camada_1" xmlns="http://www.w3.org/2000/svg" xmlns:xlink="http://www.w3.org/1999/xlink" x="0px" y="0px"
	 viewBox="0 0 693.2 438.2" style="enable-background:new 0 0 693.2 438.2;" xml:space="preserve">
<style type="text/css">
	.st0{fill:#92E3A9;}
	.st1{opacity:0.8;fill:#FFFFFF;enable-background:new    ;}
	.st2{fill:none;stroke:#263238;stroke-miterlimit:10;}
	.st3{fill:#263238;}
	.st4{opacity:0.31;fill:#FFFFFF;enable-background:new    ;}
	.st5{opacity:0.5;fill:#FFFFFF;enable-background:new    ;}
	.st6{opacity:0.33;fill:#FFFFFF;enable-background:new    ;}
	.st7{fill:#263238;stroke:#263238;stroke-miterlimit:10;}
	.st8{fill:#FFFFFF;stroke:#263238;stroke-miterlimit:10;}
</style>
<g>
	<path class="st0" d="M676.6,172.7c-7.9-28.4-60.4,2.5-60.4,2.5l13.7-24.9c1.7-2.5,3.1-5.2,4.3-7.9c6.9-15.4,6.8-31.9,0-46.3
		c-1.9-8.7-7.6-21.2-23.3-34.9c-29.8-25.9-129.6-43.6-158.5-39.6s26.3,16.1,26.3,16.1h-4.4c-84.1-9-168.8-10.1-252.8-8.4
		c-21.1,0.4-42.2,1.1-62.8,4.7c-5.9,1-12.3,2.6-15.9,7.4c-15.7,21.3,48.5,23.3,58.5,22.9c-44.1,5.7-93,7.5-134,24.5
		c-5.7,2.4-11.4,5.2-15.7,9.6s-7.1,10.6-6.2,16.9c2.8,18.2,27.9,23.6,42.1,27.6c0,0-81.7,54.3-72.1,81.9
		c4.4,13.1,11.5,25.1,20.9,35.2c-6.2,7.7-11.6,16-16,24.9c-2.6,5.3-6,12.7-3.1,18.8C32.2,334.9,258,442.5,438.8,411.8
		c48.1-8.1,95.9-21.6,138-45.5c41.9-23.7,84.6-62.9,95.2-112.3c0.3-1.6,0.6-3.2,0.8-4.7C679.4,226.4,683.2,196.4,676.6,172.7z"/>
	<path class="st1" d="M676.6,172.7c-7.9-28.4-60.4,2.5-60.4,2.5l13.7-24.9c1.7-2.5,3.1-5.2,4.3-7.9c6.9-15.4,6.8-31.9,0-46.3
		c-1.9-8.7-7.6-21.2-23.3-34.9c-29.8-25.9-129.6-43.6-158.5-39.6s26.3,16.1,26.3,16.1h-4.4c-84.1-9-168.8-10.1-252.8-8.4
		c-21.1,0.4-42.2,1.1-62.8,4.7c-5.9,1-12.3,2.6-15.9,7.4c-15.7,21.3,48.5,23.3,58.5,22.9c-44.1,5.7-93,7.5-134,24.5
		c-5.7,2.4-11.4,5.2-15.7,9.6s-6,10.6-6.2,16.9c-0.4,16.8,26.6,23,42.1,27.6c0,0-81.7,54.3-72.1,81.9c4.4,13.1,11.5,25.1,20.9,35.2
		c-6.2,7.7-11.6,16-16,24.9c-2.6,5.3-6,12.7-3.1,18.8C32.2,334.9,258,442.5,438.8,411.8c48.1-8.1,95.9-21.6,138-45.5
		c41.9-23.7,84.6-62.9,95.2-112.3c0.3-1.6,0.6-3.2,0.8-4.7C679.4,226.4,683.2,196.4,676.6,172.7z"/>
	<path class="st2" d="M530.4,141.7c0,0,1-3.1,6.1-4.1s11.2,4.6,11.2,4.6s4.1-8.2,8.2-8.7s8.7,3.1,8.7,3.1"/>
	<path class="st2" d="M517.1,161.1c0,0,1-3.1,6.1-4.1s11.2,4.6,11.2,4.6s4.1-8.2,8.2-8.7s8.7,3.1,8.7,3.1"/>
	<path class="st2" d="M565.6,161.2c0,0,0.8-2.3,4.7-3.1s8.5,3.5,8.5,3.5s3.1-6.2,6.2-6.6s6.6,2.3,6.6,2.3"/>
	<path class="st2" d="M622.3,181.7c0,0,0.5-1.5,3.1-2s5.6,2.3,5.6,2.3s2-4.1,4.1-4.3s4.3,1.5,4.3,1.5"/>
	<path class="st2" d="M350.6,136.3c-5.3-23.7-32.6-41.3-56.4-38c-6,0.7-11.6,3.2-16.2,7.2c-6.1,5.6-4.6,11.9-7.6,18.9
		c-0.8,2-2.5,3.5-4.5,4c-5.9,1-10.7-4.9-16.7-4.9c-4.5,0-10.2,2.4-12.7,6.3c-2.3,3.6-0.7,9.9-4.9,12.3c-4.7,2.7-10.4-2.4-15.4-0.6
		c-6.3,2.3-3.4,6.9-5.7,9.7s-6.9,1.7-13.2,1.1s-11.4,6.9-11.4,6.9h198.5c0,0,1.7-2.9-5.7-14.3s-17.7-3.4-22.3-3.4
		S350.6,136.3,350.6,136.3z"/>
	<path class="st2" d="M405.9,98.2c-2.1-9.5-13.1-16.6-22.6-15.2c-2.4,0.3-4.7,1.3-6.5,2.9c-2.4,2.3-1.9,4.8-3.1,7.6
		c-0.3,0.8-1,1.4-1.8,1.6c-2.4,0.4-4.3-2-6.7-2c-2,0-3.9,1-5.1,2.5c-0.9,1.4-0.3,4-2,4.9c-1.9,1.1-4.2-1-6.2-0.2
		c-2.5,0.9-1.4,2.8-2.3,3.9s-2.8,0.7-5.3,0.5s-4.6,2.8-4.6,2.8h79.6c0,0,0.7-1.2-2.3-5.7s-7.1-1.4-9-1.4S405.9,98.2,405.9,98.2z"/>
	<path class="st2" d="M575.8,214.7c-2.1-9.5-13.1-16.6-22.6-15.2c-2.4,0.3-4.7,1.3-6.5,2.9c-2.4,2.2-1.9,4.8-3.1,7.6
		c-0.3,0.8-1,1.4-1.8,1.6c-2.4,0.4-4.3-2-6.7-2c-2,0-3.9,0.9-5.1,2.5c-0.9,1.4-0.3,4-2,4.9c-1.9,1.1-4.2-1-6.2-0.2
		c-2.5,0.9-1.4,2.8-2.3,3.9s-2.8,0.7-5.3,0.5c-2.5-0.2-4.6,2.8-4.6,2.8h79.6c0,0,0.7-1.1-2.3-5.7s-7.1-1.4-9-1.4
		S575.8,214.7,575.8,214.7z"/>
	<path class="st2" d="M448,204.3c-3.2-14.6-20-25.4-34.6-23.3c-3.7,0.4-7.1,2-9.9,4.4c-3.7,3.4-2.9,7.3-4.7,11.6
		c-0.5,1.2-1.5,2.1-2.8,2.4c-3.6,0.6-6.6-3-10.3-3c-2.8,0-6.3,1.5-7.8,3.9c-1.4,2.2-0.4,6.1-3,7.5c-2.9,1.6-6.4-1.5-9.5-0.4
		c-3.9,1.4-2.1,4.2-3.5,6s-4.2,1.1-8.1,0.7s-7,4.2-7,4.2h122c0,0,1-1.8-3.5-8.8s-10.9-2.1-13.7-2.1S448,204.3,448,204.3z"/>
	<path class="st3" d="M476.7,372c0,0-7.3-7.5-5.2-7.3s5.9,5.9,5.9,5.9s0.1-12.5,1.9-9.7s-0.4,9.8-0.4,9.8s5.2-8.1,5.2-6.8
		c0,4.1-4,7.3-4,7.3s8.3-6.2,7-3.7s-6.7,4.9-6.7,4.9s9.6-1.9,6.2-0.6s-6.6,2.3-6.6,2.3h-2.7c0,0-9.1-4.5-5.6-3.9
		C473.4,370.5,475.1,371.1,476.7,372z"/>
	<path class="st3" d="M573,348.4c0,0-5.7-5.9-4.1-5.7s4.6,4.6,4.6,4.6s0-9.7,1.5-7.6s-0.3,7.6-0.3,7.6s4-6.3,4-5.3
		c0,3.2-3.1,5.7-3.1,5.7s6.5-4.8,5.4-2.9s-5.2,3.8-5.2,3.8s7.5-1.5,4.8-0.4s-5.2,1.8-5.2,1.8h-2.1c0,0-7.1-3.5-4.4-3
		C570.3,347.2,571.7,347.7,573,348.4z"/>
	<path class="st3" d="M662.4,327.3c0,0-5.7-5.9-4.1-5.7s4.6,4.6,4.6,4.6s0-9.7,1.5-7.6s-0.3,7.6-0.3,7.6s4-6.3,4-5.3
		c0,3.2-3.1,5.7-3.1,5.7s6.5-4.8,5.4-2.9s-5.2,3.8-5.2,3.8s7.5-1.5,4.8-0.4s-5.2,1.8-5.2,1.8h-2.1c0,0-7-3.5-4.4-3
		C659.7,326.1,661.1,326.6,662.4,327.3z"/>
	<path class="st0" d="M548.5,375.4c0,0-6.8-7-4.9-6.8s5.5,5.5,5.5,5.5s0-11.6,1.7-9s-0.4,9.1-0.4,9.1s4.8-7.5,4.8-6.3
		c0,3.8-3.7,6.8-3.7,6.8s7.7-5.7,6.5-3.4s-6.2,4.5-6.2,4.5s8.9-1.8,5.8-0.5s-6.2,2.1-6.2,2.1h-2.5c0,0-8.4-4.2-5.3-3.6
		C545.3,374.1,547,374.6,548.5,375.4z"/>
	<polyline class="st2" points="414.3,345 354.4,277.7 341.2,288.2 275.5,189.3 218.3,202 201.2,170 184.5,169.2 153,107 105.8,150 
		83.1,141.9 0.3,226.3 	"/>
	<line class="st2" x1="425.6" y1="357.6" x2="419.3" y2="350.5"/>
	<line class="st2" x1="187.5" y1="210.2" x2="182.6" y2="211.6"/>
	<line class="st2" x1="218.1" y1="201.9" x2="193.1" y2="208.7"/>
	<polyline class="st2" points="123.7,173.2 137.7,152.5 136.8,145.4 152.9,112.7 	"/>
	<line class="st2" x1="117.9" y1="181.8" x2="121.4" y2="176.6"/>
	<line class="st2" x1="96.1" y1="194.1" x2="73.4" y2="224.9"/>
	<polyline class="st2" points="84.3,145.4 89.9,158.1 102.7,168.6 101.3,187 98.2,191.2 	"/>
	<polyline class="st2" points="201.2,170 189.3,181.3 185,174.2 	"/>
	<polyline class="st2" points="679.5,296.5 587.4,231.6 559.5,271.1 525,259.6 471.6,334.3 437.1,326.9 419.8,341.7 	"/>
	<polyline class="st2" points="587.4,231.6 576.5,279.7 563.6,274.1 	"/>
	<polyline class="st2" points="525.3,262.4 498.3,341 479.7,337.8 	"/>
	<path class="st0" d="M524,256.8c-23.9-0.1-43.3,19.2-43.4,43.1c0,0,0,0,0,0c0,10.6,3.9,20.8,11,28.7c5.1-0.7,10.4-0.3,15.3,1.4
		c5.5,1.8,10.5,4.8,14.7,8.6h3.9c4.3-3.9,9.3-6.8,14.7-8.6c5.1-1.7,10.6-2.2,16-1.3c7.2-7.9,11.2-18.2,11.2-28.8
		C567.4,276,548,256.7,524,256.8C524.1,256.8,524.1,256.8,524,256.8z"/>
	<path class="st3" d="M544.2,317.1c-1.3,0.7-2.7,1.3-4,2c-1.3,0.7-2.6,1.5-3.8,2.3l-1.3,1l7.1-13.2l-9.8,15.3c-1,0.8-2,1.6-2.9,2.4
		c-1.6,1.4-3.1,2.8-4.6,4.2l-0.5-14.4l10.2-15.5l-10.3,13.4l-0.4-12.9l-0.7,14.4l0,0l-0.7,14.4c-1.3-1.2-2.6-2.4-4-3.6
		c-1.1-0.9-2.2-1.8-3.3-2.7l-9.2-15.7l6.8,13.9c-0.4-0.3-0.8-0.6-1.2-0.9c-1.2-0.8-2.5-1.6-3.8-2.3c-1.3-0.7-2.7-1.4-4-2
		c-2.7-1.3-5.4-2.5-8.2-3.5c2.7,1.2,5.3,2.5,7.9,3.9c1.3,0.7,2.5,1.5,3.8,2.2c1.2,0.8,2.4,1.6,3.5,2.5c2.2,1.8,4.4,3.7,6.4,5.7
		c1.8,1.8,3.5,3.6,5.1,5.4l-0.9,18.3h4.3l-0.6-17.5c1.8-2.1,3.8-4.2,5.8-6.1c2-2,4.1-3.9,6.4-5.7c1.1-0.9,2.3-1.7,3.5-2.5
		c1.2-0.8,2.5-1.5,3.8-2.2c2.6-1.5,5.2-2.8,7.9-3.9C549.6,314.6,546.9,315.8,544.2,317.1z"/>
	<path class="st0" d="M191.2,315.8c0,12.4-6.9,13.3-15.5,13.3s-15.5-0.9-15.5-13.3s6.9-38.2,15.5-38.2S191.2,303.5,191.2,315.8z"/>
	<polygon class="st3" points="180.9,321.5 178.3,321.6 185,317.1 180.2,319.5 180.9,317.7 178.7,320.3 176.2,321.6 176,312.7 
		177.3,309.4 175.9,311.3 175.8,306.1 180.1,300.5 175.8,304.9 175.5,293.5 175.3,300.8 172.6,297.7 175.2,302.2 174.9,313.7 
		172.5,312.1 170.4,308.3 171.2,311.3 167,308.5 174.8,315.3 173.6,353 176.9,353 176.2,323.1 176.9,322.6 	"/>
	<path class="st0" d="M608,273.2c0,24.2-13.6,26-30.3,26s-30.3-1.8-30.3-26s13.6-74.7,30.3-74.7S608,249.1,608,273.2z"/>
	<path class="st4" d="M608,273.2c0,24.2-13.6,26-30.3,26s-30.3-1.8-30.3-26s13.6-74.7,30.3-74.7S608,249.1,608,273.2z"/>
	<polygon class="st3" points="587.9,284.2 582.9,284.6 596,275.8 586.6,280.5 587.9,276.8 583.7,282 578.7,284.5 578.3,267.1 
		580.9,260.7 578.2,264.3 578,254.3 586.3,243.2 577.9,251.7 577.4,229.6 577,243.8 571.6,237.8 576.9,246.5 576.2,269 571.5,265.9 
		567.3,258.4 569,264.3 560.7,258.9 576.1,272.1 573.7,345.8 580.1,345.8 578.7,287.4 580.2,286.4 	"/>
	<path class="st0" d="M672.8,282.8c0,12.4-6.9,13.3-15.5,13.3s-15.5-0.9-15.5-13.3s6.9-38.2,15.5-38.2S672.8,270.4,672.8,282.8z"/>
	<path class="st5" d="M672.8,282.8c0,12.4-6.9,13.3-15.5,13.3s-15.5-0.9-15.5-13.3s6.9-38.2,15.5-38.2S672.8,270.4,672.8,282.8z"/>
	<polygon class="st3" points="662.5,288.4 660,288.5 666.6,284 661.9,286.5 662.5,284.6 660.3,287.2 657.8,288.5 657.6,279.6 
		658.9,276.3 657.6,278.2 657.4,273 661.7,267.4 657.4,271.8 657.1,260.4 656.9,267.7 654.2,264.6 656.9,269.1 656.5,280.6 
		654.1,279 652,275.2 652.8,278.2 648.6,275.4 656.5,282.2 655.3,319.9 658.5,319.9 657.8,290 658.6,289.5 	"/>
	<path class="st0" d="M41.1,272.3c0,12.4-6.9,13.3-15.5,13.3s-15.5-0.9-15.5-13.3c0-12.4,6.9-38.2,15.5-38.2S41.1,259.9,41.1,272.3z
		"/>
	<path class="st5" d="M41.1,272.3c0,12.4-6.9,13.3-15.5,13.3s-15.5-0.9-15.5-13.3c0-12.4,6.9-38.2,15.5-38.2S41.1,259.9,41.1,272.3z
		"/>
	<polygon class="st3" points="30.9,277.9 28.3,278.1 35,273.6 30.2,276 30.9,274.1 28.7,276.8 26.1,278.1 25.9,269.2 27.3,265.9 
		25.9,267.7 25.8,262.6 30,256.9 25.7,261.3 25.5,250 25.2,257.2 22.5,254.2 25.2,258.6 24.8,270.1 22.5,268.6 20.3,264.7 
		21.2,267.7 16.9,264.9 24.8,271.7 23.6,309.4 26.8,309.4 26.2,279.5 26.9,279 	"/>
	<path class="st0" d="M118,244.2c-23.9-0.1-43.3,19.2-43.4,43.1c0,10.6,3.9,20.8,11,28.7c5.1-0.7,10.3-0.3,15.2,1.4
		c5.5,1.8,10.5,4.8,14.8,8.6h3.9c4.3-3.9,9.3-6.8,14.8-8.6c5.1-1.7,10.6-2.2,16-1.3c7.2-7.9,11.2-18.2,11.1-28.8
		C161.2,263.4,141.8,244.2,118,244.2C118,244.2,118,244.2,118,244.2z"/>
	<path class="st6" d="M118,244.2c-23.9-0.1-43.3,19.2-43.4,43.1c0,10.6,3.9,20.8,11,28.7c5.1-0.7,10.3-0.3,15.2,1.4
		c5.5,1.8,10.5,4.8,14.8,8.6h3.9c4.3-3.9,9.3-6.8,14.8-8.6c5.1-1.7,10.6-2.2,16-1.3c7.2-7.9,11.2-18.2,11.1-28.8
		C161.2,263.4,141.8,244.2,118,244.2C118,244.2,118,244.2,118,244.2z"/>
	<path class="st3" d="M138.1,304.6c-1.3,0.6-2.6,1.3-4,2c-1.3,0.7-2.6,1.5-3.8,2.3c-0.4,0.3-0.9,0.6-1.3,1l7.1-13.2l-9.7,15.3
		c-1,0.8-2,1.6-2.9,2.4c-1.6,1.4-3.1,2.8-4.6,4.2l-0.5-14.4l10.2-15.5L118.3,302l-0.4-12.9l-0.7,14.4l0,0l-0.7,14.4
		c-1.3-1.2-2.6-2.4-4-3.6c-1.1-0.9-2.2-1.8-3.3-2.7l-9.2-15.8l6.8,13.9c-0.4-0.3-0.8-0.6-1.2-0.8c-1.2-0.9-2.5-1.6-3.8-2.3
		c-1.3-0.7-2.6-1.4-4-2c-2.7-1.3-5.4-2.5-8.2-3.5c2.7,1.2,5.3,2.5,7.9,3.9c1.3,0.7,2.5,1.5,3.8,2.2c1.2,0.8,2.4,1.6,3.5,2.5
		c2.2,1.8,4.3,3.7,6.4,5.7c1.8,1.8,3.5,3.6,5.1,5.4l-0.9,18.3h4.3l-0.6-17.5c1.8-2.1,3.8-4.1,5.8-6.1c2-2,4.1-3.9,6.4-5.7
		c1.1-0.9,2.3-1.7,3.5-2.5c1.2-0.8,2.5-1.5,3.8-2.2c2.6-1.5,5.2-2.8,7.9-3.9C143.5,302.1,140.8,303.3,138.1,304.6z"/>
	<path class="st3" d="M238.3,372.7v-39.7h-51.6v-25.4l44.3-105h37.8v105.6h16.4V333h-16.4v39.7L238.3,372.7z M212.3,308.3h26v-72.2
		L212.3,308.3z"/>
	<path class="st3" d="M346,372.8c-10.2,0-18.7-2.1-25.4-6.3c-6.7-4.1-11.9-10.2-15.1-17.3c-3.3-7.3-5-15.8-5-25.5v-76.2
		c0-9.9,1.6-18.7,4.8-26.1c3-7.3,8.2-13.4,14.9-17.5c6.7-4.2,15.3-6.3,25.8-6.3c10.4,0,18.9,2.1,25.5,6.3
		c6.6,4.2,11.8,10.3,14.8,17.5c3.2,7.5,4.8,16.2,4.8,26.1v76.2c0,9.7-1.7,18.2-5,25.5c-3.2,7.2-8.5,13.2-15.2,17.3
		C364.2,370.7,355.9,372.8,346,372.8z M346,344.3c3.8,0,6.5-1.2,8.2-3.6c1.7-2.5,2.9-5.4,3.4-8.5c0.5-3,0.8-6.1,0.8-9.1v-74.9
		c0-3.2-0.3-6.5-0.7-9.7c-0.4-3.1-1.5-6.1-3.3-8.7c-1.7-2.5-4.5-3.7-8.4-3.7c-3.9,0-6.8,1.2-8.5,3.7c-1.8,2.6-3,5.6-3.4,8.7
		c-0.5,3.2-0.7,6.4-0.7,9.7v74.9c0,3.1,0.3,6.1,0.8,9.1c0.5,3.1,1.7,6,3.6,8.5C339.6,343.1,342.3,344.3,346,344.3z"/>
	<path class="st3" d="M460.4,372.7v-39.7h-51.6v-25.4l44.3-105h37.8v105.6h16.4V333h-16.4v39.7L460.4,372.7z M434.4,308.3h26v-72.2
		L434.4,308.3z"/>
	<path class="st2" d="M678.4,299.3c-68.8,38.1-190.4,63.5-328.9,63.5c-153.2,0-285.6-31-348.9-76"/>
	<path class="st2" d="M692.9,290.5c-2.9,1.9-6,3.9-9.2,5.7"/>
	<path class="st0" d="M650.8,280.7c0,25.3-14.2,27.2-31.7,27.2s-31.7-1.9-31.7-27.2s14.2-78.1,31.7-78.1S650.8,255.5,650.8,280.7z"
		/>
	<polygon class="st3" points="629.9,292.2 624.6,292.6 638.3,283.4 628.5,288.3 629.9,284.5 625.4,289.9 620.2,292.5 619.8,274.4 
		622.5,267.6 619.7,271.4 619.5,260.9 628.1,249.3 619.4,258.3 618.9,235.1 618.4,249.9 612.8,243.7 618.3,252.8 617.6,276.3 
		612.7,273.1 608.3,265.3 610.1,271.4 601.4,265.7 617.5,279.6 615,356.6 621.6,356.6 620.2,295.5 621.8,294.5 	"/>
	<path class="st3" d="M617,357.3c0,0-11.7-12.1-8.4-11.7s9.4,9.4,9.4,9.4s0.1-20,3-15.6s-0.7,15.7-0.7,15.7s8.3-13,8.3-10.9
		c-0.1,6.6-6.4,11.7-6.4,11.7s13.3-9.9,11.2-5.9s-10.7,7.8-10.7,7.8s15.4-3.1,9.9-0.9s-10.7,3.7-10.7,3.7h-4.3c0,0-14.5-7.3-9.1-6.2
		C611.6,354.9,614.4,355.9,617,357.3z"/>
	<path class="st3" d="M57.2,342.3c0,0-10.1-10.5-7.2-10.2s8.1,8.1,8.1,8.1s0.1-17.3,2.6-13.5s-0.6,13.6-0.6,13.6s7.2-11.3,7.2-9.4
		c0,5.7-5.5,10.1-5.5,10.1s11.5-8.5,9.6-5.1s-9.3,6.8-9.3,6.8s13.3-2.7,8.6-0.8s-9.2,3.2-9.2,3.2h-3.7c0,0-12.6-6.3-7.8-5.4
		C52.5,340.2,54.9,341.1,57.2,342.3z"/>
	<path class="st0" d="M93.7,266.9c0,25.3-14.2,27.2-31.7,27.2s-31.7-1.9-31.7-27.2s14.2-78.2,31.7-78.2S93.7,241.7,93.7,266.9z"/>
	<polygon class="st3" points="72.7,278.4 67.5,278.8 81.1,269.6 71.4,274.5 72.7,270.7 68.3,276.1 63,278.7 62.6,260.6 65.4,253.9 
		62.6,257.6 62.3,247.1 71,235.5 62.3,244.5 61.7,221.3 61.3,236.1 55.7,229.9 61.2,239 60.4,262.5 55.6,259.3 51.2,251.5 
		52.9,257.6 44.3,251.9 60.3,265.8 57.9,342.9 64.5,342.9 63.1,281.8 64.6,280.7 	"/>
	<path class="st3" d="M167.8,368.6c0,0-10.1-10.5-7.3-10.2s8.1,8.1,8.1,8.1s0.1-17.3,2.6-13.5s-0.6,13.5-0.6,13.5s7.2-11.3,7.2-9.4
		c-0.1,5.7-5.6,10.1-5.6,10.1s11.6-8.5,9.7-5.1s-9.3,6.8-9.3,6.8s13.3-2.7,8.6-0.8s-9.2,3.2-9.2,3.2h-3.7c0,0-12.6-6.3-7.8-5.4
		C163.1,366.5,165.6,367.4,167.8,368.6z"/>
	<path class="st3" d="M221.5,391.6c0,0-10.1-10.5-7.3-10.2s8.1,8.1,8.1,8.1s0.1-17.3,2.6-13.5s-0.6,13.5-0.6,13.5s7.2-11.3,7.2-9.4
		c-0.1,5.7-5.6,10.1-5.6,10.1s11.6-8.5,9.7-5.1s-9.3,6.8-9.3,6.8s13.3-2.7,8.6-0.8s-9.2,3.2-9.2,3.2h-3.7c0,0-12.6-6.3-7.8-5.4
		C216.8,389.5,219.2,390.3,221.5,391.6z"/>
	<path class="st3" d="M365.4,376.1c0,0-7.3-7.6-5.2-7.3s5.9,5.9,5.9,5.9s0-12.5,1.9-9.7s-0.4,9.8-0.4,9.8s5.2-8.1,5.2-6.8
		c0,4.1-4,7.3-4,7.3s8.3-6.2,7-3.7s-6.7,4.9-6.7,4.9s9.6-1.9,6.2-0.6s-6.7,2.3-6.7,2.3h-2.6c0,0-9.1-4.5-5.7-3.9
		C362,374.6,363.8,375.3,365.4,376.1z"/>
	<path class="st3" d="M648.4,358.1c0,0-5.7-5.9-4.1-5.7s4.6,4.6,4.6,4.6s0-9.7,1.5-7.6s-0.3,7.6-0.3,7.6s4-6.3,4-5.3
		c0,3.2-3.1,5.7-3.1,5.7s6.5-4.8,5.4-2.9s-5.2,3.8-5.2,3.8s7.5-1.5,4.8-0.5s-5.2,1.8-5.2,1.8h-2.1c0,0-7-3.5-4.4-3
		C645.8,356.9,647.2,357.4,648.4,358.1z"/>
	<path class="st0" d="M266.4,376.2c0,0-10.1-10.5-7.3-10.2s8.1,8.1,8.1,8.1s0.1-17.3,2.6-13.5s-0.6,13.5-0.6,13.5s7.2-11.3,7.2-9.4
		c0,5.7-5.5,10.1-5.5,10.1s11.5-8.5,9.6-5.1s-9.3,6.8-9.3,6.8s13.3-2.7,8.6-0.8s-9.2,3.2-9.2,3.2H267c0,0-12.6-6.3-7.8-5.4
		C261.7,374.1,264.1,375,266.4,376.2z"/>
	<path class="st0" d="M193.4,369.2c0,0-6.8-7-4.9-6.8s5.4,5.5,5.4,5.5s0.1-11.6,1.7-9s-0.4,9.1-0.4,9.1s4.8-7.5,4.8-6.3
		c0,3.8-3.7,6.8-3.7,6.8s7.7-5.7,6.5-3.4s-6.2,4.5-6.2,4.5s8.9-1.8,5.8-0.5s-6.2,2.1-6.2,2.1h-2.5c0,0-8.4-4.2-5.3-3.6
		C190.2,367.9,191.9,368.4,193.4,369.2z"/>
	<path class="st0" d="M108.7,396.9c0,0-6.8-7-4.9-6.8s5.5,5.5,5.5,5.5s0-11.6,1.7-9s-0.4,9.1-0.4,9.1s4.8-7.5,4.8-6.3
		c0,3.8-3.7,6.8-3.7,6.8s7.8-5.7,6.5-3.4s-6.2,4.5-6.2,4.5s8.9-1.8,5.8-0.5s-6.2,2.1-6.2,2.1h-2.5c0,0-8.4-4.2-5.3-3.6
		C105.5,395.6,107.2,396.1,108.7,396.9z"/>
	<path class="st0" d="M335.5,398.3c0,0-6.8-7-4.9-6.8s5.5,5.5,5.5,5.5s0-11.6,1.7-9s-0.4,9.1-0.4,9.1s4.8-7.5,4.8-6.3
		c0,3.8-3.7,6.8-3.7,6.8s7.7-5.7,6.5-3.4s-6.2,4.5-6.2,4.5s8.9-1.8,5.8-0.5s-6.2,2.1-6.2,2.1h-2.5c0,0-8.4-4.2-5.3-3.6
		C332.3,397,334,397.5,335.5,398.3z"/>
	<path class="st0" d="M445.4,398.7c0,0-6.8-7-4.9-6.8s5.5,5.5,5.5,5.5s0-11.6,1.7-9s-0.4,9.1-0.4,9.1s4.8-7.5,4.8-6.3
		c0,3.8-3.7,6.8-3.7,6.8s7.8-5.7,6.5-3.4s-6.2,4.5-6.2,4.5s8.9-1.8,5.8-0.5s-6.2,2.1-6.2,2.1h-2.5c0,0-8.4-4.2-5.3-3.6
		C442.3,397.3,443.9,397.9,445.4,398.7z"/>
	<path class="st0" d="M650,376.7c0,0-10.3-10.7-7.4-10.4s8.3,8.3,8.3,8.3s0.1-17.6,2.7-13.8s-0.6,13.8-0.6,13.8s7.4-11.5,7.3-9.6
		c0,5.8-5.7,10.3-5.7,10.3s11.8-8.7,9.8-5.2s-9.5,6.9-9.5,6.9s13.6-2.7,8.8-0.8s-9.4,3.3-9.4,3.3h-3.8c0,0-12.8-6.4-8-5.5
		C645.2,374.6,647.7,375.5,650,376.7z"/>
	<path class="st0" d="M35,376.7c0,0-10.3-10.7-7.4-10.4s8.3,8.3,8.3,8.3s0.1-17.6,2.7-13.8S38,374.7,38,374.7s7.4-11.5,7.3-9.6
		c0,5.8-5.7,10.3-5.7,10.3s11.8-8.7,9.8-5.2s-9.5,6.9-9.5,6.9s13.6-2.7,8.8-0.8s-9.4,3.3-9.4,3.3h-3.7c0,0-12.8-6.4-8-5.5
		C30.2,374.6,32.7,375.5,35,376.7z"/>
	<path class="st0" d="M85.9,361.6c0,0-10.6-18.2-7.6-19.6s9.2,12.5,9.2,12.5s-1.2-26.1,1.6-23.7s5.4,20.9,5.4,20.9
		s5.6-20.1,7.4-15.9s-1.4,17-1.4,17s8.1-15.4,8.9-10.4s-3.8,13.3-3.8,13.3s10.7-10.6,11.4-6.4s-2.8,8.4-2.8,8.4s14.1-7.6,10.6-3.4
		c-3.4,4.2-8.4,9.6-8.4,9.6s13.5-4.8,11.9-2c-1.6,2.8-7.6,5.8-7.6,5.8s11-2,9.8-0.2c-1.1,1.4-2.5,2.6-4,3.6h-50c0,0-13.3-4.8-8-5.2
		c3.4-0.1,6.8,0.5,10,1.8c0,0-16.3-11.1-8.6-11.9s13.9,8.8,13.9,8.8s-10.8-15.3-7-12.9L85.9,361.6z"/>
	<path class="st7" d="M86.6,366.8c0,0-13.6-14.1-9.8-13.7s11,11,11,11s0.1-23.3,3.5-18.2s-0.8,18.3-0.8,18.3s9.7-15.2,9.7-12.7
		c-0.1,7.7-7.5,13.7-7.5,13.7s15.6-11.5,13-6.9s-12.5,9.1-12.5,9.1s18-3.6,11.6-1.1s-12.4,4.3-12.4,4.3h-5c0,0-17-8.5-10.6-7.2
		C80.2,364,83.5,365.1,86.6,366.8z"/>
	<path class="st0" d="M535.6,393.7c0,0-20-34.4-14.3-37.1s17.5,23.5,17.5,23.5s-2.3-49.4,3-44.8s10.3,39.5,10.3,39.5s10.6-38,14-30
		s-2.7,32.1-2.7,32.1s15.3-29.1,16.8-19.6s-7.2,25.1-7.2,25.1s20.1-20.1,21.6-12.1s-5.3,15.9-5.3,15.9s26.6-14.4,20.1-6.5
		s-15.9,18.2-15.9,18.2s25.4-9.1,22.4-3.8s-14.4,11-14.4,11s20.9-3.8,18.6-0.4s-7.6,6.8-7.6,6.8H518c0,0-25-9-15.2-9.8
		c9.9-0.8,19,3.4,19,3.4s-30.7-20.9-16.3-22.4c14.4-1.5,26.2,16.7,26.2,16.7s-20.5-28.9-13.3-24.3L535.6,393.7z"/>
	<path class="st7" d="M537,403.5c0,0-25.8-26.7-18.5-25.9c7.2,0.8,20.8,20.8,20.8,20.8s0.2-44,6.6-34.4s-1.5,34.6-1.5,34.6
		s18.4-28.7,18.3-24c-0.1,14.5-14.2,25.8-14.2,25.8s29.4-21.8,24.6-13s-23.6,17.2-23.6,17.2s33.9-6.8,21.9-2s-23.5,8.1-23.5,8.1
		h-9.4c0,0-32-16.1-20-13.7C530.5,399.4,537,403.5,537,403.5z"/>
	<path class="st8" d="M120.3,362.7c0,0,2-1.8,3.8-1.8s7.1,2.6,7.1,2.6s2.1,3.3,2.3,3.5s2.8,1.3,3,1.8s0.6,2,0.6,2h-16.3l-3-7.9
		L120.3,362.7z"/>
	<path class="st3" d="M124.1,360.8l-0.1,1.5c0,0,4.2,2.4,4.1,3.3c-0.2,1-0.6,2-1,2.9l2.1,2.2h-11.3l0.9-6.7
		C118.7,364.1,121.2,360.6,124.1,360.8z"/>
	<path class="st8" d="M99,361.7c0,0,8.2-12.3,10-12.5c2.9,0.1,5.5,1.5,7.2,3.9c1.2,2.5,2.2,5.1,2.9,7.8c0.1,0.3,0.5,0.5,2.7,4.1
		s2.1,5.6,2.1,5.6H92.4c0.4-1.8,1-3.5,1.8-5.1c1-1.2,2.4-2.1,3.9-2.5L99,361.7z"/>
	<path class="st3" d="M111.5,370.4c0,0-0.9-2.1-1-2.4s-0.1-3.1-0.4-4.3c-0.7-1.7-1.6-3.3-2.7-4.8l1.8-5.1l-0.9-0.7l1.4-3.6l-0.8-0.4
		c-1.9,0.4-10,12.4-10,12.4l-0.9,1.4c-1.5,0.4-2.9,1.3-3.9,2.5c-0.8,1.5-1.4,3.2-1.8,4.9L111.5,370.4z"/>
	<path class="st8" d="M435.3,365.7c0.7-0.6,1.5-1,2.4-1.2c1.1,0,4.5,1.6,4.5,1.6s1.3,2.1,1.5,2.2s1.8,0.8,1.9,1.1s0.4,1.2,0.4,1.2
		h-10.2l-1.9-5L435.3,365.7z"/>
	<path class="st3" d="M437.7,364.5l-0.1,1c0,0,2.6,1.5,2.6,2.1c-0.1,0.6-0.3,1.2-0.6,1.8l1.3,1.4h-7.1l0.5-4.2
		C434.3,366.6,435.8,364.4,437.7,364.5z"/>
	<path class="st8" d="M422,365.1c0,0,5.1-7.7,6.3-7.8c1.8,0,3.5,1,4.5,2.4c0.8,1.6,1.4,3.2,1.8,4.9c0.1,0.2,0.3,0.3,1.7,2.6
		c0.8,1,1.2,2.3,1.3,3.5h-19.8c0.2-1.1,0.6-2.2,1.2-3.2c0.6-0.8,1.5-1.3,2.4-1.6L422,365.1z"/>
	<path class="st3" d="M429.8,370.6c0,0-0.5-1.3-0.6-1.5s-0.1-2-0.2-2.7c-0.5-1.1-1-2.1-1.7-3l1.1-3.2l-0.5-0.4l0.9-2.3l-0.5-0.2
		c-1.2,0.2-6.3,7.8-6.3,7.8l-0.5,0.9c-1,0.2-1.8,0.8-2.4,1.6c-0.5,1-0.9,2-1.1,3L429.8,370.6z"/>
	<path class="st8" d="M600.7,395.6c0,0,3.9-3.5,7.2-3.5s13.4,4.9,13.4,4.9s4,6.2,4.4,6.6s5.3,2.5,5.7,3.4s1.1,3.7,1.1,3.7h-30.9
		l-5.7-15L600.7,395.6z"/>
	<path class="st3" d="M607.8,392.1l-0.2,2.9c0,0,7.9,4.6,7.7,6.3c-0.4,1.9-1.1,3.7-1.8,5.5l4,4.2h-21.5l1.7-12.7
		C597.7,398.4,602.3,391.8,607.8,392.1z"/>
	<path class="st8" d="M560.4,393.8c0,0,15.4-23.2,18.9-23.5s10.8,2.6,13.6,7.4s5.3,14.1,5.5,14.7s0.9,0.9,5.1,7.7s4,10.7,4,10.7H548
		c0,0,1.3-6.1,3.5-9.5s7.3-4.8,7.3-4.8L560.4,393.8z"/>
	<path class="st3" d="M584.1,410.3c0,0-1.7-4-1.8-4.6s-0.2-5.9-0.7-8.1s-5.2-9-5.2-9l3.3-9.5l-1.7-1.3l2.8-6.8l-1.5-0.7
		c-3.6,0.6-18.9,23.5-18.9,23.5l-1.7,2.6c0,0-5.2,1.3-7.3,4.8c-1.9,3-3.1,7.8-3.4,9.2L584.1,410.3z"/>
</g>
</svg>
