<svg xmlns="http://www.w3.org/2000/svg" viewBox="0 0 595.28 726.24"><defs><style>.cls-1{fill:#2572b8;}</style></defs><g id="Camada_2" data-name="Camada 2"><g id="Camada_1-2" data-name="Camada 1"><path class="cls-1" d="M594,673.36a4.38,4.38,0,1,1-6.2,6.2l-30.41-30.41a4.38,4.38,0,0,0-6.21,0l-30.41,30.41a4.21,4.21,0,0,1-1.4.92.45.45,0,0,1-.12.06,4,4,0,0,1-.49.16,4.3,4.3,0,0,1-.66.12,2.9,2.9,0,0,1-.43,0l-.5,0-.44-.07a4.31,4.31,0,0,1-2.23-1.19l-30.41-30.41a4.37,4.37,0,0,0-6.2,0l-30.41,30.41-.22.2,0,0-.27.22-.21.14-.3.18a2.64,2.64,0,0,1-.38.18,4.91,4.91,0,0,1-.5.17l-.33.08a4,4,0,0,1-.86.09,4.17,4.17,0,0,1-.88-.09l-.33-.08a2.58,2.58,0,0,1-.49-.17,2.64,2.64,0,0,1-.38-.18,3.14,3.14,0,0,1-.31-.18l-.19-.13a3.61,3.61,0,0,1-.3-.25,1.64,1.64,0,0,1-.24-.21l-30.41-30.41a4.38,4.38,0,0,0-6.21,0L374.2,679.56a4.21,4.21,0,0,1-1.4.92.45.45,0,0,1-.12.06,4.66,4.66,0,0,1-.49.16,4.4,4.4,0,0,1-.65.12,3.15,3.15,0,0,1-.44,0l-.5,0-.44-.07a4.31,4.31,0,0,1-2.23-1.19l-30.41-30.41a4.37,4.37,0,0,0-6.2,0l-30.41,30.41a4.4,4.4,0,0,1-3.1,1.29h-.34a4.44,4.44,0,0,1-3.11-1.29L264,649.15a4.38,4.38,0,0,0-6.21,0l-30.41,30.41a4.21,4.21,0,0,1-1.4.92l-.12.06a4,4,0,0,1-.49.16,4.54,4.54,0,0,1-.66.12,2.9,2.9,0,0,1-.43,0l-.5,0-.44-.07a4.27,4.27,0,0,1-2.23-1.19l-30.41-30.41a4.38,4.38,0,0,0-6.21,0l-30.4,30.41-.22.2,0,0-.27.22-.21.14-.3.18a2.64,2.64,0,0,1-.38.18,4.91,4.91,0,0,1-.5.17l-.33.08a4,4,0,0,1-.86.09,4.17,4.17,0,0,1-.88-.09l-.33-.08a2.58,2.58,0,0,1-.49-.17,2.64,2.64,0,0,1-.38-.18,3.14,3.14,0,0,1-.31-.18l-.19-.13a3.61,3.61,0,0,1-.3-.25,2.52,2.52,0,0,1-.25-.21l-30.4-30.41a4.38,4.38,0,0,0-6.21,0L80.79,679.56a4.21,4.21,0,0,1-1.4.92.45.45,0,0,1-.12.06,4.66,4.66,0,0,1-.49.16,4.3,4.3,0,0,1-.66.12,2.9,2.9,0,0,1-.43,0l-.5,0-.44-.07a4.31,4.31,0,0,1-2.23-1.19L44.11,649.15a4.37,4.37,0,0,0-6.2,0L7.5,679.56A4.39,4.39,0,0,1,0,676.43a4.28,4.28,0,0,1,1.29-3.07l36.62-36.62a4.39,4.39,0,0,1,6.2,0l33.55,33.55,33.54-33.55a4.4,4.4,0,0,1,6.21,0l33.53,33.53,33.51-33.53a4.4,4.4,0,0,1,6.21,0l33.55,33.55,33.54-33.55a4.4,4.4,0,0,1,6.21,0l33.68,33.69,33.68-33.69a4.39,4.39,0,0,1,6.2,0l33.55,33.55,33.54-33.55a4.4,4.4,0,0,1,6.21,0l33.53,33.53,33.52-33.53a4.39,4.39,0,0,1,6.2,0l33.55,33.55,33.54-33.55a4.4,4.4,0,0,1,6.21,0Z"/><path class="cls-1" d="M594,628a4.38,4.38,0,1,1-6.2,6.2l-30.41-30.41a4.38,4.38,0,0,0-6.21,0l-30.41,30.41a4.21,4.21,0,0,1-1.4.92.45.45,0,0,1-.12.06,4,4,0,0,1-.49.16,4.3,4.3,0,0,1-.66.12,2.9,2.9,0,0,1-.43,0l-.5,0-.44-.07a4.31,4.31,0,0,1-2.23-1.19l-30.41-30.41a4.37,4.37,0,0,0-6.2,0l-30.41,30.41-.22.2,0,0-.27.22-.21.14-.3.18a2.64,2.64,0,0,1-.38.18,4.91,4.91,0,0,1-.5.17l-.33.08a4,4,0,0,1-.86.09,4.17,4.17,0,0,1-.88-.09l-.33-.08a2.58,2.58,0,0,1-.49-.17,2.64,2.64,0,0,1-.38-.18,3.14,3.14,0,0,1-.31-.18l-.19-.13a3.61,3.61,0,0,1-.3-.25,1.64,1.64,0,0,1-.24-.21l-30.41-30.41a4.38,4.38,0,0,0-6.21,0L374.2,634.17a4.21,4.21,0,0,1-1.4.92.45.45,0,0,1-.12.06,4.66,4.66,0,0,1-.49.16,4.4,4.4,0,0,1-.65.12,3.15,3.15,0,0,1-.44,0l-.5,0-.44-.07a4.31,4.31,0,0,1-2.23-1.19l-30.41-30.41a4.37,4.37,0,0,0-6.2,0l-30.41,30.41a4.4,4.4,0,0,1-3.1,1.29h-.34a4.44,4.44,0,0,1-3.11-1.29L264,603.76a4.38,4.38,0,0,0-6.21,0l-30.41,30.41a4.21,4.21,0,0,1-1.4.92l-.12.06a4,4,0,0,1-.49.16,4.54,4.54,0,0,1-.66.12,2.9,2.9,0,0,1-.43,0l-.5,0-.44-.07a4.27,4.27,0,0,1-2.23-1.19l-30.41-30.41a4.38,4.38,0,0,0-6.21,0l-30.4,30.41-.22.2,0,0-.27.22-.21.14-.3.18a2.64,2.64,0,0,1-.38.18,4.91,4.91,0,0,1-.5.17l-.33.08a4,4,0,0,1-.86.09,4.17,4.17,0,0,1-.88-.09l-.33-.08a2.58,2.58,0,0,1-.49-.17,2.64,2.64,0,0,1-.38-.18,3.14,3.14,0,0,1-.31-.18l-.19-.13a3.61,3.61,0,0,1-.3-.25,2.52,2.52,0,0,1-.25-.21l-30.4-30.41a4.38,4.38,0,0,0-6.21,0L80.79,634.17a4.21,4.21,0,0,1-1.4.92.45.45,0,0,1-.12.06,4.66,4.66,0,0,1-.49.16,4.3,4.3,0,0,1-.66.12,2.9,2.9,0,0,1-.43,0l-.5,0-.44-.07a4.31,4.31,0,0,1-2.23-1.19L44.11,603.76a4.37,4.37,0,0,0-6.2,0L7.5,634.17A4.39,4.39,0,0,1,0,631,4.28,4.28,0,0,1,1.29,628l36.62-36.62a4.39,4.39,0,0,1,6.2,0L77.66,624.9l33.54-33.55a4.4,4.4,0,0,1,6.21,0l33.53,33.53,33.51-33.53a4.4,4.4,0,0,1,6.21,0l33.55,33.55,33.54-33.55a4.4,4.4,0,0,1,6.21,0L297.64,625l33.68-33.69a4.39,4.39,0,0,1,6.2,0l33.55,33.55,33.54-33.55a4.4,4.4,0,0,1,6.21,0l33.53,33.53,33.52-33.53a4.39,4.39,0,0,1,6.2,0l33.55,33.55,33.54-33.55a4.4,4.4,0,0,1,6.21,0Z"/><path class="cls-1" d="M594,582.58a4.38,4.38,0,1,1-6.2,6.2l-30.41-30.41a4.38,4.38,0,0,0-6.21,0l-30.41,30.41a4.21,4.21,0,0,1-1.4.92.45.45,0,0,1-.12.06,4,4,0,0,1-.49.16,4.3,4.3,0,0,1-.66.12,2.9,2.9,0,0,1-.43,0l-.5,0-.44-.07a4.31,4.31,0,0,1-2.23-1.19l-30.41-30.41a4.37,4.37,0,0,0-6.2,0l-30.41,30.41-.22.2,0,0-.27.22-.21.14-.3.18a2.64,2.64,0,0,1-.38.18,4.91,4.91,0,0,1-.5.17l-.33.08a4,4,0,0,1-.86.09,4.17,4.17,0,0,1-.88-.09l-.33-.08a2.58,2.58,0,0,1-.49-.17,2.64,2.64,0,0,1-.38-.18,3.14,3.14,0,0,1-.31-.18l-.19-.13a3.61,3.61,0,0,1-.3-.25,1.64,1.64,0,0,1-.24-.21l-30.41-30.41a4.38,4.38,0,0,0-6.21,0L374.2,588.78a4.21,4.21,0,0,1-1.4.92.45.45,0,0,1-.12.06,4.66,4.66,0,0,1-.49.16,4.4,4.4,0,0,1-.65.12,3.15,3.15,0,0,1-.44,0l-.5,0-.44-.07a4.31,4.31,0,0,1-2.23-1.19l-30.41-30.41a4.37,4.37,0,0,0-6.2,0l-30.41,30.41a4.4,4.4,0,0,1-3.1,1.29h-.34a4.44,4.44,0,0,1-3.11-1.29L264,558.37a4.38,4.38,0,0,0-6.21,0l-30.41,30.41a4.21,4.21,0,0,1-1.4.92l-.12.06a4,4,0,0,1-.49.16,4.54,4.54,0,0,1-.66.12,2.9,2.9,0,0,1-.43,0l-.5,0-.44-.07a4.27,4.27,0,0,1-2.23-1.19l-30.41-30.41a4.38,4.38,0,0,0-6.21,0l-30.4,30.41-.22.2,0,0-.27.22-.21.14-.3.18a2.64,2.64,0,0,1-.38.18,4.91,4.91,0,0,1-.5.17l-.33.08a4,4,0,0,1-.86.09,4.17,4.17,0,0,1-.88-.09l-.33-.08a2.58,2.58,0,0,1-.49-.17,2.64,2.64,0,0,1-.38-.18,3.14,3.14,0,0,1-.31-.18l-.19-.13a3.61,3.61,0,0,1-.3-.25,2.52,2.52,0,0,1-.25-.21l-30.4-30.41a4.38,4.38,0,0,0-6.21,0L80.79,588.78a4.21,4.21,0,0,1-1.4.92.45.45,0,0,1-.12.06,4.66,4.66,0,0,1-.49.16,4.3,4.3,0,0,1-.66.12,2.9,2.9,0,0,1-.43,0l-.5,0-.44-.07a4.31,4.31,0,0,1-2.23-1.19L44.11,558.37a4.37,4.37,0,0,0-6.2,0L7.5,588.78A4.39,4.39,0,0,1,0,585.65a4.28,4.28,0,0,1,1.29-3.07L37.91,546a4.37,4.37,0,0,1,6.2,0l33.55,33.54L111.2,546a4.38,4.38,0,0,1,6.21,0l33.53,33.52L184.45,546a4.38,4.38,0,0,1,6.21,0l33.55,33.54L257.75,546a4.38,4.38,0,0,1,6.21,0l33.68,33.68L331.32,546a4.37,4.37,0,0,1,6.2,0l33.55,33.54L404.61,546a4.38,4.38,0,0,1,6.21,0l33.53,33.52L477.87,546a4.37,4.37,0,0,1,6.2,0l33.55,33.54L551.16,546a4.38,4.38,0,0,1,6.21,0Z"/><path class="cls-1" d="M594,537.19a4.38,4.38,0,1,1-6.2,6.2L557.37,513a4.38,4.38,0,0,0-6.21,0l-30.41,30.41a4.21,4.21,0,0,1-1.4.92.45.45,0,0,1-.12.06,4,4,0,0,1-.49.16,4.3,4.3,0,0,1-.66.12,2.9,2.9,0,0,1-.43,0l-.5,0-.44-.07a4.31,4.31,0,0,1-2.23-1.19L484.07,513a4.37,4.37,0,0,0-6.2,0l-30.41,30.41a2.09,2.09,0,0,1-.22.2l0,0-.27.22-.21.14a1.83,1.83,0,0,1-.3.18,2.64,2.64,0,0,1-.38.18,4.91,4.91,0,0,1-.5.17l-.33.08a4,4,0,0,1-.86.09,4.17,4.17,0,0,1-.88-.09l-.33-.08a2.58,2.58,0,0,1-.49-.17,2.64,2.64,0,0,1-.38-.18A1.92,1.92,0,0,1,442,544l-.19-.13a3.61,3.61,0,0,1-.3-.25,1.64,1.64,0,0,1-.24-.21L410.82,513a4.38,4.38,0,0,0-6.21,0L374.2,543.39a4.21,4.21,0,0,1-1.4.92.45.45,0,0,1-.12.06,4.66,4.66,0,0,1-.49.16,4.4,4.4,0,0,1-.65.12,3.15,3.15,0,0,1-.44,0l-.5,0-.44-.07a4.31,4.31,0,0,1-2.23-1.19L337.52,513a4.37,4.37,0,0,0-6.2,0l-30.41,30.41a4.4,4.4,0,0,1-3.1,1.29h-.34a4.44,4.44,0,0,1-3.11-1.29L264,513a4.38,4.38,0,0,0-6.21,0l-30.41,30.41a4.21,4.21,0,0,1-1.4.92.67.67,0,0,1-.12.06,4,4,0,0,1-.49.16,4.54,4.54,0,0,1-.66.12,2.9,2.9,0,0,1-.43,0l-.5,0-.44-.07a4.27,4.27,0,0,1-2.23-1.19L190.66,513a4.38,4.38,0,0,0-6.21,0l-30.4,30.41a2.09,2.09,0,0,1-.22.2l0,0-.27.22-.21.14a1.83,1.83,0,0,1-.3.18,2.64,2.64,0,0,1-.38.18,4.91,4.91,0,0,1-.5.17l-.33.08a4,4,0,0,1-.86.09,4.17,4.17,0,0,1-.88-.09l-.33-.08a2.58,2.58,0,0,1-.49-.17,2.64,2.64,0,0,1-.38-.18,1.92,1.92,0,0,1-.31-.18l-.19-.13a3.61,3.61,0,0,1-.3-.25,2.52,2.52,0,0,1-.25-.21L117.41,513a4.38,4.38,0,0,0-6.21,0L80.79,543.39a4.21,4.21,0,0,1-1.4.92.45.45,0,0,1-.12.06,4.66,4.66,0,0,1-.49.16,4.3,4.3,0,0,1-.66.12,2.9,2.9,0,0,1-.43,0l-.5,0-.44-.07a4.31,4.31,0,0,1-2.23-1.19L44.11,513a4.37,4.37,0,0,0-6.2,0L7.5,543.39A4.39,4.39,0,0,1,0,540.26a4.28,4.28,0,0,1,1.29-3.07l36.62-36.61a4.37,4.37,0,0,1,6.2,0l33.55,33.54,33.54-33.54a4.38,4.38,0,0,1,6.21,0l33.53,33.52,33.51-33.52a4.38,4.38,0,0,1,6.21,0l33.55,33.54,33.54-33.54a4.38,4.38,0,0,1,6.21,0l33.68,33.68,33.68-33.68a4.37,4.37,0,0,1,6.2,0l33.55,33.54,33.54-33.54a4.38,4.38,0,0,1,6.21,0l33.53,33.52,33.52-33.52a4.37,4.37,0,0,1,6.2,0l33.55,33.54,33.54-33.54a4.38,4.38,0,0,1,6.21,0Z"/><path class="cls-1" d="M594,718.75a4.38,4.38,0,1,1-6.2,6.2l-30.41-30.41a4.38,4.38,0,0,0-6.21,0L520.75,725a4.21,4.21,0,0,1-1.4.92.45.45,0,0,1-.12.06,4,4,0,0,1-.49.16,4.3,4.3,0,0,1-.66.12,2.9,2.9,0,0,1-.43,0l-.5,0-.44-.07a4.31,4.31,0,0,1-2.23-1.19l-30.41-30.41a4.37,4.37,0,0,0-6.2,0L447.46,725l-.22.2,0,0-.27.22-.21.14-.3.18a2.64,2.64,0,0,1-.38.18,4.91,4.91,0,0,1-.5.17l-.33.08a4,4,0,0,1-.86.09,4.17,4.17,0,0,1-.88-.09l-.33-.08a2.58,2.58,0,0,1-.49-.17,2.64,2.64,0,0,1-.38-.18,3.14,3.14,0,0,1-.31-.18l-.19-.13a3.61,3.61,0,0,1-.3-.25,1.64,1.64,0,0,1-.24-.21l-30.41-30.41a4.38,4.38,0,0,0-6.21,0L374.2,725a4.21,4.21,0,0,1-1.4.92.45.45,0,0,1-.12.06,4.66,4.66,0,0,1-.49.16,4.4,4.4,0,0,1-.65.12,3.15,3.15,0,0,1-.44,0l-.5,0-.44-.07a4.31,4.31,0,0,1-2.23-1.19l-30.41-30.41a4.37,4.37,0,0,0-6.2,0L300.91,725a4.4,4.4,0,0,1-3.1,1.29h-.34a4.44,4.44,0,0,1-3.11-1.29L264,694.54a4.38,4.38,0,0,0-6.21,0L227.34,725a4.21,4.21,0,0,1-1.4.92l-.12.06a4,4,0,0,1-.49.16,4.54,4.54,0,0,1-.66.12,2.9,2.9,0,0,1-.43,0l-.5,0-.44-.07a4.27,4.27,0,0,1-2.23-1.19l-30.41-30.41a4.38,4.38,0,0,0-6.21,0L154.05,725l-.22.2,0,0-.27.22-.21.14-.3.18a2.64,2.64,0,0,1-.38.18,4.91,4.91,0,0,1-.5.17l-.33.08a4,4,0,0,1-.86.09,4.17,4.17,0,0,1-.88-.09l-.33-.08a2.58,2.58,0,0,1-.49-.17,2.64,2.64,0,0,1-.38-.18,3.14,3.14,0,0,1-.31-.18l-.19-.13a3.61,3.61,0,0,1-.3-.25,2.52,2.52,0,0,1-.25-.21l-30.4-30.41a4.38,4.38,0,0,0-6.21,0L80.79,725a4.21,4.21,0,0,1-1.4.92.45.45,0,0,1-.12.06,4.66,4.66,0,0,1-.49.16,4.3,4.3,0,0,1-.66.12,2.9,2.9,0,0,1-.43,0l-.5,0-.44-.07A4.31,4.31,0,0,1,74.52,725L44.11,694.54a4.37,4.37,0,0,0-6.2,0L7.5,725A4.39,4.39,0,0,1,0,721.82a4.28,4.28,0,0,1,1.29-3.07l36.62-36.62a4.39,4.39,0,0,1,6.2,0l33.55,33.55,33.54-33.55a4.4,4.4,0,0,1,6.21,0l33.53,33.53,33.51-33.53a4.4,4.4,0,0,1,6.21,0l33.55,33.55,33.54-33.55a4.4,4.4,0,0,1,6.21,0l33.68,33.69,33.68-33.69a4.39,4.39,0,0,1,6.2,0l33.55,33.55,33.54-33.55a4.4,4.4,0,0,1,6.21,0l33.53,33.53,33.52-33.53a4.39,4.39,0,0,1,6.2,0l33.55,33.55,33.54-33.55a4.4,4.4,0,0,1,6.21,0Z"/><path class="cls-1" d="M594,355.63a4.38,4.38,0,1,1-6.2,6.2l-30.41-30.41a4.38,4.38,0,0,0-6.21,0l-30.41,30.41a4.21,4.21,0,0,1-1.4.92.45.45,0,0,1-.12.06,4,4,0,0,1-.49.16,4.3,4.3,0,0,1-.66.12,2.9,2.9,0,0,1-.43,0l-.5,0a2.89,2.89,0,0,1-.44-.07,4.31,4.31,0,0,1-2.23-1.19l-30.41-30.41a4.37,4.37,0,0,0-6.2,0l-30.41,30.41a2.09,2.09,0,0,1-.22.2l0,0-.27.22-.21.14a1.83,1.83,0,0,1-.3.18,2.64,2.64,0,0,1-.38.18,4.91,4.91,0,0,1-.5.17l-.33.08a4,4,0,0,1-.86.09,4.17,4.17,0,0,1-.88-.09l-.33-.08a2.58,2.58,0,0,1-.49-.17,2.64,2.64,0,0,1-.38-.18,1.92,1.92,0,0,1-.31-.18l-.19-.13a3.61,3.61,0,0,1-.3-.25,1.64,1.64,0,0,1-.24-.21l-30.41-30.41a4.38,4.38,0,0,0-6.21,0L374.2,361.83a4.21,4.21,0,0,1-1.4.92.45.45,0,0,1-.12.06,4.66,4.66,0,0,1-.49.16,4.4,4.4,0,0,1-.65.12,3.15,3.15,0,0,1-.44,0l-.5,0a2.89,2.89,0,0,1-.44-.07,4.31,4.31,0,0,1-2.23-1.19l-30.41-30.41a4.37,4.37,0,0,0-6.2,0l-30.41,30.41a4.4,4.4,0,0,1-3.1,1.29h-.34a4.44,4.44,0,0,1-3.11-1.29L264,331.42a4.38,4.38,0,0,0-6.21,0l-30.41,30.41a4.21,4.21,0,0,1-1.4.92l-.12.06a4,4,0,0,1-.49.16,4.54,4.54,0,0,1-.66.12,2.9,2.9,0,0,1-.43,0l-.5,0a2.7,2.7,0,0,1-.44-.07,4.27,4.27,0,0,1-2.23-1.19l-30.41-30.41a4.38,4.38,0,0,0-6.21,0l-30.4,30.41a2.09,2.09,0,0,1-.22.2l0,0-.27.22-.21.14a1.83,1.83,0,0,1-.3.18,2.64,2.64,0,0,1-.38.18,4.91,4.91,0,0,1-.5.17l-.33.08a4,4,0,0,1-.86.09,4.17,4.17,0,0,1-.88-.09l-.33-.08a2.58,2.58,0,0,1-.49-.17,2.64,2.64,0,0,1-.38-.18,1.92,1.92,0,0,1-.31-.18l-.19-.13a3.61,3.61,0,0,1-.3-.25,2.52,2.52,0,0,1-.25-.21l-30.4-30.41a4.38,4.38,0,0,0-6.21,0L80.79,361.83a4.21,4.21,0,0,1-1.4.92.45.45,0,0,1-.12.06,4.66,4.66,0,0,1-.49.16,4.3,4.3,0,0,1-.66.12,2.9,2.9,0,0,1-.43,0l-.5,0a2.7,2.7,0,0,1-.44-.07,4.31,4.31,0,0,1-2.23-1.19L44.11,331.42a4.37,4.37,0,0,0-6.2,0L7.5,361.83A4.39,4.39,0,0,1,0,358.7a4.28,4.28,0,0,1,1.29-3.07L37.91,319a4.37,4.37,0,0,1,6.2,0l33.55,33.54L111.2,319a4.38,4.38,0,0,1,6.21,0l33.53,33.52L184.45,319a4.38,4.38,0,0,1,6.21,0l33.55,33.54L257.75,319a4.38,4.38,0,0,1,6.21,0l33.68,33.68L331.32,319a4.37,4.37,0,0,1,6.2,0l33.55,33.54L404.61,319a4.38,4.38,0,0,1,6.21,0l33.53,33.52L477.87,319a4.37,4.37,0,0,1,6.2,0l33.55,33.54L551.16,319a4.38,4.38,0,0,1,6.21,0Z"/><path class="cls-1" d="M594,128.68a4.38,4.38,0,1,1-6.2,6.2l-30.41-30.41a4.38,4.38,0,0,0-6.21,0l-30.41,30.41a4.23,4.23,0,0,1-1.4.93l-.12.05a4,4,0,0,1-.49.16,4.3,4.3,0,0,1-.66.12,2.9,2.9,0,0,1-.43,0l-.5,0a2.89,2.89,0,0,1-.44-.07,4.31,4.31,0,0,1-2.23-1.19l-30.41-30.41a4.37,4.37,0,0,0-6.2,0l-30.41,30.41a2.09,2.09,0,0,1-.22.2l0,0-.27.22-.21.14a1.83,1.83,0,0,1-.3.18,2.64,2.64,0,0,1-.38.18,4.91,4.91,0,0,1-.5.17l-.33.08a4,4,0,0,1-.86.09,4.17,4.17,0,0,1-.88-.09l-.33-.08a2.58,2.58,0,0,1-.49-.17,2.64,2.64,0,0,1-.38-.18,1.92,1.92,0,0,1-.31-.18l-.19-.13a3.61,3.61,0,0,1-.3-.25,1.21,1.21,0,0,1-.24-.21l-30.41-30.41a4.38,4.38,0,0,0-6.21,0L374.2,134.88a4.23,4.23,0,0,1-1.4.93l-.12.05a4.66,4.66,0,0,1-.49.16,4.4,4.4,0,0,1-.65.12,3.15,3.15,0,0,1-.44,0l-.5,0a2.89,2.89,0,0,1-.44-.07,4.31,4.31,0,0,1-2.23-1.19l-30.41-30.41a4.37,4.37,0,0,0-6.2,0l-30.41,30.41a4.4,4.4,0,0,1-3.1,1.29h-.34a4.44,4.44,0,0,1-3.11-1.29L264,104.47a4.38,4.38,0,0,0-6.21,0l-30.41,30.41a4.23,4.23,0,0,1-1.4.93l-.12.05a4,4,0,0,1-.49.16,4.54,4.54,0,0,1-.66.12,2.9,2.9,0,0,1-.43,0l-.5,0a2.7,2.7,0,0,1-.44-.07,4.27,4.27,0,0,1-2.23-1.19l-30.41-30.41a4.38,4.38,0,0,0-6.21,0l-30.4,30.41a2.09,2.09,0,0,1-.22.2l0,0-.27.22-.21.14a1.83,1.83,0,0,1-.3.18,2.64,2.64,0,0,1-.38.18,4.91,4.91,0,0,1-.5.17l-.33.08a4,4,0,0,1-.86.09,4.17,4.17,0,0,1-.88-.09l-.33-.08a2.58,2.58,0,0,1-.49-.17,2.64,2.64,0,0,1-.38-.18,1.92,1.92,0,0,1-.31-.18l-.19-.13a3.61,3.61,0,0,1-.3-.25,1.64,1.64,0,0,1-.25-.21l-30.4-30.41a4.38,4.38,0,0,0-6.21,0L80.79,134.88a4.23,4.23,0,0,1-1.4.93l-.12.05a4.66,4.66,0,0,1-.49.16,4.3,4.3,0,0,1-.66.12,2.9,2.9,0,0,1-.43,0l-.5,0a2.7,2.7,0,0,1-.44-.07,4.31,4.31,0,0,1-2.23-1.19L44.11,104.47a4.37,4.37,0,0,0-6.2,0L7.5,134.88A4.39,4.39,0,0,1,0,131.75a4.3,4.3,0,0,1,1.29-3.07L37.91,92.07a4.37,4.37,0,0,1,6.2,0l33.55,33.54L111.2,92.07a4.38,4.38,0,0,1,6.21,0l33.53,33.52,33.51-33.52a4.38,4.38,0,0,1,6.21,0l33.55,33.54,33.54-33.54a4.38,4.38,0,0,1,6.21,0l33.68,33.68,33.68-33.68a4.37,4.37,0,0,1,6.2,0l33.55,33.54,33.54-33.54a4.38,4.38,0,0,1,6.21,0l33.53,33.52,33.52-33.52a4.37,4.37,0,0,1,6.2,0l33.55,33.54,33.54-33.54a4.38,4.38,0,0,1,6.21,0Z"/><path class="cls-1" d="M594,310.24a4.38,4.38,0,1,1-6.2,6.2L557.37,286a4.38,4.38,0,0,0-6.21,0l-30.41,30.41a4.21,4.21,0,0,1-1.4.92.45.45,0,0,1-.12.06,4,4,0,0,1-.49.16,4.3,4.3,0,0,1-.66.12,2.9,2.9,0,0,1-.43,0l-.5,0a2.89,2.89,0,0,1-.44-.07,4.31,4.31,0,0,1-2.23-1.19L484.07,286a4.37,4.37,0,0,0-6.2,0l-30.41,30.41a2.09,2.09,0,0,1-.22.2l0,0-.27.22-.21.14a1.83,1.83,0,0,1-.3.18,2.64,2.64,0,0,1-.38.18,4.91,4.91,0,0,1-.5.17l-.33.08a4,4,0,0,1-.86.09,4.17,4.17,0,0,1-.88-.09l-.33-.08a2.58,2.58,0,0,1-.49-.17,2.64,2.64,0,0,1-.38-.18A1.92,1.92,0,0,1,442,317l-.19-.13a3.61,3.61,0,0,1-.3-.25,1.21,1.21,0,0,1-.24-.21L410.82,286a4.38,4.38,0,0,0-6.21,0L374.2,316.44a4.21,4.21,0,0,1-1.4.92.45.45,0,0,1-.12.06,4.66,4.66,0,0,1-.49.16,4.4,4.4,0,0,1-.65.12,3.15,3.15,0,0,1-.44,0l-.5,0a2.89,2.89,0,0,1-.44-.07,4.31,4.31,0,0,1-2.23-1.19L337.52,286a4.37,4.37,0,0,0-6.2,0l-30.41,30.41a4.4,4.4,0,0,1-3.1,1.29h-.34a4.44,4.44,0,0,1-3.11-1.29L264,286a4.38,4.38,0,0,0-6.21,0l-30.41,30.41a4.21,4.21,0,0,1-1.4.92l-.12.06a4,4,0,0,1-.49.16,4.54,4.54,0,0,1-.66.12,2.9,2.9,0,0,1-.43,0l-.5,0a2.7,2.7,0,0,1-.44-.07,4.27,4.27,0,0,1-2.23-1.19L190.66,286a4.38,4.38,0,0,0-6.21,0l-30.4,30.41a2.09,2.09,0,0,1-.22.2l0,0-.27.22-.21.14a1.83,1.83,0,0,1-.3.18,2.64,2.64,0,0,1-.38.18,4.91,4.91,0,0,1-.5.17l-.33.08a4,4,0,0,1-.86.09,4.17,4.17,0,0,1-.88-.09l-.33-.08a2.58,2.58,0,0,1-.49-.17,2.64,2.64,0,0,1-.38-.18,1.92,1.92,0,0,1-.31-.18l-.19-.13a3.61,3.61,0,0,1-.3-.25,1.64,1.64,0,0,1-.25-.21L117.41,286a4.38,4.38,0,0,0-6.21,0L80.79,316.44a4.21,4.21,0,0,1-1.4.92.45.45,0,0,1-.12.06,4.66,4.66,0,0,1-.49.16,4.3,4.3,0,0,1-.66.12,2.9,2.9,0,0,1-.43,0l-.5,0a2.7,2.7,0,0,1-.44-.07,4.31,4.31,0,0,1-2.23-1.19L44.11,286a4.37,4.37,0,0,0-6.2,0L7.5,316.44A4.39,4.39,0,0,1,0,313.31a4.28,4.28,0,0,1,1.29-3.07l36.62-36.61a4.37,4.37,0,0,1,6.2,0l33.55,33.54,33.54-33.54a4.38,4.38,0,0,1,6.21,0l33.53,33.52,33.51-33.52a4.38,4.38,0,0,1,6.21,0l33.55,33.54,33.54-33.54a4.38,4.38,0,0,1,6.21,0l33.68,33.68,33.68-33.68a4.37,4.37,0,0,1,6.2,0l33.55,33.54,33.54-33.54a4.38,4.38,0,0,1,6.21,0l33.53,33.52,33.52-33.52a4.37,4.37,0,0,1,6.2,0l33.55,33.54,33.54-33.54a4.38,4.38,0,0,1,6.21,0Z"/><path class="cls-1" d="M594,174.07a4.38,4.38,0,1,1-6.2,6.2l-30.41-30.41a4.38,4.38,0,0,0-6.21,0l-30.41,30.41a4.21,4.21,0,0,1-1.4.92.45.45,0,0,1-.12.06,4,4,0,0,1-.49.16,4.3,4.3,0,0,1-.66.12,2.9,2.9,0,0,1-.43,0l-.5,0a2.89,2.89,0,0,1-.44-.07,4.31,4.31,0,0,1-2.23-1.19l-30.41-30.41a4.37,4.37,0,0,0-6.2,0l-30.41,30.41a2.09,2.09,0,0,1-.22.2l0,0-.27.22-.21.14a1.83,1.83,0,0,1-.3.18,2.64,2.64,0,0,1-.38.18,4.91,4.91,0,0,1-.5.17l-.33.08a4,4,0,0,1-.86.09,4.17,4.17,0,0,1-.88-.09l-.33-.08a2.58,2.58,0,0,1-.49-.17,2.64,2.64,0,0,1-.38-.18,1.92,1.92,0,0,1-.31-.18l-.19-.13a3.61,3.61,0,0,1-.3-.25,1.21,1.21,0,0,1-.24-.21l-30.41-30.41a4.38,4.38,0,0,0-6.21,0L374.2,180.27a4.21,4.21,0,0,1-1.4.92.45.45,0,0,1-.12.06,4.66,4.66,0,0,1-.49.16,4.4,4.4,0,0,1-.65.12,3.15,3.15,0,0,1-.44,0l-.5,0a2.89,2.89,0,0,1-.44-.07,4.31,4.31,0,0,1-2.23-1.19l-30.41-30.41a4.37,4.37,0,0,0-6.2,0l-30.41,30.41a4.4,4.4,0,0,1-3.1,1.29h-.34a4.44,4.44,0,0,1-3.11-1.29L264,149.86a4.38,4.38,0,0,0-6.21,0l-30.41,30.41a4.21,4.21,0,0,1-1.4.92.67.67,0,0,1-.12.06,4,4,0,0,1-.49.16,4.54,4.54,0,0,1-.66.12,2.9,2.9,0,0,1-.43,0l-.5,0a2.7,2.7,0,0,1-.44-.07,4.27,4.27,0,0,1-2.23-1.19l-30.41-30.41a4.38,4.38,0,0,0-6.21,0l-30.4,30.41a2.09,2.09,0,0,1-.22.2l0,0-.27.22-.21.14a1.83,1.83,0,0,1-.3.18,2.64,2.64,0,0,1-.38.18,4.91,4.91,0,0,1-.5.17l-.33.08a4,4,0,0,1-.86.09,4.17,4.17,0,0,1-.88-.09l-.33-.08a2.58,2.58,0,0,1-.49-.17,2.64,2.64,0,0,1-.38-.18,1.92,1.92,0,0,1-.31-.18l-.19-.13a3.61,3.61,0,0,1-.3-.25,1.64,1.64,0,0,1-.25-.21l-30.4-30.41a4.38,4.38,0,0,0-6.21,0L80.79,180.27a4.21,4.21,0,0,1-1.4.92.45.45,0,0,1-.12.06,4.66,4.66,0,0,1-.49.16,4.3,4.3,0,0,1-.66.12,2.9,2.9,0,0,1-.43,0l-.5,0a2.7,2.7,0,0,1-.44-.07,4.31,4.31,0,0,1-2.23-1.19L44.11,149.86a4.37,4.37,0,0,0-6.2,0L7.5,180.27A4.39,4.39,0,0,1,0,177.14a4.28,4.28,0,0,1,1.29-3.07l36.62-36.61a4.37,4.37,0,0,1,6.2,0L77.66,171l33.54-33.54a4.38,4.38,0,0,1,6.21,0L150.94,171l33.51-33.52a4.38,4.38,0,0,1,6.21,0L224.21,171l33.54-33.54a4.38,4.38,0,0,1,6.21,0l33.68,33.68,33.68-33.68a4.37,4.37,0,0,1,6.2,0L371.07,171l33.54-33.54a4.38,4.38,0,0,1,6.21,0L444.35,171l33.52-33.52a4.37,4.37,0,0,1,6.2,0L517.62,171l33.54-33.54a4.38,4.38,0,0,1,6.21,0Z"/><path class="cls-1" d="M594,219.46a4.38,4.38,0,1,1-6.2,6.2l-30.41-30.41a4.38,4.38,0,0,0-6.21,0l-30.41,30.41a4.21,4.21,0,0,1-1.4.92.45.45,0,0,1-.12.06,4,4,0,0,1-.49.16,4.3,4.3,0,0,1-.66.12,2.9,2.9,0,0,1-.43,0l-.5,0a2.89,2.89,0,0,1-.44-.07,4.31,4.31,0,0,1-2.23-1.19l-30.41-30.41a4.37,4.37,0,0,0-6.2,0l-30.41,30.41a2.09,2.09,0,0,1-.22.2l0,0-.27.22-.21.14a1.83,1.83,0,0,1-.3.18,2.64,2.64,0,0,1-.38.18,4.91,4.91,0,0,1-.5.17l-.33.08a4,4,0,0,1-.86.09,4.17,4.17,0,0,1-.88-.09l-.33-.08a2.58,2.58,0,0,1-.49-.17,2.64,2.64,0,0,1-.38-.18,1.92,1.92,0,0,1-.31-.18l-.19-.13a3.61,3.61,0,0,1-.3-.25,1.21,1.21,0,0,1-.24-.21l-30.41-30.41a4.38,4.38,0,0,0-6.21,0L374.2,225.66a4.21,4.21,0,0,1-1.4.92.45.45,0,0,1-.12.06,4.66,4.66,0,0,1-.49.16,4.4,4.4,0,0,1-.65.12,3.15,3.15,0,0,1-.44,0l-.5,0a2.89,2.89,0,0,1-.44-.07,4.31,4.31,0,0,1-2.23-1.19l-30.41-30.41a4.37,4.37,0,0,0-6.2,0l-30.41,30.41a4.4,4.4,0,0,1-3.1,1.29h-.34a4.44,4.44,0,0,1-3.11-1.29L264,195.25a4.38,4.38,0,0,0-6.21,0l-30.41,30.41a4.21,4.21,0,0,1-1.4.92.67.67,0,0,1-.12.06,4,4,0,0,1-.49.16,4.54,4.54,0,0,1-.66.12,2.9,2.9,0,0,1-.43,0l-.5,0a2.7,2.7,0,0,1-.44-.07,4.27,4.27,0,0,1-2.23-1.19l-30.41-30.41a4.38,4.38,0,0,0-6.21,0l-30.4,30.41a2.09,2.09,0,0,1-.22.2l0,0-.27.22-.21.14a1.83,1.83,0,0,1-.3.18,2.64,2.64,0,0,1-.38.18,4.91,4.91,0,0,1-.5.17l-.33.08a4,4,0,0,1-.86.09,4.17,4.17,0,0,1-.88-.09l-.33-.08a2.58,2.58,0,0,1-.49-.17,2.64,2.64,0,0,1-.38-.18,1.92,1.92,0,0,1-.31-.18l-.19-.13a3.61,3.61,0,0,1-.3-.25,1.64,1.64,0,0,1-.25-.21l-30.4-30.41a4.38,4.38,0,0,0-6.21,0L80.79,225.66a4.21,4.21,0,0,1-1.4.92.45.45,0,0,1-.12.06,4.66,4.66,0,0,1-.49.16,4.3,4.3,0,0,1-.66.12,2.9,2.9,0,0,1-.43,0l-.5,0a2.7,2.7,0,0,1-.44-.07,4.31,4.31,0,0,1-2.23-1.19L44.11,195.25a4.37,4.37,0,0,0-6.2,0L7.5,225.66A4.39,4.39,0,0,1,0,222.53a4.28,4.28,0,0,1,1.29-3.07l36.62-36.61a4.37,4.37,0,0,1,6.2,0l33.55,33.54,33.54-33.54a4.38,4.38,0,0,1,6.21,0l33.53,33.52,33.51-33.52a4.38,4.38,0,0,1,6.21,0l33.55,33.54,33.54-33.54a4.38,4.38,0,0,1,6.21,0l33.68,33.68,33.68-33.68a4.37,4.37,0,0,1,6.2,0l33.55,33.54,33.54-33.54a4.38,4.38,0,0,1,6.21,0l33.53,33.52,33.52-33.52a4.37,4.37,0,0,1,6.2,0l33.55,33.54,33.54-33.54a4.38,4.38,0,0,1,6.21,0Z"/><path class="cls-1" d="M594,83.29a4.38,4.38,0,1,1-6.2,6.2L557.37,59.08a4.38,4.38,0,0,0-6.21,0L520.75,89.49a4.23,4.23,0,0,1-1.4.93l-.12,0a4,4,0,0,1-.49.16,4.3,4.3,0,0,1-.66.12,2.9,2.9,0,0,1-.43,0l-.5,0a2.89,2.89,0,0,1-.44-.07,4.31,4.31,0,0,1-2.23-1.19L484.07,59.08a4.37,4.37,0,0,0-6.2,0L447.46,89.49a2.09,2.09,0,0,1-.22.2l0,0-.27.22-.21.14a1.83,1.83,0,0,1-.3.18,2.64,2.64,0,0,1-.38.18,4.91,4.91,0,0,1-.5.17l-.33.08a4,4,0,0,1-.86.09,4.17,4.17,0,0,1-.88-.09l-.33-.08a2.58,2.58,0,0,1-.49-.17,2.64,2.64,0,0,1-.38-.18,1.92,1.92,0,0,1-.31-.18l-.19-.13a3.61,3.61,0,0,1-.3-.25,1.21,1.21,0,0,1-.24-.21L410.82,59.08a4.38,4.38,0,0,0-6.21,0L374.2,89.49a4.23,4.23,0,0,1-1.4.93l-.12,0a4.66,4.66,0,0,1-.49.16,4.4,4.4,0,0,1-.65.12,3.15,3.15,0,0,1-.44,0l-.5,0a2.89,2.89,0,0,1-.44-.07,4.31,4.31,0,0,1-2.23-1.19L337.52,59.08a4.37,4.37,0,0,0-6.2,0L300.91,89.49a4.4,4.4,0,0,1-3.1,1.29h-.34a4.44,4.44,0,0,1-3.11-1.29L264,59.08a4.38,4.38,0,0,0-6.21,0L227.34,89.49a4.23,4.23,0,0,1-1.4.93l-.12,0a4,4,0,0,1-.49.16,4.54,4.54,0,0,1-.66.12,2.9,2.9,0,0,1-.43,0l-.5,0a2.7,2.7,0,0,1-.44-.07,4.27,4.27,0,0,1-2.23-1.19L190.66,59.08a4.38,4.38,0,0,0-6.21,0l-30.4,30.41a2.09,2.09,0,0,1-.22.2l0,0-.27.22-.21.14a1.83,1.83,0,0,1-.3.18,2.64,2.64,0,0,1-.38.18,4.91,4.91,0,0,1-.5.17l-.33.08a4,4,0,0,1-.86.09,4.17,4.17,0,0,1-.88-.09l-.33-.08a2.58,2.58,0,0,1-.49-.17,2.64,2.64,0,0,1-.38-.18,1.92,1.92,0,0,1-.31-.18l-.19-.13a3.61,3.61,0,0,1-.3-.25,1.64,1.64,0,0,1-.25-.21l-30.4-30.41a4.38,4.38,0,0,0-6.21,0L80.79,89.49a4.23,4.23,0,0,1-1.4.93l-.12,0a4.66,4.66,0,0,1-.49.16,4.3,4.3,0,0,1-.66.12,2.9,2.9,0,0,1-.43,0l-.5,0a2.7,2.7,0,0,1-.44-.07,4.31,4.31,0,0,1-2.23-1.19L44.11,59.08a4.37,4.37,0,0,0-6.2,0L7.5,89.49A4.39,4.39,0,0,1,0,86.36a4.3,4.3,0,0,1,1.29-3.07L37.91,46.68a4.37,4.37,0,0,1,6.2,0L77.66,80.22,111.2,46.68a4.38,4.38,0,0,1,6.21,0L150.94,80.2l33.51-33.52a4.38,4.38,0,0,1,6.21,0l33.55,33.54,33.54-33.54a4.38,4.38,0,0,1,6.21,0l33.68,33.68,33.68-33.68a4.37,4.37,0,0,1,6.2,0l33.55,33.54,33.54-33.54a4.38,4.38,0,0,1,6.21,0L444.35,80.2l33.52-33.52a4.37,4.37,0,0,1,6.2,0l33.55,33.54,33.54-33.54a4.38,4.38,0,0,1,6.21,0Z"/><path class="cls-1" d="M594,446.41a4.38,4.38,0,1,1-6.2,6.2L557.37,422.2a4.38,4.38,0,0,0-6.21,0l-30.41,30.41a4.21,4.21,0,0,1-1.4.92.45.45,0,0,1-.12.06,4,4,0,0,1-.49.16,4.3,4.3,0,0,1-.66.12,2.9,2.9,0,0,1-.43,0l-.5,0-.44-.07a4.31,4.31,0,0,1-2.23-1.19L484.07,422.2a4.37,4.37,0,0,0-6.2,0l-30.41,30.41a2.09,2.09,0,0,1-.22.2l0,0-.27.22-.21.14a1.83,1.83,0,0,1-.3.18,2.64,2.64,0,0,1-.38.18,4.91,4.91,0,0,1-.5.17l-.33.08a4,4,0,0,1-.86.09,4.17,4.17,0,0,1-.88-.09l-.33-.08a2.58,2.58,0,0,1-.49-.17,2.64,2.64,0,0,1-.38-.18,1.92,1.92,0,0,1-.31-.18l-.19-.13a3.61,3.61,0,0,1-.3-.25,1.64,1.64,0,0,1-.24-.21L410.82,422.2a4.38,4.38,0,0,0-6.21,0L374.2,452.61a4.21,4.21,0,0,1-1.4.92.45.45,0,0,1-.12.06,4.66,4.66,0,0,1-.49.16,4.4,4.4,0,0,1-.65.12,3.15,3.15,0,0,1-.44,0l-.5,0-.44-.07a4.31,4.31,0,0,1-2.23-1.19L337.52,422.2a4.37,4.37,0,0,0-6.2,0l-30.41,30.41a4.4,4.4,0,0,1-3.1,1.29h-.34a4.44,4.44,0,0,1-3.11-1.29L264,422.2a4.38,4.38,0,0,0-6.21,0l-30.41,30.41a4.21,4.21,0,0,1-1.4.92.67.67,0,0,1-.12.06,4,4,0,0,1-.49.16,4.54,4.54,0,0,1-.66.12,2.9,2.9,0,0,1-.43,0l-.5,0-.44-.07a4.27,4.27,0,0,1-2.23-1.19L190.66,422.2a4.38,4.38,0,0,0-6.21,0l-30.4,30.41a2.09,2.09,0,0,1-.22.2l0,0-.27.22-.21.14a1.83,1.83,0,0,1-.3.18,2.64,2.64,0,0,1-.38.18,4.91,4.91,0,0,1-.5.17l-.33.08a4,4,0,0,1-.86.09,4.17,4.17,0,0,1-.88-.09l-.33-.08a2.58,2.58,0,0,1-.49-.17,2.64,2.64,0,0,1-.38-.18,1.92,1.92,0,0,1-.31-.18l-.19-.13a3.61,3.61,0,0,1-.3-.25,2.52,2.52,0,0,1-.25-.21l-30.4-30.41a4.38,4.38,0,0,0-6.21,0L80.79,452.61a4.21,4.21,0,0,1-1.4.92.45.45,0,0,1-.12.06,4.66,4.66,0,0,1-.49.16,4.3,4.3,0,0,1-.66.12,2.9,2.9,0,0,1-.43,0l-.5,0-.44-.07a4.31,4.31,0,0,1-2.23-1.19L44.11,422.2a4.37,4.37,0,0,0-6.2,0L7.5,452.61A4.39,4.39,0,0,1,0,449.48a4.28,4.28,0,0,1,1.29-3.07L37.91,409.8a4.37,4.37,0,0,1,6.2,0l33.55,33.54L111.2,409.8a4.38,4.38,0,0,1,6.21,0l33.53,33.52,33.51-33.52a4.38,4.38,0,0,1,6.21,0l33.55,33.54,33.54-33.54a4.38,4.38,0,0,1,6.21,0l33.68,33.68,33.68-33.68a4.37,4.37,0,0,1,6.2,0l33.55,33.54,33.54-33.54a4.38,4.38,0,0,1,6.21,0l33.53,33.52,33.52-33.52a4.37,4.37,0,0,1,6.2,0l33.55,33.54,33.54-33.54a4.38,4.38,0,0,1,6.21,0Z"/><path class="cls-1" d="M594,401a4.38,4.38,0,1,1-6.2,6.2l-30.41-30.41a4.38,4.38,0,0,0-6.21,0l-30.41,30.41a4.21,4.21,0,0,1-1.4.92.45.45,0,0,1-.12.06,4,4,0,0,1-.49.16,4.3,4.3,0,0,1-.66.12,2.9,2.9,0,0,1-.43,0l-.5,0-.44-.07a4.31,4.31,0,0,1-2.23-1.19l-30.41-30.41a4.37,4.37,0,0,0-6.2,0l-30.41,30.41a2.09,2.09,0,0,1-.22.2l0,0-.27.22-.21.14a1.83,1.83,0,0,1-.3.18,2.64,2.64,0,0,1-.38.18,4.91,4.91,0,0,1-.5.17l-.33.08a4,4,0,0,1-.86.09,4.17,4.17,0,0,1-.88-.09l-.33-.08a2.58,2.58,0,0,1-.49-.17,2.64,2.64,0,0,1-.38-.18,1.92,1.92,0,0,1-.31-.18l-.19-.13a3.61,3.61,0,0,1-.3-.25,1.64,1.64,0,0,1-.24-.21l-30.41-30.41a4.38,4.38,0,0,0-6.21,0L374.2,407.22a4.21,4.21,0,0,1-1.4.92.45.45,0,0,1-.12.06,4.66,4.66,0,0,1-.49.16,4.4,4.4,0,0,1-.65.12,3.15,3.15,0,0,1-.44,0l-.5,0-.44-.07a4.31,4.31,0,0,1-2.23-1.19l-30.41-30.41a4.37,4.37,0,0,0-6.2,0l-30.41,30.41a4.4,4.4,0,0,1-3.1,1.29h-.34a4.44,4.44,0,0,1-3.11-1.29L264,376.81a4.38,4.38,0,0,0-6.21,0l-30.41,30.41a4.21,4.21,0,0,1-1.4.92.67.67,0,0,1-.12.06,4,4,0,0,1-.49.16,4.54,4.54,0,0,1-.66.12,2.9,2.9,0,0,1-.43,0l-.5,0-.44-.07a4.27,4.27,0,0,1-2.23-1.19l-30.41-30.41a4.38,4.38,0,0,0-6.21,0l-30.4,30.41a2.09,2.09,0,0,1-.22.2l0,0-.27.22-.21.14a1.83,1.83,0,0,1-.3.18,2.64,2.64,0,0,1-.38.18,4.91,4.91,0,0,1-.5.17l-.33.08a4,4,0,0,1-.86.09,4.17,4.17,0,0,1-.88-.09l-.33-.08a2.58,2.58,0,0,1-.49-.17,2.64,2.64,0,0,1-.38-.18,1.92,1.92,0,0,1-.31-.18l-.19-.13a3.61,3.61,0,0,1-.3-.25,2.52,2.52,0,0,1-.25-.21l-30.4-30.41a4.38,4.38,0,0,0-6.21,0L80.79,407.22a4.21,4.21,0,0,1-1.4.92.45.45,0,0,1-.12.06,4.66,4.66,0,0,1-.49.16,4.3,4.3,0,0,1-.66.12,2.9,2.9,0,0,1-.43,0l-.5,0-.44-.07a4.31,4.31,0,0,1-2.23-1.19L44.11,376.81a4.37,4.37,0,0,0-6.2,0L7.5,407.22A4.39,4.39,0,0,1,0,404.09,4.28,4.28,0,0,1,1.29,401l36.62-36.61a4.37,4.37,0,0,1,6.2,0L77.66,398l33.54-33.54a4.38,4.38,0,0,1,6.21,0l33.53,33.52,33.51-33.52a4.38,4.38,0,0,1,6.21,0L224.21,398l33.54-33.54a4.38,4.38,0,0,1,6.21,0l33.68,33.68,33.68-33.68a4.37,4.37,0,0,1,6.2,0L371.07,398l33.54-33.54a4.38,4.38,0,0,1,6.21,0l33.53,33.52,33.52-33.52a4.37,4.37,0,0,1,6.2,0L517.62,398l33.54-33.54a4.38,4.38,0,0,1,6.21,0Z"/><path class="cls-1" d="M594,491.8a4.38,4.38,0,1,1-6.2,6.2l-30.41-30.41a4.38,4.38,0,0,0-6.21,0L520.75,498a4.21,4.21,0,0,1-1.4.92.45.45,0,0,1-.12.06,4,4,0,0,1-.49.16,4.3,4.3,0,0,1-.66.12,2.9,2.9,0,0,1-.43,0l-.5,0-.44-.07a4.31,4.31,0,0,1-2.23-1.19l-30.41-30.41a4.37,4.37,0,0,0-6.2,0L447.46,498a2.09,2.09,0,0,1-.22.2l0,0-.27.22-.21.14a1.83,1.83,0,0,1-.3.18,2.64,2.64,0,0,1-.38.18,4.91,4.91,0,0,1-.5.17l-.33.08a4,4,0,0,1-.86.09,4.17,4.17,0,0,1-.88-.09l-.33-.08a2.58,2.58,0,0,1-.49-.17,2.64,2.64,0,0,1-.38-.18,1.92,1.92,0,0,1-.31-.18l-.19-.13a3.61,3.61,0,0,1-.3-.25,1.64,1.64,0,0,1-.24-.21l-30.41-30.41a4.38,4.38,0,0,0-6.21,0L374.2,498a4.21,4.21,0,0,1-1.4.92.45.45,0,0,1-.12.06,4.66,4.66,0,0,1-.49.16,4.4,4.4,0,0,1-.65.12,3.15,3.15,0,0,1-.44,0l-.5,0-.44-.07a4.31,4.31,0,0,1-2.23-1.19l-30.41-30.41a4.37,4.37,0,0,0-6.2,0L300.91,498a4.4,4.4,0,0,1-3.1,1.29h-.34a4.44,4.44,0,0,1-3.11-1.29L264,467.59a4.38,4.38,0,0,0-6.21,0L227.34,498a4.21,4.21,0,0,1-1.4.92l-.12.06a4,4,0,0,1-.49.16,4.54,4.54,0,0,1-.66.12,2.9,2.9,0,0,1-.43,0l-.5,0-.44-.07a4.27,4.27,0,0,1-2.23-1.19l-30.41-30.41a4.38,4.38,0,0,0-6.21,0L154.05,498a2.09,2.09,0,0,1-.22.2l0,0-.27.22-.21.14a1.83,1.83,0,0,1-.3.18,2.64,2.64,0,0,1-.38.18,4.91,4.91,0,0,1-.5.17l-.33.08a4,4,0,0,1-.86.09,4.17,4.17,0,0,1-.88-.09l-.33-.08a2.58,2.58,0,0,1-.49-.17,2.64,2.64,0,0,1-.38-.18,1.92,1.92,0,0,1-.31-.18l-.19-.13a3.61,3.61,0,0,1-.3-.25,2.52,2.52,0,0,1-.25-.21l-30.4-30.41a4.38,4.38,0,0,0-6.21,0L80.79,498a4.21,4.21,0,0,1-1.4.92.45.45,0,0,1-.12.06,4.66,4.66,0,0,1-.49.16,4.3,4.3,0,0,1-.66.12,2.9,2.9,0,0,1-.43,0l-.5,0-.44-.07A4.31,4.31,0,0,1,74.52,498L44.11,467.59a4.37,4.37,0,0,0-6.2,0L7.5,498A4.39,4.39,0,0,1,0,494.87a4.28,4.28,0,0,1,1.29-3.07l36.62-36.61a4.37,4.37,0,0,1,6.2,0l33.55,33.54,33.54-33.54a4.38,4.38,0,0,1,6.21,0l33.53,33.52,33.51-33.52a4.38,4.38,0,0,1,6.21,0l33.55,33.54,33.54-33.54a4.38,4.38,0,0,1,6.21,0l33.68,33.68,33.68-33.68a4.37,4.37,0,0,1,6.2,0l33.55,33.54,33.54-33.54a4.38,4.38,0,0,1,6.21,0l33.53,33.52,33.52-33.52a4.37,4.37,0,0,1,6.2,0l33.55,33.54,33.54-33.54a4.38,4.38,0,0,1,6.21,0Z"/><path class="cls-1" d="M594,264.85a4.38,4.38,0,1,1-6.2,6.2l-30.41-30.41a4.38,4.38,0,0,0-6.21,0l-30.41,30.41a4.21,4.21,0,0,1-1.4.92.45.45,0,0,1-.12.06,4,4,0,0,1-.49.16,4.3,4.3,0,0,1-.66.12,2.9,2.9,0,0,1-.43,0l-.5,0a2.89,2.89,0,0,1-.44-.07,4.31,4.31,0,0,1-2.23-1.19l-30.41-30.41a4.37,4.37,0,0,0-6.2,0l-30.41,30.41a2.09,2.09,0,0,1-.22.2l0,0-.27.22-.21.14a1.83,1.83,0,0,1-.3.18,2.64,2.64,0,0,1-.38.18,4.91,4.91,0,0,1-.5.17l-.33.08a4,4,0,0,1-.86.09,4.17,4.17,0,0,1-.88-.09l-.33-.08a2.58,2.58,0,0,1-.49-.17,2.64,2.64,0,0,1-.38-.18,1.92,1.92,0,0,1-.31-.18l-.19-.13a3.61,3.61,0,0,1-.3-.25,1.21,1.21,0,0,1-.24-.21l-30.41-30.41a4.38,4.38,0,0,0-6.21,0L374.2,271.05a4.21,4.21,0,0,1-1.4.92.45.45,0,0,1-.12.06,4.66,4.66,0,0,1-.49.16,4.4,4.4,0,0,1-.65.12,3.15,3.15,0,0,1-.44,0l-.5,0a2.89,2.89,0,0,1-.44-.07,4.31,4.31,0,0,1-2.23-1.19l-30.41-30.41a4.37,4.37,0,0,0-6.2,0l-30.41,30.41a4.4,4.4,0,0,1-3.1,1.29h-.34a4.44,4.44,0,0,1-3.11-1.29L264,240.64a4.38,4.38,0,0,0-6.21,0l-30.41,30.41a4.21,4.21,0,0,1-1.4.92l-.12.06a4,4,0,0,1-.49.16,4.54,4.54,0,0,1-.66.12,2.9,2.9,0,0,1-.43,0l-.5,0a2.7,2.7,0,0,1-.44-.07,4.27,4.27,0,0,1-2.23-1.19l-30.41-30.41a4.38,4.38,0,0,0-6.21,0l-30.4,30.41a2.09,2.09,0,0,1-.22.2l0,0-.27.22-.21.14a1.83,1.83,0,0,1-.3.18,2.64,2.64,0,0,1-.38.18,4.91,4.91,0,0,1-.5.17l-.33.08a4,4,0,0,1-.86.09,4.17,4.17,0,0,1-.88-.09l-.33-.08a2.58,2.58,0,0,1-.49-.17,2.64,2.64,0,0,1-.38-.18,1.92,1.92,0,0,1-.31-.18l-.19-.13a3.61,3.61,0,0,1-.3-.25,1.64,1.64,0,0,1-.25-.21l-30.4-30.41a4.38,4.38,0,0,0-6.21,0L80.79,271.05a4.21,4.21,0,0,1-1.4.92.45.45,0,0,1-.12.06,4.66,4.66,0,0,1-.49.16,4.3,4.3,0,0,1-.66.12,2.9,2.9,0,0,1-.43,0l-.5,0a2.7,2.7,0,0,1-.44-.07,4.31,4.31,0,0,1-2.23-1.19L44.11,240.64a4.37,4.37,0,0,0-6.2,0L7.5,271.05A4.39,4.39,0,0,1,0,267.92a4.28,4.28,0,0,1,1.29-3.07l36.62-36.61a4.37,4.37,0,0,1,6.2,0l33.55,33.54,33.54-33.54a4.38,4.38,0,0,1,6.21,0l33.53,33.52,33.51-33.52a4.38,4.38,0,0,1,6.21,0l33.55,33.54,33.54-33.54a4.38,4.38,0,0,1,6.21,0l33.68,33.68,33.68-33.68a4.37,4.37,0,0,1,6.2,0l33.55,33.54,33.54-33.54a4.38,4.38,0,0,1,6.21,0l33.53,33.52,33.52-33.52a4.37,4.37,0,0,1,6.2,0l33.55,33.54,33.54-33.54a4.38,4.38,0,0,1,6.21,0Z"/><path class="cls-1" d="M0,41A4.3,4.3,0,0,1,1.29,37.9L37.91,1.29a4.37,4.37,0,0,1,6.2,0L77.66,34.83,111.2,1.29a4.38,4.38,0,0,1,6.21,0l33.53,33.52L184.45,1.29a4.38,4.38,0,0,1,6.21,0l33.55,33.54L257.75,1.29a4.38,4.38,0,0,1,6.21,0L297.64,35,331.32,1.29a4.37,4.37,0,0,1,6.2,0l33.55,33.54L404.61,1.29a4.38,4.38,0,0,1,6.21,0l33.53,33.52L477.87,1.29a4.37,4.37,0,0,1,6.2,0l33.55,33.54L551.16,1.29a4.38,4.38,0,0,1,6.21,0L594,37.9a4.38,4.38,0,1,1-6.2,6.2L557.37,13.69a4.38,4.38,0,0,0-6.21,0L520.75,44.1a4.23,4.23,0,0,1-1.4.93l-.12,0a4,4,0,0,1-.49.16,4.3,4.3,0,0,1-.66.12,2.9,2.9,0,0,1-.43,0l-.5,0a2.89,2.89,0,0,1-.44-.07,4.31,4.31,0,0,1-2.23-1.19L484.07,13.69a4.37,4.37,0,0,0-6.2,0L447.46,44.1a2.09,2.09,0,0,1-.22.2l0,0-.27.22-.21.14a1.83,1.83,0,0,1-.3.18,2.64,2.64,0,0,1-.38.18,4.91,4.91,0,0,1-.5.17l-.33.08a4,4,0,0,1-.86.09,4.17,4.17,0,0,1-.88-.09l-.33-.08a2.58,2.58,0,0,1-.49-.17,2.64,2.64,0,0,1-.38-.18,1.92,1.92,0,0,1-.31-.18l-.19-.13a3.61,3.61,0,0,1-.3-.25,1.21,1.21,0,0,1-.24-.21L410.82,13.69a4.38,4.38,0,0,0-6.21,0L374.2,44.1a4.23,4.23,0,0,1-1.4.93l-.12,0a4.66,4.66,0,0,1-.49.16,4.4,4.4,0,0,1-.65.12,3.15,3.15,0,0,1-.44,0l-.5,0a2.89,2.89,0,0,1-.44-.07,4.31,4.31,0,0,1-2.23-1.19L337.52,13.69a4.37,4.37,0,0,0-6.2,0L300.91,44.1a4.4,4.4,0,0,1-3.1,1.29h-.34a4.44,4.44,0,0,1-3.11-1.29L264,13.69a4.38,4.38,0,0,0-6.21,0L227.34,44.1a4.23,4.23,0,0,1-1.4.93l-.12,0a4,4,0,0,1-.49.16,4.54,4.54,0,0,1-.66.12,2.9,2.9,0,0,1-.43,0l-.5,0a2.7,2.7,0,0,1-.44-.07,4.27,4.27,0,0,1-2.23-1.19L190.66,13.69a4.38,4.38,0,0,0-6.21,0L154.05,44.1a2.09,2.09,0,0,1-.22.2l0,0-.27.22-.21.14a1.83,1.83,0,0,1-.3.18,2.64,2.64,0,0,1-.38.18,4.91,4.91,0,0,1-.5.17l-.33.08a4,4,0,0,1-.86.09,4.17,4.17,0,0,1-.88-.09l-.33-.08a2.58,2.58,0,0,1-.49-.17,2.64,2.64,0,0,1-.38-.18,1.92,1.92,0,0,1-.31-.18l-.19-.13a3.61,3.61,0,0,1-.3-.25,1.64,1.64,0,0,1-.25-.21l-30.4-30.41a4.38,4.38,0,0,0-6.21,0L80.79,44.1a4.23,4.23,0,0,1-1.4.93l-.12,0a4.66,4.66,0,0,1-.49.16,4.3,4.3,0,0,1-.66.12,2.9,2.9,0,0,1-.43,0l-.5,0a2.7,2.7,0,0,1-.44-.07,4.31,4.31,0,0,1-2.23-1.19L44.11,13.69a4.37,4.37,0,0,0-6.2,0L7.5,44.1A4.39,4.39,0,0,1,0,41Z"/></g></g></svg>